<svg id="Capa_1" data-name="Capa 1" xmlns="http://www.w3.org/2000/svg" viewBox="0 0 135.99 295.21"><defs><style>.cls-1{fill:#65160d;}.cls-2{fill:#5a2218;}.cls-3{fill:#fed65f;}.cls-4{fill:#fed660;}.cls-5{fill:#49110f;}.cls-6{fill:#917718;}.cls-7{fill:#f7ad6e;}.cls-8{fill:#fdd55f;}.cls-9{fill:#f28b4a;}.cls-10{fill:#f9c395;}.cls-11{fill:#f6ad6e;}.cls-12{fill:#f6ad6f;}.cls-13{fill:#f5ad72;}.cls-14{fill:#f18a49;}.cls-15{fill:#f3ac72;}.cls-16{fill:#f1a63f;}.cls-17{fill:#653427;}.cls-18{fill:#4a100f;}.cls-19{fill:#f7ad6f;}.cls-20{fill:#f49e35;}.cls-21{fill:#f5e7b7;}.cls-22{fill:#b5920f;}.cls-23{fill:#927618;}.cls-24{fill:#91741b;}.cls-25{fill:#562010;}.cls-26{fill:#897824;}.cls-27{fill:#88761b;}.cls-28{fill:#f4ac72;}.cls-29{fill:#521f10;}.cls-30{fill:#f28b48;}.cls-31{fill:#fefdfd;}.cls-32{fill:#5c322a;}.cls-33{fill:#7b4733;}.cls-34{fill:#bf8257;}.cls-35{fill:#bb8258;}.cls-36{fill:#8c3032;}.cls-37{fill:#fdf7f3;}.cls-38{fill:#fcecdf;}.cls-39{fill:#301410;}.cls-40{fill:#34120d;}</style></defs><path class="cls-1" d="M182.57,281.19a27.65,27.65,0,0,1-6-8.72c-1.83-3.75-2.79-4.06-6.92-3.3-12.21,2.26-24.38,2.41-36.43-1.07-2.2-.63-3.68,0-4.47,2.12a32.65,32.65,0,0,1-2.91,5.44c-.9,1.5-2,2.74-4.1,2.11-2.75-1.5-3.52-4.77-6-7.07a14,14,0,0,0-.2,5.26q.39,10.91.8,21.81c8.15-.44,16.31-.68,24.46-.79.05-3.74,0-7.48-.05-11.22a16.42,16.42,0,0,1,.14-2.8c.46-3.25,1-3.62,4.22-3.06,3,.54,6,1.52,9.16.78,1.42-.33,1.55.6,1.41,1.68a9.67,9.67,0,0,0,.1,2.79q.74,5.88,1.5,11.75c9.35,0,18.7.15,28.05.26-.25-3.9-.59-7.81-.81-11.72A5.94,5.94,0,0,0,182.57,281.19Z" transform="translate(-82.01 -2.56)"/><path class="cls-2" d="M111.71,68a49.17,49.17,0,0,0-5.27-12.34c-3-5.44-3.34-11.42-3.74-17.38a7,7,0,0,1,.82-2.95A77,77,0,0,1,122.64,7.93c8.27-7.55,20-6.24,27.47-1.64,2.63,1.61,4.95,2.33,7.9,1.45,4-1.19,7.22,0,9.26,3.75.56,1,1.33.79,2.13.8,6,.1,9.43,4,8.37,9.82a2,2,0,0,0,1.32,2.59,11.29,11.29,0,0,0,2,1c7.48,1.75,8.91,7.56,9.23,13.94a28.88,28.88,0,0,1-3.46,15.15,68.27,68.27,0,0,0-5.54,12.85c0,2.91-2.5,3.25-4.37,4.19-1.08.55-2.14.5-2.74-.83-1.48-8.89-1.5-17.86-1.44-26.83,0-4.52-2.5-7.1-7.16-7.46-2,.87-4,1.91-6.44,1.42-.83-.17-1.59.43-2.35.8a9.42,9.42,0,0,1-4.58,1.13c-4.77-.22-9,1.47-12.92,3.9-2.95,1.81-6,3.48-9,5.1a38.23,38.23,0,0,1-11.47,3.5c-1.45.66-1.19,2-1.21,3.18-.06,3.84,0,7.69,0,11.53,0,1.21.13,2.46-.68,3.52C114.35,71.38,113,69.75,111.71,68Z" transform="translate(-82.01 -2.56)"/><path class="cls-3" d="M110,264.55c-1,.22-1.48,1.11-2.15,1.75-3.42,3.28-3.83,3.39-6.86-.09a83.57,83.57,0,0,1-14.07-23,68.11,68.11,0,0,1-4.84-24c-.25-6.86,1.34-13.54,2.76-20.2a279.78,279.78,0,0,1,13.28-43.91c1.32-3.39,2.2-7.08,4.7-9.95,1.33.21,1.42,1.38,1.69,2.31a248.75,248.75,0,0,1,6,25.42,6.3,6.3,0,0,1,0,3.05c-5.72,9.1-9.35,19.09-12.66,29.24A56.76,56.76,0,0,0,95.59,217c-.77,7.52,2,13.89,6.41,19.75,1.56,1.74,2.23,3.92,3,6,1,3.29,2,6.54,5.3,8.38a4.8,4.8,0,0,1,.7,1,2.73,2.73,0,0,0,1.15,1.5c2.29,1.17,2.74,3.14,2.21,5.48C113.13,261.13,112.1,263.31,110,264.55Z" transform="translate(-82.01 -2.56)"/><path class="cls-4" d="M190,142.42c3.77,5.2,6.39,11,9,16.82,2.75,6,5.48,12,7.86,18.22,4.24,10.95,8.45,21.92,10.45,33.56,1.35,7.86.31,15.6-1.23,23.34a69.57,69.57,0,0,1-3.21,10.34c-.85,2.1-1.47,4.31-2.84,6.18h0c-1.71,2.51-2.61,5.48-4.46,7.9a51.33,51.33,0,0,0-3.12,4.28c-1,1.8-2.33,2.25-4.15,1.33-1.57-.86-2.85-2.23-4.68-2.61-1.33-2.1-4.09-3-4.75-5.68a4.43,4.43,0,0,1-.19-.8,6,6,0,0,1,.6-3.62,3.89,3.89,0,0,1,.45-.69c4.62-3.92,6.77-9.28,8.55-14.85a5.56,5.56,0,0,1,.88-1.41c2.74-1.95,2.31-5.25,3.33-7.93.42-1.1.74-2.26,1.17-3.37,1.63-6.47.12-12.62-1.95-18.69-3.38-9.88-8.59-18.84-14.14-27.63a10.73,10.73,0,0,1-1.69-3.21c.09-7.31,1.45-14.49,2.21-21.73.27-2.51.8-5,.94-7.5A2.73,2.73,0,0,1,190,142.42Z" transform="translate(-82.01 -2.56)"/><path class="cls-5" d="M187,272.73c-2.95,1.73-3.52,1.55-5.22-1.38a21.75,21.75,0,0,1-2.14-6.65c-.5-1.16.1-2.84-1.62-3.41a8.25,8.25,0,0,0-3,.8,82.55,82.55,0,0,1-12.46,3.3c-6.48,1.08-13,.58-19.47.48-2.78,0-5.45-.85-8.17-1.29-3.09-.5-6-2.12-9.19-1.76a1.78,1.78,0,0,0-1,.93,26.81,26.81,0,0,1-3.56,13.34,1,1,0,0,0,0,.81c0,.54-1.1,1.62.5,1.43,1.77-.21,3.72-.78,4.46-2.47,1-2.3,2.93-4.12,3.41-6.68.31-1.7,1.34-2.19,2.86-1.53,6.06,2.6,12.56,2.6,18.93,3a68.38,68.38,0,0,0,19.66-2c2-.48,3.37,0,4.24,2,1.38,3.27,2.74,6.82,5.55,9s2.83,4.47,2.91,7.35c.09,3.05.3,6.1.47,9.15l4.11.05-.84-18.49C187,276.78,187.81,274.71,187,272.73Z" transform="translate(-82.01 -2.56)"/><path class="cls-6" d="M190,142.42c-.87,7.7-1.77,15.39-2.62,23.09-.32,3-.54,6-.8,8.92.77,2.68.12,5.34-.16,8-.15,1.38-.18,2.78-.34,4.16a6.21,6.21,0,0,1-.59,1.89c-.87,2.32-.61,4.79-.93,7.18a150.41,150.41,0,0,0-1.34,19.75c0,5.22-.8,10.41-.47,15.63a8.5,8.5,0,0,1-.5,4.14c-1.19,3-.51,6.12-.6,9.18-.13,4.18-4.22,9.07-8.28,9.68a1.42,1.42,0,0,1-1.52-.44A1.33,1.33,0,0,1,172,252a2,2,0,0,1,.53-.65c5.5-3.84,6.14-10,6.81-15.75,1.21-10.43.93-20.92.29-31.42a127.55,127.55,0,0,1,2.75-34.06c1.51-7.24,2.79-14.53,4.44-21.74a2.33,2.33,0,0,0-1.64-3.09,45.6,45.6,0,0,0-16.26-2.7c-2.54.07-3.89,2.12-5.2,3.92-4.6,6.3-8.17,13.21-11.93,20-.22.41-.39.85-.62,1.26-1.79,3.16-3.37,3.32-5.25.2-4.19-7-8.29-14-13.06-20.62-.87-1.22-1.72-2.45-2.71-3.59a4.5,4.5,0,0,0-4-1.73c-5.4.54-10.83.95-15.92,3.11-3,1.27-3.6,2.19-3.08,5.37,1,5.87,3.42,11.28,5.24,16.88a28,28,0,0,0,1.24,3.14c3.93,8.33,4.85,17.23,4.94,26.28.08,8.81,0,17.62,0,26.43,0,6.19.78,12.12,4.81,17.22,1.43,1.81,1.13,4.59-.65,5.47a6.85,6.85,0,0,0-3.67,4.62,2.38,2.38,0,0,1-.82,1.12,2.27,2.27,0,0,1-3.07-.89c-.58-1.31-.29-2.72-.48-4.08a342.26,342.26,0,0,0-3.29-58.38c0-3.07-1-6-1.38-9a8.67,8.67,0,0,1-.08-3.29c-.78-7.74-2.9-15.2-4.74-22.72a38.43,38.43,0,0,0-2.51-8.24c-.17-1.42,1-1.38,1.83-1.63a100.14,100.14,0,0,1,22.77-4c1.56-.1,3.12-.25,4.67-.38,2.5,2,3.25,5.15,4.82,7.76,3.08,5.12,6.24,10.2,9.34,15.31,1.34,2.21,1.61,2.18,2.92,0,4.29-7.23,8.81-14.33,12.34-22,.32-.69.59-1.39,1.4-1.64C172,138.94,181.15,139.86,190,142.42Z" transform="translate(-82.01 -2.56)"/><path class="cls-2" d="M136,125.52a11.88,11.88,0,0,1-3.57-2.28c-1-2.24-2.83-3.91-4.32-5.76a83,83,0,0,1-9.7-15.74c-1-2.06-1-2.27,0-3.43,3.48,3,7.21,2.75,11.31,1.33,4.35-1.51,9-1.81,13.58-1.91,8.7-.18,17.44-.48,26.1.74,2.84.39,4.07-2,6.11-2.93,1.79,0,1.7,1.21,1.25,2.3-3.38,8.21-7.34,16.09-13.36,22.75-1.22,1.35-3.43,1.67-3.93,3.77l-1.21,1.22a3.66,3.66,0,0,1-2.82,1.6c-5.26.62-10.52,1.38-15.8.16A6,6,0,0,1,136,125.52Z" transform="translate(-82.01 -2.56)"/><path class="cls-7" d="M136,125.52l3.22,1.15c4.44,3.36,9.11,6.19,14.8,6.91,1.45.19,3.05-.25,4.31.87.33,1.28-.22,2.69.58,3.9-1.59,5.4-5.43,8.24-10.79,8.85-4.38.5-7.67-1.82-10.28-5.18a11.28,11.28,0,0,0-2.2-2.53,1.4,1.4,0,0,1-.44-.7c.43-.43,1.25-.55,1.23-1.37C136.38,133.45,136.93,129.46,136,125.52Z" transform="translate(-82.01 -2.56)"/><path class="cls-8" d="M162.86,138.51c-3.84,9-9.22,17.09-14.05,25.52-.87,1.51-1.39,1.36-2.23,0-5-8.22-10.4-16.21-14.54-24.93l3.2-.31a1.21,1.21,0,0,0,.21.24,3.7,3.7,0,0,1,.93,1.38c1.78,5.5,6.05,7.26,11.3,7.37a11.7,11.7,0,0,0,11-7.57c.28-.7.49-1.42,1.29-1.72Z" transform="translate(-82.01 -2.56)"/><path class="cls-9" d="M116.14,70.89c1-1.82.47-3.81.53-5.71.12-3.84.14-7.69,0-11.52-.08-1.94.74-2.26,2.32-1.9.92.71,1.73,1.52,1.5,2.79-1,5.54.11,11.12-.37,16.7-.47,5.38-.77,10.78-1.69,16.09a49.13,49.13,0,0,0-.74,8.88c-1,1.43-1.74.23-2.25-.45a15.64,15.64,0,0,1-1.39-3l-.08-.55a3.66,3.66,0,0,0-1.34-4.4,8.72,8.72,0,0,1-3-4.53c-1.07-3-1.15-6.22-1.39-9.36-.2-2.55.83-3.7,2.72-3.7,2.06,0,4.38,2,4.44,3.85,0,.65-.19,1.29-.13,2C116.07,74.45,114.87,72.45,116.14,70.89Z" transform="translate(-82.01 -2.56)"/><path class="cls-10" d="M165.09,36.07c3.39-.88,8.66,3,8.52,6.34a198.06,198.06,0,0,0,1.18,28.91c1.71,1.27,1.5,3.2,1.72,5,.53,4.41,1.29,8.75,3.81,12.56-1,.29-.83,1-.69,1.76-.82,1.53-.74,3.82-3.27,3.94-.89-3.74-2.05-7.41-2.94-11.16-1.69-7.1-2.13-14.36-2.93-21.58a9.53,9.53,0,0,0-.82-3.52,3.66,3.66,0,0,1-.46-2.22c1.24-2.15.77-4.5.79-6.8,0-1.95-.11-3.9,0-5.84.19-2.61-.52-4.52-3.2-5.43A2.17,2.17,0,0,1,165.09,36.07Z" transform="translate(-82.01 -2.56)"/><path class="cls-11" d="M125.1,264a18.87,18.87,0,0,1-3.88,13.89c-1.85.23-2.16-1.48-3-2.48a50,50,0,0,1-2.78-4.54V276c.25-4.83-2.61-8.14-5.54-11.42a25.19,25.19,0,0,1,4-5.21c.56.08.51-1,1.21-.63a2.3,2.3,0,0,1,.52.56,5.83,5.83,0,0,0,5.91,3.36C122.85,262.56,124.48,262.16,125.1,264Z" transform="translate(-82.01 -2.56)"/><path class="cls-12" d="M187.48,278.71l-.61-5.46c-.88.11-1,.89-1.24,1.4-.78,1.45-1.48,1-2.29.06a16.16,16.16,0,0,1-4.26-9.83c-.14-1.63-.83-3.46,1.49-4.21,1.74-.67,3.85.18,5.4-1.29a23.27,23.27,0,0,0,2.83-3,1.39,1.39,0,0,1,.66-.34c.33,1.57,1.68,2.24,2.75,3.19.73.66,1.61,1.26,1.66,2.41.28.65-.25.82-.64,1.08C189.26,267.28,186.58,272.36,187.48,278.71Z" transform="translate(-82.01 -2.56)"/><path class="cls-13" d="M180.32,88.87a8.09,8.09,0,0,1-3.4-5.78c-.4-3.19-1.52-6.29-1.19-9.57.09-.9-1.25-1.21-.94-2.21a7,7,0,0,0,6.52-3.66c.65,1.66,1.8.7,2.81.54,1.48-.22,3.2-.62,3.58,1.49,1,5.66,1.28,11.31-1.79,16.53C184.69,88.28,182.91,89.51,180.32,88.87Z" transform="translate(-82.01 -2.56)"/><path class="cls-14" d="M158.37,134.45a26.37,26.37,0,0,1-17-5.3,6.54,6.54,0,0,1-2.15-2.48c6.42.68,12.81.67,19.09-1.09A57.1,57.1,0,0,1,158.37,134.45Z" transform="translate(-82.01 -2.56)"/><path class="cls-15" d="M116.14,70.89c0,2.07,0,4.13,0,6.19,0,.53.14,1.27-.61,1.36s-.92-.52-1-1.11-.51-1.65-.23-2.18c1.61-3-1.23-3.33-2.63-4.08s-2.87-.18-2.8,1.86c.14,4.2.51,8.36,2.12,12.3a3.4,3.4,0,0,0,2.2,2c1.54.54,1.92,3.58.76,5-.16-.53-.15-1.36-.49-1.54-6.34-3.45-6.18-9.71-6.79-15.61a13.72,13.72,0,0,1,.21-4.46c.87-3.85,1.08-4,4.81-2.65Z" transform="translate(-82.01 -2.56)"/><path class="cls-16" d="M160,138.49c-2.1,9.22-10.86,12.09-19.06,8.67a9.19,9.19,0,0,1-5.51-8.13c1.66-.3,2,1.18,2.61,2.09,4.11,5.65,9.24,7,15.6,3.58,1.77-.95,2.61-2.61,3.62-4.16.51-.77.72-1.76,1.67-2.19Z" transform="translate(-82.01 -2.56)"/><path class="cls-17" d="M176.85,94.49c1.22-1.07,1.18-3.06,2.78-3.86.36,2.88-.55,5.55-1.6,8.12a67.27,67.27,0,0,1-14.28,22.14,48.52,48.52,0,0,1-4.19,3.47,2,2,0,0,1,1.13-2.58c3.47-1.13,4.62-4.47,6.52-6.94,4-5.21,6.34-11.41,9.22-17.28.35-.72-.1-1.26-.05-1.89C176,95.08,176.4,94.77,176.85,94.49Z" transform="translate(-82.01 -2.56)"/><path class="cls-17" d="M114.05,92.82l3.18,4.06a1.16,1.16,0,0,1,.71,1.44,60,60,0,0,0,10.36,18.14c1.52,1.84,2.52,4.08,4.41,5.64.43.35.24.84-.24,1.14-5.11-4.63-8.79-10.36-12.49-16.08C117.14,102.76,114.61,98.18,114.05,92.82Z" transform="translate(-82.01 -2.56)"/><path class="cls-18" d="M153.73,281.13c1.07,0,2.34-.45,2.52,1.28.68-.45,1.22-1,.55-1.8a2.07,2.07,0,0,0-2.47-.86c-3,1.12-5.85.08-8.64-.61-4.79-1.19-5.31-1-5.85,3.88a10.47,10.47,0,0,0,0,1.12q0,6.44,0,12.85c2.52,0,5-.06,7.56-.07l.54-10.22C148.17,281.27,148.22,281.27,153.73,281.13Z" transform="translate(-82.01 -2.56)"/><path class="cls-19" d="M117.94,98.32c-.23-.48-.47-1-.71-1.44-1.14-4.11.34-8,.77-12,.49-4.48,1.33-8.9,1.14-13.47a50.82,50.82,0,0,1,.47-6.92c.34-3.38-1.39-6.79.23-10.19.28-.57-.54-1.66-.85-2.5,7.65-1,14-4.85,20.44-8.74A27.38,27.38,0,0,1,152,39.17c4.43-.33,8.75-2,13.11-3.1.14.13.26.33.41.37,5.42,1.4,5.67,5.43,5.32,10a19.88,19.88,0,0,0,.23,7c.4,1.45-1.09,1.83-1.41,2.85-1,.23-1.27-.61-1.69-1.16a6.19,6.19,0,0,0-6.42-2.47c-4,.64-7.44,2.94-11.17,4.39-2.06.81-.79,2.76-.28,4.17.61,1.66,1.53,3.08,3.7,2.56a10.06,10.06,0,0,0,3.47-1.79,14.2,14.2,0,0,1,10.23-3,3.19,3.19,0,0,0,2.75-1c1.39,2.63,1.38,5.58,1.59,8.39.57,8,1.51,15.92,4.41,23.47.6,1.56-.84,3.31.62,4.7-.16.4-.31.79-.47,1.18-3.12,4.65-7.74,3.51-12.18,3.22-12.83-.81-25.66-1.39-38.15,2.58C122.32,102.65,120.31,100.22,117.94,98.32Z" transform="translate(-82.01 -2.56)"/><path class="cls-17" d="M138.53,24.72a49.18,49.18,0,0,1-18.07-2.78,2.84,2.84,0,0,1-2.16-3.43,15,15,0,0,1,4.72-7.6A18,18,0,0,0,125.39,9c3.46-4.46,13.35-5.92,18.52-2.94,2,1.13,4.47,1.09,6.06,3.16,3.68,4.82,3.83,12-1.2,14.6a5.34,5.34,0,0,1-1.05.33C144.69,24.92,141.61,24.72,138.53,24.72Z" transform="translate(-82.01 -2.56)"/><path class="cls-17" d="M182.36,59.6a14.48,14.48,0,0,1,.13-4.76c1.28-4.84.19-9.56-.92-14.3A83.75,83.75,0,0,0,178.32,29c-.58-1.5.4-2.13,1.76-2,2.23.25,4.36,1.16,5.32,3.17,2.23,4.65,4.6,9.18,2.66,14.88-1.28,3.74-2.38,7.57-3.77,11.29A30.19,30.19,0,0,1,182.36,59.6Z" transform="translate(-82.01 -2.56)"/><path class="cls-17" d="M164.57,16.47c.48,2.73-.68,5.82-.66,9,0,1.13-.46,2.74-1.72,2.87s-1.45-1.45-1.84-2.48a75.52,75.52,0,0,1-4.13-13.32c-.35-2-.44-3.31,2.18-2.53a2.51,2.51,0,0,0,.55.07C164.57,10.64,164.57,10.64,164.57,16.47Z" transform="translate(-82.01 -2.56)"/><path class="cls-20" d="M112.18,187.92c-4,4.49-6.19,9.93-8.36,15.38a53.57,53.57,0,0,0-2.13,34.07c-5.4-6.64-7.77-14-6.59-22.72,1.47-10.78,5.62-20.62,10-30.39,1.27-2.86,2.13-6.18,5-8.18A57.4,57.4,0,0,1,112.18,187.92Z" transform="translate(-82.01 -2.56)"/><path class="cls-20" d="M110.55,252c1.8.48,2.85,2.15,4.52,2.84a2.7,2.7,0,0,1-.17,3.91l-.71,1.24c-.09-.23-.18-.46-.26-.68-.06-2.15.47-4.53-2.64-5.19C110.22,253.92,110.66,252.8,110.55,252Z" transform="translate(-82.01 -2.56)"/><path class="cls-20" d="M104.43,243c2.34,2.53,3.73,5.67,5.59,8.52C106.26,249.9,105.48,246.34,104.43,243Z" transform="translate(-82.01 -2.56)"/><path class="cls-20" d="M198.74,210.44c-2.3-5.82-4.56-11.67-8.06-16.93-.25-.37-.55-.72-.83-1.08a26.24,26.24,0,0,1-4.46-5.71,89,89,0,0,1,1.21-12.29A121.81,121.81,0,0,1,198,193.62c3.66,8.1,7.57,16.25,7.16,25.57-.07,1.61-.49,3.13-.62,4.7-2.74.42-3.36-.07-3.64-2.61A43.56,43.56,0,0,0,198.74,210.44Z" transform="translate(-82.01 -2.56)"/><path class="cls-20" d="M198.74,210.44c2,2.77,2,6.1,2.27,9.23.19,2.58.82,4,3.49,4.22a14.72,14.72,0,0,0-2.1,6.4,6.07,6.07,0,0,1-3,4.89c.86-5.76,1.61-11.53.57-17.35C199.57,215.37,199.16,212.91,198.74,210.44Z" transform="translate(-82.01 -2.56)"/><path class="cls-21" d="M189.3,255.44c-2.06-1.66-1.12-2.87.61-3.94A11.72,11.72,0,0,0,189.3,255.44Z" transform="translate(-82.01 -2.56)"/><path class="cls-22" d="M184.34,251.39l.52.67a1.55,1.55,0,0,1,.21,1.55c-3.57-.36-3.65,2.84-4.88,4.84-.65,1.06-.63,2.58-2.12,3.06a55.19,55.19,0,0,1-24.65,5.4c-3.37,0-6.86.68-10.24-.3-7.23-1.55-13.93-4.53-20.52-7.77-1-.48-2.24-1.11-1.57-2.51.58-1.23,1.81-.61,2.76-.41a31.28,31.28,0,0,1,7,2.21c-1.67-.55-3.66-1.95-5.84-3-2-.92-3.55-2.39-5.81-.41a2.21,2.21,0,0,1-3.18-.75c.33-1.28,2.81-.54,2.4-2.53.48-2.46.11-5.21,3.86-5.89,1.46-.27,2.06-2.78.81-4.24-4.36-5.1-5.25-11.15-5.26-17.51,0-8.91-.05-17.82,0-26.73a72.37,72.37,0,0,0-6-29.34,78.3,78.3,0,0,1-5.71-18c-.36-2.17.32-3.75,2.27-4.6a38.93,38.93,0,0,1,13.2-3.36,17.26,17.26,0,0,0,3.34-.37,5.56,5.56,0,0,1,6.34,2.42,267.38,267.38,0,0,1,15.33,23.87c1.7,2.93,2.41,2.84,3.93-.21A211.4,211.4,0,0,1,163,146c2.28-3.47,5.39-5,9.53-4.24s8.3,1.15,12.31,2.5c2.48.84,3.52,1.88,2.76,4.82a288.57,288.57,0,0,0-6.6,34.22c-1,7.86-.76,15.81-.32,23.77a170.8,170.8,0,0,1-.21,25,103.53,103.53,0,0,1-1.8,11c-.71,3.55-2.19,6.49-5.28,8.52-.62.41-1.78.91-1.06,1.84.59.75,1.29-.24,1.92-.57,1.31-.69,2.48-1.62,3.75-2.38a5.58,5.58,0,0,0,3-5.3c-.09-3.32-.67-6.73.47-10,1.89.42,1.08,1.93,1,2.93a44.23,44.23,0,0,0,.3,10.6C183,249.77,183,251,184.34,251.39Z" transform="translate(-82.01 -2.56)"/><path class="cls-23" d="M116.22,253.76c2.2,1,4.13,1.22,4.75-2.06,3.85,3.28,8.8,4.42,12.46,7.77-3.3-.91-6.42-2.31-9.77-2.85-.7-.11-1.74-1.11-2.2,0s.84,1.25,1.51,1.61c6.48,3.43,13.46,5.63,20.21,8.39A70.87,70.87,0,0,1,129.34,264c-1.16-.29-2.34-.51-3.51-.76-3.15-.35-6-1.67-8.88-2.82a3,3,0,0,1-1.81-1.6l-.24,0c.06-1.31.11-2.61.17-3.91v0c.39-.32.19-.89.51-1.25A.66.66,0,0,1,116.22,253.76Z" transform="translate(-82.01 -2.56)"/><path class="cls-24" d="M178.07,261.51c1.09-2.36,2.54-4.63,3.16-7.1s1.23-2.35,2.74-.9c.17.16.53.12.8.17a5.11,5.11,0,0,1,2,3.84c-1.5,1.94-4.22,1.92-5.88,3.62-2.43.36-1.41,2.39-1.81,3.74C178.16,263.93,179.37,262.34,178.07,261.51Z" transform="translate(-82.01 -2.56)"/><path class="cls-25" d="M115.14,258.82l10.69,4.42-.73.77c-1.56-1.66-3.53-.46-5.29-.68A5.65,5.65,0,0,1,115.14,258.82Z" transform="translate(-82.01 -2.56)"/><path class="cls-26" d="M184.34,251.39a1.24,1.24,0,0,1-2.11-.95c-.13-2.69-.8-5.31-.8-8,0-2.4,1.28-4.84,0-7.24a4.31,4.31,0,0,0,.51-1.57c-.6-5.85,1.41-11.65.23-17.52-.24-1.2.28-2.55.38-3.84q.87-11.44,1.69-22.88c0-.58.1-1.12.71-1.4.94,2.27,0,4.48-.21,6.71-1.1,10.41-1.58,20.85-1.77,31.31A155.4,155.4,0,0,0,184.34,251.39Z" transform="translate(-82.01 -2.56)"/><path class="cls-27" d="M116.22,253.76l-.59,0a2.81,2.81,0,0,1,.1-2.83,3.85,3.85,0,0,0,2.73.55c1.68.52,1.3,1.41.2,2A6.61,6.61,0,0,1,116.22,253.76Z" transform="translate(-82.01 -2.56)"/><path class="cls-6" d="M115.73,250.91c0,.94-.06,1.89-.1,2.83l-.56,1.11c0-2.63-.46-5.3.49-7.88C115.62,248.28,115.67,249.6,115.73,250.91Z" transform="translate(-82.01 -2.56)"/><path class="cls-28" d="M152.13,100c4,.14,7.57-.37,11.08.51s4.77,3,3.83,6.42c-1.38,5.09-8.55,10.36-13.82,10.32-1.56,0-2.33-.93-3.18-1.94-1.5-1.78-2.69-1.69-3.68.44-.84,1.82-2.14,2.69-4,2.3-5.82-1.24-10.74-3.85-13.29-9.61-1.69-3.81-.8-5.52,3.16-6.67a44.43,44.43,0,0,1,10.26-1.29C145.87,100.32,149.23,100.16,152.13,100Z" transform="translate(-82.01 -2.56)"/><path class="cls-2" d="M170.23,57.93c0,1.25.49,2.51-1.91,1.85a11.51,11.51,0,0,0-9.61,2c-.47.32-.94.62-1.4.95-6.07,4.27-7.11,1.68-8.95-4a1.79,1.79,0,0,1,1.25-2.45c3.36-1,6.35-2.76,9.63-3.87,4.87-1.66,7.31-.72,10.4,3.83Z" transform="translate(-82.01 -2.56)"/><path class="cls-29" d="M180.89,261.14c-.29-.19-1.16-.27-.22-.75,1.89-1,3.82-1.86,5.73-2.78.65.53.55,1.14.19,1.79C185.44,262.43,182.74,260.39,180.89,261.14Z" transform="translate(-82.01 -2.56)"/><path class="cls-30" d="M185.92,75.82c-.14,3.17-.34,6.32-2.17,9.11-.83,1.25-1.37,1.67-2.78.52-2.82-2.29-2.91-2.65-1.48-5.89.64-1.45,2.33-2.76.45-5-.88-1,1.89-2.3,3.26-3A1.74,1.74,0,0,1,185.91,73,26.33,26.33,0,0,1,185.92,75.82Z" transform="translate(-82.01 -2.56)"/><path class="cls-2" d="M128.48,53.21a10.78,10.78,0,0,1,4,1c2.3,1,4.61,2.09,7,2.91,2.75,1,3.64,2.55,2.72,5.52-1,3.25-2,3.81-5.45,2.44-4.73-1.9-9.47-3.56-14.66-3.29-.88.05-1.39-.13-1.35-1.2A7.79,7.79,0,0,1,128.48,53.21Z" transform="translate(-82.01 -2.56)"/><path class="cls-31" d="M138,73.7l-3.29,1.59c-3.67.9-7.2.22-10.67-1a1.24,1.24,0,0,1-1.14-.67c.38-3.48,3.78-7,7-7.13.58,0,1.24,0,1.43.61s-.39,1-.81,1.34a2.6,2.6,0,0,0-.5,4,2.3,2.3,0,0,0,3.65.28c-.7-1.17-1.7-2.28-.58-3.7.45-1-1.9-1-.88-2.12a2.49,2.49,0,0,1,2.86-.19C136.85,67.43,138.54,71.58,138,73.7Z" transform="translate(-82.01 -2.56)"/><path class="cls-31" d="M168.36,73.63a6.44,6.44,0,0,0-3.18,1.06c-4.1,1.54-8,1.57-11.71-1.17-.35-2.22,1.08-5.89,2.71-6.77,1-.55,2.31-.78,3.11.13s-.52,1.36-.93,2c-.71,1.07-1.2,2.09-.27,3.3a2.6,2.6,0,0,0,3.15,1.11c.55-.18.63-.6.26-1.07-.83-1-1.22-2-.26-3.2.52-.42.26-.72-.13-1.08-1-.88-.34-1.31.54-1.45C164.62,66,168.79,70.49,168.36,73.63Z" transform="translate(-82.01 -2.56)"/><path class="cls-32" d="M168.36,73.63a7.6,7.6,0,0,0-7.11-6.57c.36.81,2,.46,1.61,1.85-.05.16-.69.13-1.06.19a1.93,1.93,0,0,0-1.61.08c-.87.41-1.78.9-1.48,2,.24.94,1.13,1.15,2,1.09a4,4,0,0,0,1.63-.27c1.42-.28,1.3.38.57,1.1a3.26,3.26,0,0,1-4.56.47c-1.44-1.09-2.15-2.54-1.2-4.42A6.81,6.81,0,0,1,159.45,67c-3.8,0-4.68.92-6.08,6.07-.18.26-.38.27-.58,0,.55-2.93,1-6.15,4.27-7.23a9.32,9.32,0,0,1,10.41,3.52,26.37,26.37,0,0,1,1.93,3.07C170,73.59,169.23,73.71,168.36,73.63Z" transform="translate(-82.01 -2.56)"/><path class="cls-32" d="M134.78,72.56c-1.83,2-3.65,2.15-5.17.57-1.7-1.75-1.26-3.83,1.41-6.14-4.58.08-6.59,3-8.1,6.61-1,.08-1-.32-.68-1.16,2.16-5,6.58-7.53,11.93-6.63,2.8.47,5.42,5.84,3.85,7.89.18-4.07-2.12-6.85-5.45-6.58.67.61,2,.39,2.06,1.69a6.85,6.85,0,0,1-1,.2,3.71,3.71,0,0,0-2.15.43,1.49,1.49,0,0,0-.78,1.64,1.38,1.38,0,0,0,1.4,1.14C133,72.29,133.94,72,134.78,72.56Z" transform="translate(-82.01 -2.56)"/><path class="cls-33" d="M141.3,71.41c.27,5.86.52,11.73.83,17.6.07,1.39-.35,2.12-1.84,2.13s-2.84.66-3.08,2.29,1.28,2,2.26,2.5a13.65,13.65,0,0,0,6.23,1.39,30.46,30.46,0,0,1,4.16.24c-3.47.4-7,.71-10.32-.5-1.68-.6-3.5-1.44-3.48-3.55a3.63,3.63,0,0,1,3.35-3.58c1.61-.28,1.42-1.46,1.42-2.58q0-8,0-15.94Z" transform="translate(-82.01 -2.56)"/><path class="cls-34" d="M152.79,73.1l.58,0c2.72,2.51,6,2.43,9.38,2.07.82-.09,1.62-.29,2.43-.45-1.37,1.3-5.46,1.85-8.32,1C155.29,75.22,153.55,74.9,152.79,73.1Z" transform="translate(-82.01 -2.56)"/><path class="cls-35" d="M124.06,74.27c3.54.57,7,1.57,10.67,1A12.24,12.24,0,0,1,124.06,74.27Z" transform="translate(-82.01 -2.56)"/><path class="cls-36" d="M160,104.52c2.06.19,2.93,1.86,3.85,3.3.71,1.12.2,2.35-.55,3.39-1,1.41-2.42,1-3.78.82-3.34.17-6.57-.78-9.89-.88-4.75-.14-9.48-.51-13.86,1.91-1.85.7-3,0-3-1.83,0-2.28,3-5.65,5.44-6.18a2.8,2.8,0,0,1,1.85-.55c6,.85,11.87-.31,17.81-.51A3.31,3.31,0,0,1,160,104.52Z" transform="translate(-82.01 -2.56)"/><path class="cls-37" d="M160,104.52c-7.25.66-14.49,1.76-21.78.53,1.19-2.44,3.71-2.56,5.85-3.17a21.25,21.25,0,0,1,13.72.79C158.65,103,159.81,103.23,160,104.52Z" transform="translate(-82.01 -2.56)"/><path class="cls-38" d="M135.75,113.06c.5-1.79,2.06-2,3.51-2.27,6.85-1.33,13.54,0,20.24,1.24-.55.73-1.38.58-2.06.45-6.54-1.22-12.94-.07-19.35,1C137.29,113.66,136.4,113.86,135.75,113.06Z" transform="translate(-82.01 -2.56)"/><path class="cls-39" d="M134.78,72.56a7.23,7.23,0,0,0-1.62.28A2.29,2.29,0,0,1,130,71.9a2.14,2.14,0,0,1,.49-2.77c1-1.16,2-1.08,3.11-.12-1.32,1.63-.82,2.59,1.1,3,.08,0,.21.1.2.13A2,2,0,0,1,134.78,72.56Z" transform="translate(-82.01 -2.56)"/><path class="cls-40" d="M162.37,72c-1.24,1.62-2.55,1.44-4,.22-1.18-1-.83-2,.05-2.8s2.06-2.18,3.37-.35C160.72,70.33,161.1,71.26,162.37,72Z" transform="translate(-82.01 -2.56)"/></svg>