<svg id="Capa_1" data-name="Capa 1" xmlns="http://www.w3.org/2000/svg" viewBox="0 0 209.52 292.71"><defs><style>.cls-1{fill:#e94e1b;}</style></defs><g id="forma_de_extraño" data-name="forma de extraño"><path class="cls-1" d="M85,75.92a7,7,0,0,0-6.89.83q-4.44,3.39-8.82,6.88c-5.11,4.06-10.13,8.22-15.31,12.17-4.34,3.31-8.86,6.39-13.32,9.54a3.13,3.13,0,0,1-.71.35c-.76,4.28-.59,8.7-3.17,12.17a7.61,7.61,0,0,0,1.76-.7c2.49-1.39,4.88-3,7.34-4.43,2.65-1.58,5.39-3,8-4.69,6-3.93,11.89-8,17.83-12,1.53-1,3.09-2,4.63-3A82.85,82.85,0,0,0,87.55,76.92C86.7,76.57,85.83,76.23,85,75.92Z" transform="translate(-5.92 -4.54)"/><path class="cls-1" d="M29.64,98.17a39.23,39.23,0,0,1-6.79-10.36A35.43,35.43,0,0,1,21,81.68c-.26-1-.45-1.83-2-1.18.89-1.44,1.69-2.62,2.38-3.86a4.68,4.68,0,0,0,.58-3.59,2.17,2.17,0,0,1,.17-1.44,4.91,4.91,0,0,0-.36-5.25,2.36,2.36,0,0,0-1.59-1.08c-1.79-.07-3.62-.23-5.29.76a3.14,3.14,0,0,1-1.28.23c-1.82.16-3.83,0-5.12,1.58a13.81,13.81,0,0,0-2.22,3.87c-1,2.76.39,7.18,3.42,8.52a9.26,9.26,0,0,1,1.9,1.21,2.47,2.47,0,0,1,.61,1c.56,1.52-.65,2.17-1.54,2.91-.72.6-.87,1.13-.24,1.89,1.43,1.75,2.85,3.51,4.22,5.3,1.63,2.12,3.21,4.28,4.82,6.42,3,3.94,6,7.84,8.85,11.86a22.55,22.55,0,0,0,5.52,5.91,5,5,0,0,0,3.75,1.07c-1.83-4.88-4.07-9.89-4.05-15.15C32.23,101.14,31,99.62,29.64,98.17Z" transform="translate(-5.92 -4.54)"/><path class="cls-1" d="M144.56,274.16c-.45-1.28-1.05-2.43-2.6-2.69-.81-.13-1.6-.4-2.5-.64.6-.92,1.1-1.76,1.68-2.55s.48-1.27-.3-2a91.88,91.88,0,0,1-6.65-6.44c-2.49-2.77-4.84-5.68-7.09-8.66-2.59-3.41-5.6-6.52-7.68-10.32a17.77,17.77,0,0,0-1.75-2.64c-1.79-2.23-3.71-4.36-5.47-6.63-1.64-2.12-3.16-4.32-3-7.26a41,41,0,0,0,0-5.08c-.44-9.14.91-18.15,1.9-27.18.26-2.4.79-4.78,1-7.18a142.61,142.61,0,0,1,1.55-16.1c.23-1.26.62-1.84,1.92-2.11,2.31-.46,3.33-1.81,3.07-3.65-.56-4-1.23-7.9-1.66-11.88-.46-4.23-.71-8.48-1-12.72-.24-3.27-.35-6.56-.66-9.82-.55-5.81-1.29-11.61-1.81-17.43-.36-4-.48-8.13-.69-12.2-.13-2.4-.22-4.82-.34-7.32-5.34-9,1.24-18.09-3.43-27.14-.21.07-.41.13-.63.22-3.21,1.43-6.4,2.92-9.78,4.47-1.1-3.38-2.16-6.59-3.19-9.82a32.8,32.8,0,0,1-1.65-14.38,1.56,1.56,0,0,1,1-1.43,9.39,9.39,0,0,0,5.92-8.18,5.7,5.7,0,0,0-1.39-4.82,5.08,5.08,0,0,0-5.65-1.16c-.79-3.4-.18-6.71.46-10,.53-2.78,1.19-5.53,1.74-8.3a9.32,9.32,0,0,0-.69-5.31c-.32-.78-.83-1.44-1.78-1.29-2.81.46-5.65.85-8.43,1.5-3.4.8-6.75,1.81-10.11,2.77s-6.71,1.75-9.93,3a57.58,57.58,0,0,0-8.46,4.23,10.78,10.78,0,0,0-2.75,3.08,1.55,1.55,0,0,0,.07,1.43A1.52,1.52,0,0,0,55,21c2.49-.36,5-.82,7.45-1.24A3.6,3.6,0,0,1,66.68,22a13.9,13.9,0,0,1,.8,3c.24,1.6.36,3.22.52,4.84a35.07,35.07,0,0,1-1.54,14.84,26.56,26.56,0,0,0-1.2,4.94c-.38,2.81.85,3.93,3.67,3.57a3.93,3.93,0,0,0,.44-.1l5.79-1.34c-.19,1.24-.28,2.28-.53,3.29s.05,1.53,1,1.62a23.92,23.92,0,0,0,5.13.21,26.42,26.42,0,0,0,4.75-1.57c-.56,1.6-1.92,2.39-3.32,3.12-.93.49-1.94.85-2.85,1.37a1.59,1.59,0,0,0-.16,2.84c3.52,2.46,5.2,6,6.13,10.07a1.07,1.07,0,0,1-.53.87C82.9,74.33,81,75,79.14,75.67l-2.79,1a82.62,82.62,0,0,1,2.83,19.48c0-.19.09-.39.14-.58l.28,0a5.42,5.42,0,0,1,.53,1.54c.19,3.38.53,6.78.42,10.16-.21,5.8-.73,11.59-1.07,17.39-.26,4.43-.27,8.85-1.53,13.2-.84,2.92-1.06,6-1.63,9-.55,2.85-1.19,5.68-1.78,8.53-.62,3.06-1.21,6.13-1.85,9.19a12.14,12.14,0,0,1-.63,1.81c-.77,2-1.57,4.06-2.35,6.1-.26.69,0,1.15.71,1.21,1,.1,2.09.08,3.13.1h2.56a68.59,68.59,0,0,1-2.25,6.59c-1.85,4.08-4,8-5.49,12.27-1.05,3-2.85,5.65-4.06,8.57-2,4.76-3.6,9.68-5.7,14.39a36.41,36.41,0,0,0-2.53,19.71c.52,4.27,1,8.54,1.43,12.82.22,2.36.16,4.75.3,7.12.24,4.15.53,8.28.8,12.42a87.58,87.58,0,0,1-.9,15.69c-.22,1.88-.21,1.9,1.78,2.07a7.51,7.51,0,0,1-1.28,1.05,49.4,49.4,0,0,1-14.77,5.09A20.05,20.05,0,0,0,39,293.15a2.9,2.9,0,0,0-1.17,1.16,1.2,1.2,0,0,0,.58,1.88,7.92,7.92,0,0,0,4.89,1c1.86-.32,3.72-.59,5.57-.88l4.9-.78c2.3-.36,4.6-.73,6.91-1.06a37.83,37.83,0,0,1,5.37-.65c2.79,0,4.6-1.49,4.7-4.29a5.34,5.34,0,0,0-1.27-4.09c.5-.1.86-.21,1.22-.25,1.47-.19,1.84-.64,1.55-2.08-.67-3.4-1.52-6.76-2-10.18-.93-6.27-1.69-12.57-2.47-18.85-.5-4-1.16-8.08-1.33-12.13a112.74,112.74,0,0,1,.27-14,22,22,0,0,1,2.11-7.21,70.59,70.59,0,0,1,4.35-7.25q4.59-7.4,9.22-14.78c1.6-2.56,3.16-5.14,4.83-7.64s3.42-4.83,5.29-7.46c.21,2.73.44,5.23.57,7.74.21,4.18.32,8.37.52,12.56.18,3.88.43,7.75.66,11.63a32.09,32.09,0,0,0,.36,4.28c.72,3.62,1.5,7.23,2.42,10.8A8.52,8.52,0,0,0,99.61,235a58.25,58.25,0,0,1,5.19,5c2.36,2.64,4.56,5.41,6.79,8.16,1.16,1.42,2.21,2.92,3.35,4.36,1.91,2.39,3.81,4.78,5.78,7.12,1,1.15,2.12,2.14,3.09,3.28a42.83,42.83,0,0,1,7.8,14.19c.36,1.06.75,1.16,1.6.4.43-.38.83-.79,1.25-1.19l.26.12a4.87,4.87,0,0,1-.15,1.5q-1.31,3-2.73,5.94c-.48,1-1.11,1.88-1.58,2.87a2.53,2.53,0,0,1-1.71,1.47,38,38,0,0,0-4.68,1.61,2.28,2.28,0,0,0-1.37,2.5c.13,1.05,1,1.2,1.84,1.39a9,9,0,0,0,2.12.27c3.17-.06,6.34-.11,9.5-.29,1.52-.08,3.19-.18,3.82-2a17.81,17.81,0,0,0,.81-3.05c.38-2.53.72-5.08.94-7.63a5.1,5.1,0,0,1,2-4A2.39,2.39,0,0,0,144.56,274.16Z" transform="translate(-5.92 -4.54)"/><path class="cls-1" d="M153.57,102.78c-4.07-1.24-8.15-2.45-12.22-3.7-1.87-.58-3.69-1.29-5.59-1.8-5.58-1.49-11.19-2.88-16.77-4.36s-11-3.07-16.59-4.49a28.88,28.88,0,0,0-5.68-.77c-3-.15-4.59-1.59-4.5-4.18,9.93,1.13,16.59-7.42,26.72-5.71l-.3.08c3,1.62,5.71,3.31,8.64,4.7,4.24,2,8.09,4.64,12.64,6.19s9.1,3.52,13.63,5.3a3.58,3.58,0,0,0,3.48-.31c2.66-1.67,5.47-3.14,8.11-4.84,4.22-2.71,8.36-5.53,12.52-8.32,3-2,6.29-3.87,8.36-6.91.55-.81,1.12-1.23,1.92-.58a11.3,11.3,0,0,0,4.15-6.18c.2-.75.49-1.48.73-2.22a8.1,8.1,0,0,1,3.07-3.91,2.21,2.21,0,0,1,1.73-.26c.29.11.33.91.33,1.42a4.19,4.19,0,0,1-.37,1.21c-.42,1.27.23,2,1.63,1.61A18.52,18.52,0,0,0,203,63.1a17.9,17.9,0,0,1,6.62-2.48c.94-.12,1.81.07,2.13.87s-.42,1.4-1.15,1.85c-.19.12-.41.19-.6.31l-2.53,1.62c2.6-.23,4.86-.58,6.94.32a3.64,3.64,0,0,1,.93.87c-.37.31-.7.8-1.12.9-1.9.47-3.82.82-5.73,1.26a6.5,6.5,0,0,0-1.25.6c0,.1.07.21.1.31.54.08,1.08.14,1.61.23,1.92.34,3.85.64,5.73,1.06.34.08.5.68.74,1a4.71,4.71,0,0,1-1.17.62,5,5,0,0,1-1.21-.09c-1.1,0-2.2,0-3.3-.07l-.06.37a3.84,3.84,0,0,0,.53.28c.86.3,1.76.52,2.57.89a1.11,1.11,0,0,1,.59.93,1.28,1.28,0,0,1-.92.73,5.63,5.63,0,0,1-1.9-.33c-1.38-.43-2.72-1.15-4.28-.53-2.12.84-4.25,1.68-6.3,2.69a11.09,11.09,0,0,1-4.56,1.48c-.66,0-1.31.08-2,.12.95,1.39.95,1.65-.5,2.56-4.37,2.76-8.78,5.46-13.16,8.21-2.34,1.47-4.69,2.94-7,4.53-2.84,2-5.48,4.26-8.42,6.11a28.74,28.74,0,0,1-6.2,2.65A7.4,7.4,0,0,1,153.57,102.78Z" transform="translate(-5.92 -4.54)"/><path class="cls-1" d="M108.39,64.78s4.5-2.79,6-2,4.21,15.09,4.21,15.09l-12.3,4Z" transform="translate(-5.92 -4.54)"/><polygon class="cls-1" points="33.99 101.15 27.59 98.1 27.59 106.17 30.82 113.32 35.54 108.69 33.99 101.15"/></g></svg>