<svg id="Capa_1" data-name="Capa 1" xmlns="http://www.w3.org/2000/svg" viewBox="0 0 187.25 257.16"><defs><style>.cls-1{fill:#582217;}.cls-2{fill:#4c2017;}.cls-3{fill:#c52423;}.cls-4{fill:#603023;}.cls-5{fill:#473939;}.cls-6{fill:#6d211c;}.cls-7{fill:#673c31;}.cls-8{fill:#532c2c;}.cls-9{fill:#3b3c41;}.cls-10{fill:#653427;}.cls-11{fill:#633e33;}.cls-12{fill:#4d2a26;}.cls-13{fill:#67201c;}.cls-14{fill:#f0946f;}.cls-15{fill:#eb916e;}.cls-16{fill:#f4c2a5;}.cls-17{fill:#facaa9;}.cls-18{fill:#e5262c;}.cls-19{fill:#e5272c;}.cls-20{fill:#f8c9ad;}.cls-21{fill:#f8c6a8;}.cls-22{fill:#f9c9aa;}.cls-23{fill:#792923;}.cls-24{fill:#f4c0a3;}.cls-25{fill:#ea926e;}.cls-26{fill:#da8365;}.cls-27{fill:#79261c;}.cls-28{fill:#398ea2;}.cls-29{fill:#5ca3c3;}.cls-30{fill:#fcfbfb;}.cls-31{fill:#cb2f2f;}.cls-32{fill:#f9f2f1;}.cls-33{fill:#c52524;}.cls-34{fill:#f8c7a8;}.cls-35{fill:#8e1e19;}.cls-36{fill:#f9c8a8;}.cls-37{fill:#61a0bd;}.cls-38{fill:#3a8da1;}.cls-39{fill:#438a9e;}.cls-40{fill:#374653;}.cls-41{fill:#456b83;}.cls-42{fill:#c32524;}.cls-43{fill:#fefcfc;}.cls-44{fill:#faf4f3;}.cls-45{fill:#e2282c;}.cls-46{fill:#da2a2d;}.cls-47{fill:#562419;}.cls-48{fill:#56271d;}.cls-49{fill:#8f5a42;}.cls-50{fill:#8f2f32;}.cls-51{fill:#4c1f18;}.cls-52{fill:#4c1e18;}.cls-53{fill:#8c5c46;}.cls-54{fill:#7b4b41;}.cls-55{fill:#7f4f39;}.cls-56{fill:#907063;}.cls-57{fill:#ea9a77;}.cls-58{fill:#7b462f;}.cls-59{fill:#b06546;}.cls-60{fill:#5ba3c4;}.cls-61{fill:#323539;}.cls-62{fill:#2c3a3e;}.cls-63{fill:#9c5130;}.cls-64{fill:#6e3f2c;}.cls-65{fill:#e46f78;}.cls-66{fill:#fcf8f8;}.cls-67{fill:#fbeeee;}.cls-68{fill:#864c4f;}.cls-69{fill:none;stroke:#653427;stroke-miterlimit:10;stroke-width:0.75px;}</style></defs><path class="cls-1" d="M92.23,88.58c-.48-5.11,1.3-7.66,6.76-9.49-5-15.39-5.49-30.7,1.36-45.76,2.11.26,3.43-1.44,5.16-2.13,4.9-2,6.09-1.54,7.6,3.4a10.56,10.56,0,0,0,1.61,3.61c3.08-3.05,3.21-3.67,1.4-7.13a8.75,8.75,0,0,1-.76-3.87c-.12-3.62-.52-3.88-4-2.7a23,23,0,0,0-4.44,2.08c-.93.55-1.88,1.36-3.09.55A50.45,50.45,0,0,1,137,3.71c.86.28,1,1.26,1.67,1.72a6.61,6.61,0,0,1,1.76,1.22c-.76-1.13-1.05-2.3.05-3.35.87-.83,1.68-.23,2.46.29.2.13.28.43.58.41a1.31,1.31,0,0,1-.32-1.39c14.81-1.55,28,3,40.4,10.65a64.8,64.8,0,0,1,6.23,4.46c2.63,2.09,2.56,2.48-.33,4.14a33.46,33.46,0,0,1,6.26,5.86c-1,1.1-2.36,1.11-3.65,1.37-6,1.19-11.72,2.83-17,6.08s-8.34,1.93-10-4a18.58,18.58,0,0,1-.48-7.31c.58-4.79-2.12-6.93-6.73-5.31a24.65,24.65,0,0,0-9.3,6.39c-5,5.15-10.56,9.37-17.77,11-2.35.52-2.73,2.78-3.84,4.38.83.85,1.49.29,2.1.08,5.9-2,11.75-4.17,16.74-8.16a31.33,31.33,0,0,1,7.32-4.48c4.31-1.82,6.81-.75,8.42,3.59a50.4,50.4,0,0,1,1.7,6.85,22.34,22.34,0,0,0,2.32,6.32c.86,1.51,2,2.33,3.8,1.66s1.62-1.85,1.12-3.26c-.27-.78-.53-1.79.41-2.17s1.51.52,1.85,1.22c.88,1.79,1.91,1.36,3.18.48,5-3.45,10-6.85,15.09-10,1.71-1.07,3.32-2.45,5.54-2.37a17.58,17.58,0,0,1,3.93,5.8c1.44,3.28-.06,5.84-3.61,5.91-2.36,0-2.58,1-2,2.87s.87,3.58-.84,4.76-3.35.05-4.83-.85A26.17,26.17,0,0,1,183.9,44c-.63.7-.13,1.4-.16,2.07-.18,3.73-2.35,5.48-5.94,4.41-2-.6-3.52-1-5.07,1-1,1.34-2.78,1.13-4.24.33a13.68,13.68,0,0,1-5.12-4.29c-2.26-3.4-5-6.45-6.79-10.2-1-2.11-2.22-1.69-3.89-.5-4.79,3.43-8.45,8-12.44,12.17-2.52,2.67-4.65,3-7.46.83-1.4-1.11-2.3-1-3.75-.16-3.26,2-4,1.86-6.9-.76a2.41,2.41,0,0,0-2.78-.38c-4.24,1.39-4.64,1.2-6.78-2.51-.55-.95-1.15-2.18-2.41-2s-1.37,1.42-1.69,2.35a44.91,44.91,0,0,0-.28,29.21c.72,3,1.53,6,1.36,9.19-.11,2-.87,3.29-3.06,3.3a14.74,14.74,0,0,1-2.73-.49c-.65-.58-1-1.73-2.14-1.45-3.1.75-2.38-.82-1.59-2.51.13-.26.14-.59.3-.85.39-1.8-.89-1.49-1.81-1.31a6,6,0,0,0-4.69,4.25c-.33.95-.26,2-.85,2.89A.58.58,0,0,1,92.23,88.58Z" transform="translate(-56.19 -2.31)"/><path class="cls-2" d="M107.48,75.07a39.31,39.31,0,0,1-1.57-21.87,69.14,69.14,0,0,1,2-7.67c.43-1.27.94-3.42,2.41-3.1,1.27.28,2.57,2,3.2,3.34,1.43,3.15,2.23,3.7,5.39,2,2-1,3.15-1.17,4.28,1.18.94,2,3.55,1.86,6-.34,1.51-1.34,2.16-1.83,3.59.2,1.75,2.46,4.8,2.08,6.7-.19A97.22,97.22,0,0,1,153.39,35.1c1.27-1,2.6-.9,3.28.67,1.74,4,4.57,7.23,7,10.78a13.1,13.1,0,0,0,3.87,3.8c3.24,2.08,3.84,2,6.1-1.19.76-1.1,1.22-.94,2.16-.32,1.76,1.19,3.92,2,5.74.74s1.83-3.43,1.09-5.54c-.19-.57-.42-1.55.52-1.84.71-.21,1,.55,1.31,1a19.52,19.52,0,0,0,6.88,5.48c.82.44,1.74.89,2.57.15a2.67,2.67,0,0,0,.8-2.8c-.25-.89-.65-1.73-.88-2.62-.52-2,.22-2.95,2.35-2.68,3.83.48,5.34-1.38,3.81-5a43.33,43.33,0,0,0-3.29-5.49c-.25-.58,0-.74.55-.68a40.13,40.13,0,0,1,8.25,17.75c.7,4-.37,5-4.44,4.3,0,3.22.95,6.79-1.12,9.44s-2.29,5.5-2.78,8.46q-3.39,3.17-6.91-.21a5.5,5.5,0,0,1-.49-1.91c-.77-3.23,0-6.79-2.13-9.82a16.93,16.93,0,0,1-.41,4.23c-.5,1.5-1.13,2.91-2.87,3.28s-2.74-.6-3.71-1.7A32.08,32.08,0,0,1,177,57.65a12,12,0,0,1-.94,3c-1.82,3.55-5.73,3.57-8.37-.08-3.89-5.38-7.73-10.8-11.65-16.17-.36-.5-.72-1-1.05-1.51-1.25-1.89-2.44-1.75-3.84-.08-4.08,4.85-8.27,9.6-12.07,14.67a16.17,16.17,0,0,1-4.47,4.14c-3.58,2.18-6.45.73-6.86-3.47a8.69,8.69,0,0,1,.16-2.77,23.17,23.17,0,0,1-5.37,5.91c-2.13,1.7-3.28,1.45-5-.76a13.35,13.35,0,0,1-.26-3.4S117.07,57,117,57s-.13.12-.2.22c-1.1,1.47-2,3.09-3.56,4.11s-3.22,1.37-4-1.1c0-2.5,0-5,1-7.13.17-.62-.29-.34-.29-.26.12,1.51-.83,2.88-.62,4.42a97.49,97.49,0,0,0-1,14.08C108.46,72.62,108.6,74,107.48,75.07Z" transform="translate(-56.19 -2.31)"/><path class="cls-3" d="M113.76,186.86c1-1.06.06-2.44.56-3.59,1.49-3.6,1.53-7.52,2.45-11.25,1.73-7,2.84-14.16,5-21.06.67-1.36,3.14-1.84,1.81-4.23-.43-.78.7-1.41,1.56-1.32,1.3.14,2.64-.34,3.9.27,1.41,2.06.83,4.33.62,6.53-.38,4-1.25,7.91-1,11.91.85,11.61,6.18,17.65,17.55,19.45,9.24,1.47,18.3-.55,27.24-2.86,3-.76,6-1.4,8.6-3.13,2.17,3.74,2.18,8.45,0,10.89-7.35,3.57-15.26,5-23.27,6-13.65,1.72-26.8-.68-39.74-4.78A12,12,0,0,1,113.76,186.86Z" transform="translate(-56.19 -2.31)"/><path class="cls-1" d="M197.22,29.57l-.55.68c-6.78,3.21-12.68,7.81-18.89,11.91-3.92,2.59-3.91,2.61-6.54-1.21-.65.71-.15,1.3.13,1.85.79,1.6,1.3,3-1,4-2,.85-3.72,1.06-5.06-1.07-2.23-3.56-2.83-7.64-3.69-11.61-1.53-7.05-3.94-8.43-10.76-4.26-5.9,3.62-11.36,8-18.07,10.13-2.33.74-4.53,2.31-7.51,1.66,2-3.27,3.1-6.53,7.58-7.24,5-.78,8.91-3.93,12.47-7.41,3.36-3.28,6.64-6.63,11-8.66,2.44-1.12,4.94-1.84,7.26-.34s2.36,4,1.76,6.61a11.43,11.43,0,0,0-.08,3.36c.54,8,3.91,9.74,10.68,5.81,6.1-3.54,12.84-5.07,19.75-6A3,3,0,0,1,197.22,29.57Z" transform="translate(-56.19 -2.31)"/><path class="cls-4" d="M86.43,99.05l-.16,0,.16,0c0-.06,0-.12-.05-.19a1.64,1.64,0,0,1-.75-.35c-2.26-2.36-4.47-4.77-6.68-7.17-.52-.58-1-1-.37-2,2.59-4.29,1.74-9.53,3.7-14a2.09,2.09,0,0,0-1.54-2.88,2.59,2.59,0,0,0-3.11,1.35c-.53.87-.87,1.85-1.56,3.35-.51-3.36-1.44-6-1.12-8.87.19-1.72.17-3.66-2.47-3.61a.94.94,0,0,0-.21.87,14.06,14.06,0,0,1,1.3,5.94,24.42,24.42,0,0,0,.89,5.74c.22.9.68,1.81,1.79,1.82.94,0,1.39-.73,1.76-1.5s.5-2.16,2-2.54c.12,3.11-1.33,5.73-1.54,8.55A6.56,6.56,0,0,1,77.18,88a2.84,2.84,0,0,0,.1,3.86c3,3.18,5.55,6.78,9.17,9.35a1.13,1.13,0,0,0,.26,0,7.08,7.08,0,0,0,.42-1.36A1.34,1.34,0,0,1,86.43,99.05Z" transform="translate(-56.19 -2.31)"/><path class="cls-4" d="M96.5,94.82c.29.06.56.13.83.21-.24-.09-.48-.18-.72-.29Z" transform="translate(-56.19 -2.31)"/><path class="cls-4" d="M197.47,79.47c-2.24-.34-2.48-1.11-1.86-2.92a21.72,21.72,0,0,0,.55-2.69c-2.57.53-3.53,2.8-4.93,4.58A57.69,57.69,0,0,0,191,90.69c.51,9.44-3.72,16.33-11,21.67a68.46,68.46,0,0,1-25.67,11.31c-2.58.6-5.16,1.34-7.85.81-11.67-2.27-22.64-6.21-31.89-14-5.61-4.71-8.89-10.57-8.7-18.09a22.54,22.54,0,0,0-.16-5.19c-.65-.8-1.17-.13-1.73.13a2.82,2.82,0,0,0-1.13,2.81c.71,2.24-.62,3-2.44,3.1-2.18.17-3.81-.94-5.26-2.46-.73-.76-.91-2.09-2.24-2.24l-.66,0c.25,2.88,2.19,4.56,4.56,6l-.18.13c.24.11.48.2.72.29s.45.14.67.21a18.24,18.24,0,0,0,4.92.45c0,4.72,2.41,8.63,5.17,12.43a2.83,2.83,0,0,1,.24-.25c8.85,10.25,20.89,14.91,33.88,18.6-1.25.88-2.19.74-2.78,1.36-.06,1.63,1.46,1.09,2.22,1.59.35.43,0,.9.09,1.34a2.82,2.82,0,0,0,.54,1.08c2.69,2.37,2.15-.67,2.8-1.69-.11-2.33.81-3.4,3.24-2.76a4.83,4.83,0,0,0,1.81-.08c3.19-.38,3.19-.38,3.31,2.76a8.28,8.28,0,0,0,.13,1.5c.87,2.46,1.59,1,2.31-.1.15-.27.3-.52.44-.79,1.77-1.33,3.8-.44,5.7-.69,1-.06,2,0,2.79-.89a32.56,32.56,0,0,0-7.2-1.21c-1-.11-2.49.44-2.63-1.29s1.4-1.43,2.38-1.72c8.76-2.56,17.18-5.87,24.44-11.58,5.26-4.15,9.37-9.15,10.57-16,.33-1.93.77-2.65,3-2.4a7.44,7.44,0,0,0,8.16-6.6C204.14,84.06,201.65,80.1,197.47,79.47Z" transform="translate(-56.19 -2.31)"/><path class="cls-5" d="M184.36,203.54c.49,8.61.72,17.21-1.82,25.61-.09.29-.12.6-.21.89-3.79,12.32-11.1,15.74-22.94,10.54-2.38-1-3.2-.81-3.7,1.82A25.75,25.75,0,0,1,152,252c-1.46,2.18-3.17,4.14-6.09,4s-4.7-2.27-5.45-4.74c-.92-3-2.39-2.84-4.88-2.15-6.63,1.85-13.38,2.68-20.23,1.21a1.66,1.66,0,0,1,.92-1.11c3-.76,6.08-.34,9.12-.37a40.64,40.64,0,0,0,17-4.24c4.45-2.08,7.27-5.74,9.82-9.7a1,1,0,0,1,.91-.1,26.4,26.4,0,0,0,12.69,5.82c6.39,1.22,10.3-1.07,13.22-7.63a54.94,54.94,0,0,0,3.8-19.91c.09-3.12-.56-6.29.55-9.35A.66.66,0,0,1,184.36,203.54Z" transform="translate(-56.19 -2.31)"/><path class="cls-6" d="M161.48,129.23l3.33-.13a7.17,7.17,0,0,1,2.4.28c4,2,6.6.71,9.23-2.78,2.84-3.78,6.55-6.92,9.83-10.39,1.64-1.73,2.55-1.5,3.37.75.33.88,0,2.76,2,2.33a.62.62,0,0,1,.75-.08c.12,1.44-.35,3,.57,4.3a26.51,26.51,0,0,0,2.29,5.13,1,1,0,0,1,.16,1.13c-.43,3,1.56,5.35,2.53,7.95.84,2.25,1,3.39-1.95,3.93-5.91,1.08-11.71,2.71-17.6,3.89-1.95.39-2.17,1.05-1.76,2.84,2.34,10.22,4.56,20.48,6.8,30.73.23,1.09.26,2.22.39,3.33.11,2,1,4-.67,5.77h0c-.49.31-1,.4-1.38-.09a3.77,3.77,0,0,0,1.33-3.73c-.44-2.22-.33-4.53-1.21-6.67a4.23,4.23,0,0,1-1.37-3c-1.66-8.54-3.89-17-5.64-25.47-.25-1.22-1.08-2.2-1.28-3.43.54-2,2.49-1.19,3.68-1.89,5.32-1.41,10.7-2.59,16.1-3.68,2.22-.45,3.09-1.29,2-3.52-.9-1.82-1.37-3.84-2.33-5.65-1.38-3.39-2.52-6.88-4-10.26-1.32-3.09-1.66-3.14-4.16-.75a176.49,176.49,0,0,0-11.86,13.19c-.9,1-1.74,1.17-2.45-.19-1.16-1.58-3-1.55-4.64-2S162.4,131.23,161.48,129.23Z" transform="translate(-56.19 -2.31)"/><path class="cls-7" d="M195.41,129.77l-.63-.62c-.26-1,.4-1.51,1-2.07A217.8,217.8,0,0,0,223.44,96.3c1.35-1.84,2.58-3.7,5.38-3.18a2.37,2.37,0,0,0,2.33-1.28c2.28-4.23,6-7.23,9.1-10.72.73-.81.66-.88-.12-1.61-1.25.54-2,1.78-3.25,2.3-.66.28-1.36.59-2,0s-.44-1.32-.19-2c.89-2.29,2.21-4.38,3.19-6.63a1.57,1.57,0,0,0,.14-1.48c-1-.34-1.37.59-1.85,1.15-.85,1-1.39,2.26-2.19,3.32-.53.71-1.15,1.67-2.2,1.16-.84-.39-.74-1.39-.66-2.2.22-2.09,1-4.12.85-6.81-2.07,2.4-1.69,5.43-3.67,7.54-1.69-2.37-.81-5.17-2.07-7.56-1.16,1.28.28,3.62-1.81,4.37-.79-.73-.13-1.76-.53-2.56,0-.61,0-1.23.1-1.83.18-1.38.56-2.73,2.3-2.69,1.51,0,2,1.22,2.25,2.49.1.5.14,1,.22,1.68,1.14-1.5,1.14-4.61,3.65-3.71,3.61,1.29.71,4.46,1.31,6.92A27.22,27.22,0,0,1,236.14,70c.88-.84,2-1.52,3.29-.6a2.36,2.36,0,0,1,.73,3c-.88,2.24-1.91,4.42-3.1,7.13,2.05-1.39,4-3.56,5.74-1.43s-.81,3.87-2.09,5.34c-2.57,3-6,5.16-7.71,9A4.17,4.17,0,0,1,229.12,95c-2.41-.27-3.32,1.07-4.49,2.66A225.8,225.8,0,0,1,195.41,129.77Z" transform="translate(-56.19 -2.31)"/><path class="cls-1" d="M103.8,27.14c3.1-1,5.66-3.2,8.92-3.92,2.87-.63,3.54-.28,3.38,2.71-.13,2.54-.08,4.93,2.17,6.66.7.54.72,1.09.17,1.82s-.82,1.67-1.41,2.36c-.77.9-.9,2.81-2,2.73-1.35-.1-1.67-1.89-2.13-3.11-2.56-6.67-3.12-6.86-9.8-3.21-.85.47-1.71,1.83-2.7.15A20.15,20.15,0,0,1,103.8,27.14Z" transform="translate(-56.19 -2.31)"/><path class="cls-8" d="M181.8,188.11l1.38.09c-1.24,1-.63,2.19-.41,3.34.78,4,1.67,7.92,1.59,12h-.71c-1.2-.59-1.24-1.74-1.33-2.85-.22-2.51-.79-5-1.17-7.46-.71-3.16-1.83-3.23-5.12-.28a1.48,1.48,0,0,1-1.31.3,8.19,8.19,0,0,0-4.22.35,129.76,129.76,0,0,1-14.14,2.31c-7.83,1.06-15.44-.14-23.06-1.43-5.55-.94-5.53-1.06-8.47,3.89a5.11,5.11,0,0,1-2.92,2.4,1,1,0,0,1-1-.72c.21-1.19,1.24-1.93,1.67-3,.18-.36.4-.7.59-1.05,1.63-3,1.46-3.38-1.62-4.56-2.06-.78-4.29-1.06-6.27-2.1a1.79,1.79,0,0,1-.67-1.1c-.51-.32-1-.66-.81-1.38a99.43,99.43,0,0,0,36.68,7.32,80.55,80.55,0,0,0,29.31-5.52A19.27,19.27,0,0,1,181.8,188.11Z" transform="translate(-56.19 -2.31)"/><path class="cls-9" d="M114.57,188.24l1.08.66c.75,2.62-.6,5.39.62,8,.71,1.59.39,3.21.13,4.82a49.45,49.45,0,0,0,.08,16.77c0-4.93-.29-9.86,2.45-14.3,1.31,3.46.27,7,.45,10.43a84.1,84.1,0,0,1-.06,10.41c-2,2.54-2,5.52-1.45,9.12-2.25-1.23-3.48-2.87-6.34-2.56,3.82-3.28,1.4-6.78,2.17-9.87.3-1.24-.88-1-1.68-.62-1.11.56-1.67,1.8-2.84,2.29-.56.05-.81-.27-1-.74.7-2.3,2.52-3.35,4.63-4,1.23-.36,1.52-.92,1.26-2.19a39,39,0,0,1,0-12.15c.33-3,1.12-5.83-.21-8.92C112.9,193.17,113.82,190.59,114.57,188.24Z" transform="translate(-56.19 -2.31)"/><path class="cls-10" d="M122.29,150.78c-2.71,9.92-4.7,20-6.66,30.1-.18.91.2,2.19-1.31,2.39,1-8.74,3.3-17.21,5.16-25.77.78-3.58,1.69-7.14,2.64-10.69.4-1.51.15-2.07-1.55-2.41-6.09-1.24-12.11-2.82-18.2-4.07-2.15-.44-2.38-1.17-1.65-3.09,1.08-2.81,2.83-5.42,3-8.56l.2-.16c1.19.07,1.12,1,1.25,1.81a17.67,17.67,0,0,1-1.52,5c-1.08,2.92-1,3.23,2.15,3.89,4.51,1,9,2.17,13.52,2.89a16.37,16.37,0,0,1,4.43,1.26c.53.32,1.27,1.14,1,1.31C122.63,146.22,124.13,149.17,122.29,150.78Z" transform="translate(-56.19 -2.31)"/><path class="cls-11" d="M223.88,70.18c.69.77.33,1.75.54,2.62a6.1,6.1,0,0,1-.11,6.09c-1,1.85-2.3,1.74-3.32-.11-.52-.93-.53-2.21-2.23-3-.23,2.83,1.32,5.13,1.4,7.61A11.38,11.38,0,0,0,222,89.8a2.33,2.33,0,0,1-.22,3.3c-7.93,9.42-17.22,17.42-26.6,25.32-.75.64-1.43,1.56-2.65,1l-.89-.15c6.42-5.68,13.14-11,19.2-17.12,3-3,5.76-6.1,8.71-9.09,1.1-1.12,1.37-2,.28-3.34-1.71-2-.7-4.76-1.53-7.07-.62-1.72-1-3.53-1.47-5.3-.41-1.57-.62-3.15,1.36-3.8s2.84.64,3.58,2.08c.32.63.5,1.32,1.07,2.86C223.25,75.17,223.56,72.67,223.88,70.18Z" transform="translate(-56.19 -2.31)"/><path class="cls-12" d="M116.12,249.71l-.74.62a2.06,2.06,0,0,0-2.74,1.55,17.21,17.21,0,0,1-2.12,4.05c-3.47,5-8.16,4.68-11-.77-2.7-5.29-2.94-11-2.28-16.75.37-3.26,1.64-6.3,2.7-9.37a5.63,5.63,0,0,1,3.16-3.54c1.13,1.65-.62,2.47-1,3.68-2.53,6.66-4.12,13.43-2.32,20.58a13.81,13.81,0,0,0,2.75,6.06c.88,1,2.08,2.61,3.54.45a1.27,1.27,0,0,1,.73-.92c2.7-.42,3.37-2.65,4.17-4.75.65-1.72-1.17-2.15-1.76-3.23a4.57,4.57,0,0,1,.37-3,.92.92,0,0,1,.7-.44C112.17,245.94,113.6,248.37,116.12,249.71Z" transform="translate(-56.19 -2.31)"/><path class="cls-13" d="M110,244.15a3.52,3.52,0,0,1-.57,2.83c-.56.74-1.3.41-1.91.21a5.06,5.06,0,0,0-5.89,1.73c-.48.3-.9.3-1.22-.24a37.39,37.39,0,0,1,.6-16.17,9.6,9.6,0,0,0,.41-3.83c.5-1.11,2-1.65,1.78-3.18a8.34,8.34,0,0,1,4.28-1.93,1.12,1.12,0,0,1,.4,1.21,1,1,0,0,1-.33.48c-4.39,2.5-4.43,3-.46,5.78a2.77,2.77,0,0,1,.81.86,1.82,1.82,0,0,1-.09,1.71,1.2,1.2,0,0,1-1.67.11c-2.3-1.91-2.66-.16-3.07,1.56-.26,1.1-.34,2.22-.53,3.32-1.07,6.35.2,7.38,6.67,5.46A.78.78,0,0,1,110,244.15Z" transform="translate(-56.19 -2.31)"/><path class="cls-2" d="M196.16,73.86l-4.32,4.32c-2.16-2.86-2.16-6-1.2-9.29,2,2,4.23,1.39,6.49.63A12.73,12.73,0,0,1,196.16,73.86Z" transform="translate(-56.19 -2.31)"/><path class="cls-12" d="M110,244.15a3.64,3.64,0,0,0-.57,0c-2.59-3-2.86-6.53-2-10.24l0-2.19a6.41,6.41,0,0,1,.06-6.6c0-.5,0-1,0-1.51l.79-1,.56.65a1.87,1.87,0,0,1,.68,1.64c-.73,5.85.29,11.58,1.14,17.33a2.33,2.33,0,0,1-.43,1.74Z" transform="translate(-56.19 -2.31)"/><path class="cls-1" d="M143.21,2.61l2.26,2.74c-1.51.56-2.06-.57-2.83-1.17-.52-.4-1-1.29-1.75-.52a1.5,1.5,0,0,0,0,2.39c.63.6,1.46,1.12,1.27,2.4C140.58,6.7,137.26,7,137,3.71A12.37,12.37,0,0,1,143.21,2.61Z" transform="translate(-56.19 -2.31)"/><path class="cls-8" d="M183.15,188.21c1.06-1.83.42-3.85.67-5.77C184,184.41,186,186.58,183.15,188.21Z" transform="translate(-56.19 -2.31)"/><path class="cls-14" d="M186.86,55.6c-.13,2-.14,3.82-.4,5.61-.2,1.38-.41,3-2.13,3.4s-2.68-.9-3.46-2c-1.52-2.24-2.84-4.62-4.42-7.23-.08.77-.11,1.18-.18,1.57-.37,2.19-.31,4.76-3.06,5.46s-4.22-1.21-5.65-3.23c-4.18-5.91-8.55-11.69-12.68-17.63-1.31-1.87-2.2-1.67-3.47-.15-2.7,3.26-5.3,6.61-8.2,9.68-3.16,3.33-4.82,8-9.22,10.25-3.11,1.61-5.35.53-5.54-3.07-.08-1.48.13-3,.25-5.31a29.45,29.45,0,0,1-6.74,8c-1.44,1.3-3,1.9-4-.61-.66-1-.17-2.08-.33-3.12-.08-.51.13-1.26-.85-1-1.33,1.59-2.36,3.42-4,4.76-1.16.94-2.19,1.38-2.86-.48-.52-.93-.15-1.95-.29-2.92-.07-.42,0-1.12-.81-.57-.2.95-.43,1.9-.6,2.86-.93,5.06-.49,10.19-.76,15.29.35,3.32,1.52,6.53,1.33,9.92-.11,2.05-.93,3.11-3.12,2.23-.19.22-.53.42-.55.66-.78,7.87.72,15,6.46,20.9,7.15,7.29,16.09,11.4,25.68,14.28,5.55,1.67,11.12,3.63,17,1.34-.68-1.11-1.92-1.06-3-1.4-8.39-2.73-16.58-5.92-24-10.76-8.43-5.47-14.44-12.79-16.06-22.93a64,64,0,0,1,0-18.34,23.61,23.61,0,0,1,.86-3.9c.63-2.11,2.2-2.78,4.22-1.8a6.06,6.06,0,0,0,7.15-.83c1.94-1.79,3.47-2.12,5.19,0,3.23.4,6.48.69,9.69,1.25A14.29,14.29,0,0,0,145.57,59c1.89-3.64,4.22-7,6.34-10.5,1.16-1.92,1.94-1.86,3,.1,1.53,2.9,2.86,5.89,4.43,8.76s3.1,6,6.31,7.68c5.69-.45,11.27-.31,16.21,3.15a5.45,5.45,0,0,0,1.7.63c2.56,0,3.36-1.9,4.27-3.73,1,1.42,1,1.42,2.58,1.95C189.83,63.07,190.39,58.8,186.86,55.6Z" transform="translate(-56.19 -2.31)"/><path class="cls-1" d="M125,15.55c1.85-1.49,2.71-2.65,1.41-4.63-.69-1.05-.41-2.79,1.71-2.17,1.53.45,2.33.28,3-1.36.55-1.31,2-2.2,2.4.17.24,1.51,1.61,2.2,2.26,3,2.09,2.64.83,4.45-.63,6.16-1.89,2.2-4.49,1.17-6.46.14A35,35,0,0,0,125,15.55Z" transform="translate(-56.19 -2.31)"/><path class="cls-1" d="M120.83,42.53a11.68,11.68,0,0,1-2.69-.48c-2-.48-2.27-1.45-1.24-3.06.06-.08.09-.18.15-.26,1-1.53,1.73-4,3.06-4.36,2.07-.59,4.41,1.06,6.78.82.43,0,.87.38.61.79-1.42,2.19-2.43,4.72-4.58,6.35C122.44,42.69,121.54,42.48,120.83,42.53Z" transform="translate(-56.19 -2.31)"/><path class="cls-15" d="M104,87.35l-1,3.72c-.34,1.31-1.4,1.68-2.54,1.84-2.65.36-5.12-2-5.37-5.1-.27-3.39,1.48-5.72,4.38-5.81.62,0,1.24.1,1.28.94,1,1.4-.9,1.67-1.1,3C101.66,84.89,103.74,83.9,104,87.35Z" transform="translate(-56.19 -2.31)"/><path class="cls-16" d="M100.72,82.94a3.27,3.27,0,0,0-4.49,1.69c-.88,2.06-1,4.47,1.09,6.39s3.76,1.53,5.65,0c1.24,1,1.19,1.58-.2,2.37C100.12,95,96,93.8,94.13,91a23.81,23.81,0,0,1-1.24-2.41c.06-4.88,2.42-7.83,6.38-8.21a2.11,2.11,0,0,1,2.61,2.19C102,83.27,101.2,83,100.72,82.94Z" transform="translate(-56.19 -2.31)"/><path class="cls-17" d="M183.79,68.33c2.29-.29,2.71-2.39,3.68-4L190.4,67l.24,1.9c.65,3.07.2,6.28,1.2,9.29,0,4.49-.21,9,0,13.46.33,8.1-3.1,14.46-9.05,19.5-8.24,7-18,11-28.48,13.26a89.94,89.94,0,0,1-25.35-10.25c-6.94-4.07-12.62-9.29-16.05-16.69A29.43,29.43,0,0,1,110,84.77c0-6-.19-12,1.18-18,.39-1.69,1.59-1.81,2.51-2.62,1.38-1.22,1.91-.88,3,.37,1.45,1.6,5.08,1,7.34-1.54s3.38-1.54,4.4.91a2.25,2.25,0,0,1-1.67,1.21c-1.48.35-2.94.78-4.39,1.22s-2.27,1.75-3.26,1.62c7.25-4.7,15.11-2.06,23-.3.4.08.26-.6.23-.19,0,.13-.09.16-.27.14-1.46-.22-2.75-.67-3.25-2.27,5.85-4.19,8.11-11,12-16.56.41-.58.71-1.24,1.13-1.8,1.24-1.64,2.2-1.81,3.24.33,2,4.2,4.44,8.24,6.42,12.47.91,1.93,2.82,2.87,3.76,4.68-.84,1.61-2.63,1.72-4.07,2.56,6.86-1.1,13.67-3.15,20.26.72a13.91,13.91,0,0,1,1.58.93,15.8,15.8,0,0,1,2,1.88C184.72,69.81,183.39,69.55,183.79,68.33Z" transform="translate(-56.19 -2.31)"/><path class="cls-1" d="M109.94,60.41c-1.07-.94.14-2.6-1.1-3.49-.06-1.67.89-3,1.59-4.57C109.67,55,110.11,57.73,109.94,60.41Z" transform="translate(-56.19 -2.31)"/><path class="cls-1" d="M118,60.28c-1.38-1.1.33-3.09-1.19-4.15.32-.43.71-1.75,1.11-.27A17.59,17.59,0,0,1,118,60.28Z" transform="translate(-56.19 -2.31)"/><path class="cls-18" d="M161.48,129.23c2.27,1.14,4.89.82,7.22,1.69,1.05.39,2.52.24,2.72,1.87A37.49,37.49,0,0,0,173,142a27.06,27.06,0,0,1,.86,3.85,4.72,4.72,0,0,1,1.69,2.42q3.15,14.74,6.37,29.47a1.72,1.72,0,0,1-1.45,1.92c-8.32,2.31-16.58,4.53-25.33,5-5.3.31-10.3,0-15.17-1.85-8.1-3.11-11.41-9.68-12.11-17.83-.38-4.37.43-8.7,1-13,.26-2,.8-4.23-.43-6.22.49-1.86-1.73-3.62-.18-5.51,1.91-.55,2.4,1.54,4,2.05,0-1.74,1.37-2.93,1.81-4.54a2,2,0,0,1,.76-.92,5.14,5.14,0,0,0,1.92-1.14c.24-.29.5-.56.74-.85.89-.46,0-3.36,2.42-1.74.66,2.82,3.06,3.41,5.33,3.76a35.83,35.83,0,0,0,7.61.05,6.38,6.38,0,0,0,3.56-1.6c2.69-2.16,0-3.44-.86-5,.08-1.71,1.39-1.12,2.28-1.15C159,129.08,160.26,129.19,161.48,129.23Z" transform="translate(-56.19 -2.31)"/><path class="cls-3" d="M128.43,140.18c.39.85-.87,1.89.72,2.8,1.38.78-.45,1.8-.72,2.76-.55.2-1.11.42-1.67.59-.87.26-1.84-1-2.52-.1-.88,1.09,1.25.58,1,1.58a3.85,3.85,0,0,1-3,3c.52-1.93-.1-4.16,1.77-5.75.75-.64-.38-.87-.68-1.27-1.09-1.87.16-3,1.36-4.1a3.39,3.39,0,0,1,.72-.4c1.37,0,.76-2.46,2.49-2A2.91,2.91,0,0,1,128.43,140.18Z" transform="translate(-56.19 -2.31)"/><path class="cls-14" d="M101.64,117.7C94.08,110,86.27,102.55,79.1,94.47c-.7-.78-1.9-1.4-1.27-2.8-.8-1-1.29-1.79-.09-3a5.33,5.33,0,0,0,1.36-5c-1.09-.19-1.67.58-2.3,1.24-1,1.09-1.78,3.3-3.14,3C72,87.59,72.51,85.2,72,83.75c-.19-.47-.25-1-.7-1.32-.64-.43-1.14-.24-1.46.45-.15,2,.55,3.9,0,5.86-2.48-2.23-4.56-4.88-7.16-7A11.26,11.26,0,0,1,59,77.62c-.68-.45-1.39-1-2.13-.17s-.11,1.39.27,1.9c.94,1.28,2,2.48,3,3.7a6.35,6.35,0,0,0,4.23,3.75c1.88,2.89,2.91,6.84,7.76,5.93.81-.15,1.32.86,1.8,1.51.85,1.15,1.65,2.34,2.51,3.48,8.14,11,17.83,20.49,27.4,30.14,2.79-.74,2.6-3.29,3.23-5.34C105.63,120.53,103.36,119.45,101.64,117.7Z" transform="translate(-56.19 -2.31)"/><path class="cls-19" d="M108.75,119.93a.65.65,0,0,0,.13-.45c.22-.58,0-1.2.18-1.8.75-2.58,2.24-3.13,4.19-1.31a109.65,109.65,0,0,1,8.38,8.46c1.25,1.47,2.55,2.89,3.83,4.34a7.85,7.85,0,0,1-.08,10.48l0-.06c-2.27.74-4.26-.22-6.15-1.18-3.74-1.9-7.59-3.53-11.36-5.34-2-1-3.09-2.19-2.78-4.45C106.07,125.63,106.77,122.51,108.75,119.93Z" transform="translate(-56.19 -2.31)"/><path class="cls-20" d="M79.1,83.67c-1.93,1.24-2.84,3.39-4.43,5s-2.14.95-2.53-.76c-.33-1.47-.61-3-.93-4.43-.17-.75-.49-1.14-1.11-.29-.18,2,.24,4,.05,6-.25.62-.65,1.84-1.27.62-2.16-4.3-6.44-6.56-9.34-10.12a2.57,2.57,0,0,1-.52-2c1.39.52,2,2.17,3.61,2.41,3.28,1.91,4.56-1.72,6.42-2.29a13.37,13.37,0,0,0-2.75,2.05c-1.86,1.68-2.57.82-3-1.12-1.12-2.39-2.26-4.76-3.37-7.16-.38-.83-.86-1.88.16-2.44s1.91.15,2.56,1c1.55,2.1,2.57,4.59,4.89,6.73-.54-2.82-1-5.19-1.44-7.57-.22-1.15-1-2.76.49-3.22,1.89-.59,1.77,1.47,2.21,2.56.66,1.68,1.18,3.41,1.91,5.56,1.2-3.16-.66-6.48,1.75-8.9,1.43.36,1.42,1.6,1.55,2.67.33,2.81.57,5.64.91,8.45.1.9.31,2,1.29,2.18s.91-1.08,1.21-1.78c.65-1.47.81-4.11,3-3.28,1.85.69.46,2.77,0,4.26C80,79.72,79.57,81.7,79.1,83.67Z" transform="translate(-56.19 -2.31)"/><path class="cls-21" d="M107.58,119.34A216.94,216.94,0,0,1,90,104.05a6.25,6.25,0,0,0-3.32-3.18l-8.82-9.2c-2,.38-1.33,1.21-.41,2.2,8.12,8.76,16.52,17.25,25.09,25.56a11,11,0,0,0,4.16,3A2.15,2.15,0,0,0,107.58,119.34Z" transform="translate(-56.19 -2.31)"/><path class="cls-22" d="M142.72,131.1l.85,1.41.86-2.1c2.32-1.39,5-1.57,7.56-2.12,3-.65,1.41,2.18,2.15,3.28.34.07-.38,1.36.65.58a3.36,3.36,0,0,0,.61-.88,2.32,2.32,0,0,1,2.32,2.36c.07,1.3-.94,2-2,2.41a18.45,18.45,0,0,1-13.65,0,2.58,2.58,0,0,1-1.87-2.8C140.29,131.59,141.45,131.28,142.72,131.1Z" transform="translate(-56.19 -2.31)"/><path class="cls-23" d="M107.59,118.28c1.61-.31,1.42-1.84,1.83-2.87.8-2,1.66-2,3.09-.59a163,163,0,0,1,12.76,13.65c1.15,1.4,2.06,2,4,1.42,3.31-.91,6.78-1.23,10.18-1.81,1,1.08,2.77-.34,3.63,1.17a9.43,9.43,0,0,1-4.83.77,27.46,27.46,0,0,1-5.7.93c-4.15,0-3.89,3.3-4.47,6l-.32.3c-1.45.17.62,3.84-2.42,2.43,2-4.43,1.67-8.29-2.12-11.83-3.49-3.25-6.65-6.86-9.86-10.4-1.82-2-3-2.19-3.75.78a5,5,0,0,1-.77,1.28Z" transform="translate(-56.19 -2.31)"/><path class="cls-24" d="M197.7,83.16a10.46,10.46,0,0,1-2.44,0c-.74-.19-2.08.59-2.15-.92s1.16-1.7,2.34-1.78a6.79,6.79,0,0,1,3.78,12.68,6.31,6.31,0,0,1-5.3.69,1.23,1.23,0,0,1-1-1.33c0-.87.57-1,1.24-.87C199.35,90.84,200.43,88.26,197.7,83.16Z" transform="translate(-56.19 -2.31)"/><path class="cls-25" d="M197.7,83.16c2.31,1.54,3.21,4.24,1.72,6.35-1.18,1.68-2.49,3.95-5.25,2.1-2.19-1.62-1.35-4-1-5.91s1.68.32,2.67,0c.36-1-1-1.07-1.16-1.81C195.49,82.91,196.86,84.07,197.7,83.16Z" transform="translate(-56.19 -2.31)"/><path class="cls-26" d="M154.14,131.57c-.35-2.76-1.62-3.17-4.11-2a10.59,10.59,0,0,1-5.6.86c0-.6-.05-1.2-.1-1.8-.18-1.91.28-2.9,2.52-2.22a7.7,7.7,0,0,0,3.28.06c4-.62,4-.66,4.07,3.32C154.22,130.37,154.16,131,154.14,131.57Z" transform="translate(-56.19 -2.31)"/><path class="cls-27" d="M142.72,131.1c-.82.78-2.4,1-2.05,2.65.3,1.42,1.54,1.82,2.69,2.19a17.8,17.8,0,0,0,11.4-.09c3.1-1.07,3.23-2.4.64-4.58,0-.34.09-.67.13-1,1.69.52,3,1.53,2.94,3.39-.08,1.68-1.46,2.64-2.94,3.17a18.72,18.72,0,0,1-14.2-.4,3.35,3.35,0,0,1-2-3.48,1.54,1.54,0,0,1,.42-1.6c.65-.53,1.15-1.43,2.22-.87Z" transform="translate(-56.19 -2.31)"/><path class="cls-23" d="M106.67,122.42c.36-1,1-1.93.91-3.08l1.17.59c-1,2.88-2,5.75-3.07,8.62-.77.39.34,2-1.21,1.88-.07-.68.11-1.43-.59-1.91,0-.22,0-.44,0-.66C105.64,126.47,105.67,124.2,106.67,122.42Z" transform="translate(-56.19 -2.31)"/><path class="cls-18" d="M142,130.48l-1.71,1.12c-2.16.74-2.64-.4-2.5-2.23a17.78,17.78,0,0,1,5.35-.12Z" transform="translate(-56.19 -2.31)"/><path class="cls-14" d="M63.33,78.67l1.49,1.9c1.87-1.63,3.33-3.76,6.72-3.65a38.48,38.48,0,0,0-6.07,4.31c-1.41,1.26-1.73-1.14-2.84-1.2C62.86,79.57,63.1,79.12,63.33,78.67Z" transform="translate(-56.19 -2.31)"/><path class="cls-28" d="M110.17,244c-1.47-6.84-2.35-13.71-1.39-20.71,1.16-1.4,2.14-3,4.08-3.51,1.68-.45,2.49.15,1.91,1.82a8.57,8.57,0,0,0-.12,5.41c.55,1.86.2,3.2-2,4,2.23-.59,3.68,0,4.39,2.3-.2-2.8-1.85-5.81,1.6-7.64a1,1,0,0,1,.91,0,9.41,9.41,0,0,1,2.16,1.71c2.44,2.19,2.45,2.27-.64,3.49a1.59,1.59,0,0,0-1.21,1.82c0,.62.09,1.23.1,1.84,0,3.73-.45,4.12-4,3.35-.17,3.65.28,4.15,3.86,3.72a46,46,0,0,0,18.77-6.26,12.81,12.81,0,0,0,5.31-5.79,109.29,109.29,0,0,0,5-13.83c.53-1.9.3-3.14-1.91-3.61-1.85-.39-3.69-1.15-3.81-3.4s1.67-3.29,3.46-4.2c5-2.54,10.52-3.35,16.13-5.84a79,79,0,0,1-18.42,2.1,105.48,105.48,0,0,1-18-1.45c-.82-.28-1.8,0-2.51-.71,1-2,1.6-4.64,3.22-5.67s4.26.48,6.43.9a84.77,84.77,0,0,0,39-1.52c1-.27,2.22-1.07,2.61.78a1.62,1.62,0,0,1,.19,1.88c-1.48,1.17-3.32,1.5-5,2a3.28,3.28,0,0,0-2.66,2.92,27.49,27.49,0,0,1-4.36,10.91,11,11,0,0,0-.36,11.32,3.93,3.93,0,0,1,.44.77c.39,2.66,2.2,3.68,4.64,4a2.62,2.62,0,0,1,1.13.62,2,2,0,0,1,.17,1.77c-.33,1.09-1.63,2.12-.4,3.33a6.56,6.56,0,0,0,4.69,1.91c2,0,3.8-1.57,5.89-.74-2.39,6.29-7.16,9.17-13.65,7.75-4.79-1.06-9.71-2.16-12.88-6.56a51.6,51.6,0,0,0,2.19-8.22c.43-2.62.68-2.69,2.7-2.27-1.2-.1-2.06-1.1-1.87-3.21.25-2.73,0-5.48.07-7.26a57.47,57.47,0,0,1-3,21c-6.55,12.09-17.92,14.4-30.18,14.85-2.24.09-4.5,0-6.74-.06C112.61,249.37,111.42,246.64,110.17,244Z" transform="translate(-56.19 -2.31)"/><path class="cls-29" d="M179.52,233.7c-3.23,1-6.37,2.72-9.81.47-2.05-1.34-3.68-2.51-1.13-4.87.36-.33.26-1.15.38-1.74.1-1,1-1.52,1.38-2.33s2.07-2.09-.45-2.51c-.28-.05-.4-.47-.35-.77.21-1.21.71-2.55-1.2-2.82a3.87,3.87,0,0,0-4,1.69c-.47.66-.76,1.47-1.57,1.83-2.56-.93-1.68-3.14-1.76-4.94-.12-2.64-.22-5.43,1.6-7.53a19.21,19.21,0,0,0,4.31-10.81c.25-2.24,1.34-2.93,3.2-3.19,1.7-.23,3.12-1.58,5-1.24,1.26.37,1.11,1.55,1.44,2.47.82,2.22,1.8,4.32,4.21,5.27.39.15.25-.62.12-.23q0,.11-.12.06c-3.65-1.65-4.45-4.83-4.55-8.4,1.67-1.22,3.28-2.67,5.6-1.6l1.86,11c.43,8.87.22,17.69-2.45,26.27A10.31,10.31,0,0,1,179.52,233.7Z" transform="translate(-56.19 -2.31)"/><path class="cls-30" d="M149,252.24c-2.47,0-5.68-2.8-5.74-5.07,0-.63,4.83-4.33,5.58-4.07,1.74.62,3.9,1.12,4.33,3.14S150.54,252.22,149,252.24Z" transform="translate(-56.19 -2.31)"/><path class="cls-31" d="M155.36,240.7c-.48,1.06-.05,3.47-1.85,3.63-1.1.09-3.89-1.11-3.54-2.5s1.39-3.85,3.51-4.11C154.67,237.58,155.65,238.78,155.36,240.7Z" transform="translate(-56.19 -2.31)"/><path class="cls-32" d="M149.21,253.41c-2.14,1.56-3.78,1.71-5.3.45a9.54,9.54,0,0,1-3.19-5.72c-.11-.56.36-.89.93-1s.83.36,1,.87C143.66,251,145.74,252.69,149.21,253.41Z" transform="translate(-56.19 -2.31)"/><path class="cls-14" d="M221.24,92.85c.59-.92,1.21-1.64.09-2.82-1.62-1.69-1.8-4-1.58-6.23,2.14.84,2.89,3,4.31,4.55s1.9,1.17,2.3-.57a22.24,22.24,0,0,1,.76-3.25c.26-.64.44-1.53,1.29-1.48s1.26.88,1.24,1.78c-.17,1.69-.71,3.34-.48,5,1.52.52,1.59-.94,2.05-1.63a51.77,51.77,0,0,1,3.06-4.46,2.74,2.74,0,0,1,.64-.54c2.24-1,3.69-2.85,5.37-4.49,1.53-1,2.16-.37,1.71,1.17a6.79,6.79,0,0,1-1.76,2.46c-2.85,3-6.21,5.59-8.13,9.46-.62,1.24-2,2.55-3.46,2.13-2.48-.73-3.29.89-4.34,2.36-8.64,12-18.92,22.56-29.53,32.81-1.25-1.63-1.71-3.61-2.38-5.49.62-1.5,2.08-2.21,3.15-3.28Q207.21,108.64,218.93,97C220.08,95.81,221.38,94.73,221.24,92.85Z" transform="translate(-56.19 -2.31)"/><path class="cls-18" d="M172.56,132.86a162,162,0,0,1,12.72-14.11c2.53-2.47,2.85-2.43,4.19,1,1.41,3.59,2.71,7.22,4.06,10.83.81,1.46.41,2.43-1.1,3.14-5.33,2.53-10.77,4.82-16.15,7.24a3.15,3.15,0,0,1-3.47-.11C171.47,138.2,171.72,135.54,172.56,132.86Z" transform="translate(-56.19 -2.31)"/><path class="cls-33" d="M173.36,140.8c3.84-.35,6.87-2.82,10.39-4,3-1.06,5.87-2.69,8.85-3.93,1.24-.52.84-1.44.93-2.28,1.64,2.47,2.27,5.38,3.42,8.06.8,1.83-1,1.89-2.08,2.14-5.76,1.29-11.53,2.52-17.29,3.77C173.79,145.13,172.87,144.32,173.36,140.8Z" transform="translate(-56.19 -2.31)"/><path class="cls-34" d="M221.24,92.85c2.18,1.72,0,2.65-.82,3.53q-10.29,10.49-20.73,20.82c-2.31,2.28-4.27,5-7.29,6.46-.86-1.44-1.77-2.87.13-4.22a205.65,205.65,0,0,0,26.82-24.61C220,94.16,220.61,93.51,221.24,92.85Z" transform="translate(-56.19 -2.31)"/><path class="cls-35" d="M173.36,140.8c.26,2.55,1.18,4.33,4.22,3.72-.93,1.33-2.81-.08-3.72,1.29-2.2-4.08-3.61-8.3-2.44-13l.28.84.86-.77C172.91,135.5,172.13,138.25,173.36,140.8Z" transform="translate(-56.19 -2.31)"/><path class="cls-36" d="M240.29,78.76c-1.14,2.46-2.57,4.58-5.58,4.89a17.79,17.79,0,0,0-5-4.81,21.38,21.38,0,0,1,5,4.76c-1.44,2.38-2.83,4.8-4.36,7.12-.52.78-1.43,1.48-1.76-.27a45.43,45.43,0,0,1,.52-5.46c0-.53,0-1.12-.48-1.33-.78-.32-.7.46-.8.86-.41,1.65-.71,3.33-1.15,5-.39,1.43-1.16,2-2.26.54-1.6-2.06-3.14-4.16-4.71-6.25-.68-2.23-1.41-4.46-2-6.72-.23-.86-.5-1.95.61-2.43s1.91.26,2.38,1.28c.17.37.31.75.47,1.13.42,1,.3,2.82,1.45,2.7,1.45-.15,1.43-2,1.61-3.27s.12-2.45.17-3.68.39-2.4.51-3.61c.11-1-.06-2.36,1.21-2.46,1.47-.12,1.2,1.32,1.3,2.28.22,2,.41,4,.69,6.84.9-2.75,1.58-4.8,2.27-6.86.28-.84.41-2,1.63-1.83,1.53.24,1,1.6.86,2.47-.37,2.59-.91,5.16-1.47,8.23,2.12-1.57,2.73-3.6,4-5.16.9-1.13,1.55-3.37,3.3-2.33s.1,2.76-.45,4c-1,2.42-2.38,4.71-3.71,7.27C237.28,82,238.19,79.18,240.29,78.76Z" transform="translate(-56.19 -2.31)"/><path class="cls-37" d="M123.93,198.54c.68,0,1.4-.92,2,.07a4.41,4.41,0,0,1-1.64,3.2c-4.23,3.22-3.9,7.94-4.24,12.41-.22,2.74,0,5.52-.06,8.28,0,1.11.09,2.28-.83,3.16l-.53,0a131.58,131.58,0,0,1,.42-21.37c-2.08,5.85-1.66,11.42-1.95,17.69-3-6.51-2.44-12.56-1.89-18.62.2-2.18,1.37-4.34.22-6.57-.61-1.6.55-1.85,1.55-1.65,2.13.42,4.44.5,6,2.32a4,4,0,0,1-2.06,2.39,1.8,1.8,0,0,1-1.87.55c.68-.06,1.59.47,2.54.1Z" transform="translate(-56.19 -2.31)"/><path class="cls-38" d="M123.08,197.44c-1.86-.51-3.74-1-5.58-1.54-1-.33-1.8-.49-2,.87-1.19-2.64-.72-5.26.16-7.87l6.88,2.15c3.27,1,3.4,1.32,1.84,4.37A23.79,23.79,0,0,1,123.08,197.44Z" transform="translate(-56.19 -2.31)"/><path class="cls-39" d="M181.79,192.51c-2,0-3.54,1.19-5.28,1.86-.92-.44-.33-1.37-.65-2,.71-2.41,3.08-2.17,4.76-2.57C181.61,189.56,181.64,191.45,181.79,192.51Z" transform="translate(-56.19 -2.31)"/><path class="cls-40" d="M175.86,192.37l.65,2c.79,3.45,1.25,7.12,5.38,8.41-5.24,0-5.4-4.46-6.8-7.84,0-.63.07-1.27.11-1.9Z" transform="translate(-56.19 -2.31)"/><path class="cls-41" d="M121.69,200.48c-1.77,1.5-3.16.45-5-.85l4.31.2Z" transform="translate(-56.19 -2.31)"/><path class="cls-42" d="M104.47,130.43l1.21-1.88c-.32,1.85.31,2.86,2.18,3.64,4.37,1.82,8.62,3.92,12.83,6.07,1.51.77,3.22.47,4.65,1.33-.88,1.29-2.28,2.33-2,4.18-6-1.28-12.07-2.51-18.08-3.84-4-.89-4-1-2.57-4.66C103.33,133.66,103.89,132,104.47,130.43Z" transform="translate(-56.19 -2.31)"/><path class="cls-43" d="M101.46,248.23c2.17-3.4,5.08-2.11,7.92-1.25,1,1,3.49,1.19,2.43,3.47s-1,5.54-4.77,5.25S101.39,252.78,101.46,248.23Z" transform="translate(-56.19 -2.31)"/><path class="cls-44" d="M101.37,228.68c1.45,1.14.54,2.58.33,3.8-1,5.45-1.65,10.91-.82,16.45,1.18,2.92,2.48,5.76,5.48,7.31l1.5.38c-2.62,2.23-4.56,2.05-6.4-.86-3.33-5.28-3.54-11.15-2.9-17.13C98.94,235.16,100.52,232,101.37,228.68Z" transform="translate(-56.19 -2.31)"/><path class="cls-13" d="M106.36,256.24c-3.69-1-4.89-3.94-5.48-7.31.19-.23.39-.46.58-.7,1,3.14,2,6.29,5.58,7.47Z" transform="translate(-56.19 -2.31)"/><path class="cls-45" d="M107.39,233.87c.4,3.47.66,7,2,10.24-.12.54.2,1.58-.61,1.45a15.72,15.72,0,0,0-6.37.11c-1.29.31-.91-1-1-1.75a43.32,43.32,0,0,1,1.12-10.33,2.45,2.45,0,0,1,1.54-2.11c1-.34,1.28.75,1.84,1.28A15.33,15.33,0,0,0,107.39,233.87Z" transform="translate(-56.19 -2.31)"/><path class="cls-46" d="M107.48,225.08l-.06,6.6c-1.9-1-5.38-.55-3.77-4.54C104.41,225.25,105.72,224.86,107.48,225.08Z" transform="translate(-56.19 -2.31)"/><path class="cls-47" d="M181.85,68.35c-7.63-4-15.35-1.2-23.57,0,2.28-2.28,4.72-3,7-3.87,6.16-1.19,12-.5,17.18,3.23C182.62,68.28,182.51,68.6,181.85,68.35Z" transform="translate(-56.19 -2.31)"/><path class="cls-48" d="M138.76,65.37l3.86,2.37-.12.54c-2.67-.45-5.35-.87-8-1.38a28.44,28.44,0,0,0-8.49-.57c-2.85.29-5.31,1.66-8,2.5,2.7-3.28,6.58-4,10.38-4.89A25.82,25.82,0,0,1,138.76,65.37Z" transform="translate(-56.19 -2.31)"/><path class="cls-49" d="M181.85,68.35l.65-.63,1.29.61,2,2.51-.31.41Z" transform="translate(-56.19 -2.31)"/><path class="cls-50" d="M140.58,113.23a20.59,20.59,0,0,1-4.2-11.08c-.28-3.55.06-3.77,3.63-3.06a.82.82,0,0,1,.42.63c3.61,4.11,14.26,4.65,18,.92a1.71,1.71,0,0,0,.4-.82.82.82,0,0,1,.41-.66c1.14-.31,2-.35,1.92,1.28-.25,4.28-.6,8.51-3.31,12.11a.74.74,0,0,1-.83.06c-4.28-1.68-8.75-.86-13.15-.9-1,0-1.67,1.05-2.47,1.66A1,1,0,0,1,140.58,113.23Z" transform="translate(-56.19 -2.31)"/><path class="cls-51" d="M185.8,86c-8.36-4.86-16.25-8.34-24.76-1.13,1.51-4.78,7.35-8.63,12.44-8.65C179.33,76.15,183.61,79.31,185.8,86Z" transform="translate(-56.19 -2.31)"/><path class="cls-52" d="M115.3,85.72a12,12,0,0,1,9.2-9.36c6-1.11,11.54,1.65,16,8.41-4.41-2.45-8.16-4.77-12.68-4.13S119.56,83.48,115.3,85.72Z" transform="translate(-56.19 -2.31)"/><path class="cls-53" d="M184.76,77.4c-5.83-6.12-13.1-5.26-21.13-4.07C172.39,69.54,181.19,71.35,184.76,77.4Z" transform="translate(-56.19 -2.31)"/><path class="cls-54" d="M157.18,112.49l.7.06c-3.06,6.25-9.45,7.59-15,3.09a25.38,25.38,0,0,1-2.34-2.41l1-.2c1.66-1,2.14.09,2.48,1.41,3.14,2.06,6.32,3.38,9.8.75.58-.44,1.15-.87.86-1.74C155.27,112.45,156,111.93,157.18,112.49Z" transform="translate(-56.19 -2.31)"/><path class="cls-55" d="M134,74.25c-5.58,0-11.21-.93-16.41,1.93C122.63,72.06,128.31,73,134,74.25Z" transform="translate(-56.19 -2.31)"/><path class="cls-56" d="M140,99.63a1.4,1.4,0,0,0,0-.54,44.18,44.18,0,0,0,19.25.07,1.27,1.27,0,0,1-.09.47c0,1.13-.88,1.29-1.61,1.45a37.33,37.33,0,0,1-15.68,0A2.27,2.27,0,0,1,140,99.63Z" transform="translate(-56.19 -2.31)"/><path class="cls-57" d="M151.77,98.12a2.06,2.06,0,0,1-2.26.08c-.6-.29-1.41-.54-1.29-1.43s.83-.7,1.4-.84c1.54-.37,3.07-.78,4.61-1.17C154.62,96.76,152.32,96.8,151.77,98.12Z" transform="translate(-56.19 -2.31)"/><path class="cls-58" d="M151.77,98.12c.08-1.66,2.15-1.87,2.46-3.36.17-1.77-2.23-2.56-1.7-4.47C156.58,95.41,156.54,95.83,151.77,98.12Z" transform="translate(-56.19 -2.31)"/><path class="cls-18" d="M128.43,140.18a4.54,4.54,0,0,1-.63-3l0,0c.72-1.56,1.74-2.68,3.65-2.5s2.78,1.35,3.06,3.12c.26,2-2.62,3.28-1.16,5.63.17.28-1.1.34-1.66-.18Z" transform="translate(-56.19 -2.31)"/><path class="cls-18" d="M134.55,137.79c-2.52-3.31-3.32-3.38-6.71-.62,0-.61,0-1.22,0-1.82.06-4.46.29-4.69,4.87-4.93,2.45.83,3.73,2.83,5,4.9l-.65.61c-1.61.35-2.1-1.26-3.26-1.83.34,1.11,1.84,1.61,1.5,3Z" transform="translate(-56.19 -2.31)"/><path class="cls-18" d="M137.65,135.32c-2-1.32-3.34-3.23-5-4.9l5.08-1c.43,1.2,1,2.27,2.5,2.23l-.93,1.35C137.87,133.1,139.71,135.61,137.65,135.32Z" transform="translate(-56.19 -2.31)"/><path class="cls-18" d="M135.24,137.11c-.88-1-1.77-2-2.64-2.94a.89.89,0,0,1,0-1.35c.52-.51.91-.09,1.28.25l3.15,2.86C137,137.17,136.16,137.21,135.24,137.11Z" transform="translate(-56.19 -2.31)"/><path class="cls-59" d="M70.15,89.12c-.62-2-1-4-.05-6,1.2,1.89.13,4.17,1,6.15C71.18,89.49,70.47,89.26,70.15,89.12Z" transform="translate(-56.19 -2.31)"/><path class="cls-60" d="M119.21,225.66c0-3.88.39-7.81-.12-11.62-.47-3.44,2.32-6.37,1-9.78-.06-.16.26-.65.46-.68,2.9-.48,3.46-3.5,5.43-5,5.59.27,11.09,1.38,16.73,1.3a88.25,88.25,0,0,0,20.88-2.26,1.31,1.31,0,0,1,1.57.37,15.57,15.57,0,0,1-7.3,3.43c-4,.83-7.5,2.55-11.21,3.92-1.52.56-2.83,1.45-2.79,3.23,0,2,1.84,2.59,3.26,2.63,3.62.12,3.63,2,2.71,4.61-1.59,4.51-3,9.08-4.86,13.5-2.54,6.18-8.26,8.42-14,10.42a74.86,74.86,0,0,1-11.81,2.79c-3.23.58-3.82-.79-4.2-3.1a20.66,20.66,0,0,1,0-3.34c.3,0,.54-.11.67,0,1,.61,1.92,2.12,3.1,1.44s.33-2.26.47-3.44a3.1,3.1,0,0,0-.1-1.52c-.93-2.16,0-2.78,2-2.59.6.05,1.2,0,2.23,0C122,228.17,120,227.42,119.21,225.66Z" transform="translate(-56.19 -2.31)"/><path class="cls-29" d="M162.78,222.65c.69-2.39,1.69-4.37,4.68-4.38,3.38,0,3.95.76,2.53,4.3,2.27-1.56,2.37-.29,2,1.26a6.09,6.09,0,0,1-3,3.73l-1.18-.09c-1.19-1.07-2.52-2.06-1.85-3.88-1.12-.66-2.26,1.23-3.08-.37C162.83,223,162.8,222.84,162.78,222.65Z" transform="translate(-56.19 -2.31)"/><path class="cls-61" d="M153,234.92c-.35-2.52.83-4.8,1.2-7.2a176,176,0,0,0,1.68-18.22c1.22,2.32.83,4.82.92,7.24.12,3.55-1.68,8,5,8.18-.86.55-1,.74-1.15.72-4.14-.72-4-.68-5.36,3.75-.57,1.89-.67,4.06-2.35,5.5Z" transform="translate(-56.19 -2.31)"/><path class="cls-29" d="M162.85,223.22c.45.13.93.48,1.3-.14.53-.89,1.25-1.41,2.23-.77s.8,1.43.27,2.35c-.77,1.33,1.94,1.38,1.13,2.81C165.16,227.18,163,226.39,162.85,223.22Z" transform="translate(-56.19 -2.31)"/><path class="cls-62" d="M160.62,203.65c-2.61,3.47-6,5.13-11.1,4.83Z" transform="translate(-56.19 -2.31)"/><path class="cls-63" d="M229.15,85a10,10,0,0,1-.52,5.46C227.81,88.53,228.48,86.76,229.15,85Z" transform="translate(-56.19 -2.31)"/><path class="cls-64" d="M234.75,83.6c-2.24-1.7-4-3.95-6.53-5.33,3.18.54,5.53,2.1,6.49,5.38Z" transform="translate(-56.19 -2.31)"/><path class="cls-65" d="M143.05,114.37c.33-1.37-.8-1.11-1.49-1.34.88-2.76,3.25-3,5.34-2.43a14.18,14.18,0,0,0,6.21.3c1.33-.2,3.68-1.31,4.07,1.59-.86.36-2,.31-2.34,1.49-.06.89-.8,1-1.43,1.21a18.32,18.32,0,0,1-6.55.58A16.76,16.76,0,0,1,143.05,114.37Z" transform="translate(-56.19 -2.31)"/><path class="cls-66" d="M140,99.63c6.38,1.69,12.76,2.13,19.14,0,.3,1.78-.73,3-3.38,3.58a24.44,24.44,0,0,1-13.47-.89,6.14,6.14,0,0,1-2.77-1.79C139,99.87,139.49,99.72,140,99.63Z" transform="translate(-56.19 -2.31)"/><path class="cls-67" d="M143.05,114.37c1.39-.3,2.54.68,3.87.71a10.36,10.36,0,0,0,6.91-.66c.43.07.82,0,1-.44.37,0,1.55-.67.75.55-1.6,2.42-5.23,3.4-8.17,2.46A8.8,8.8,0,0,1,143.05,114.37Z" transform="translate(-56.19 -2.31)"/><path class="cls-68" d="M153.83,114.42a6.66,6.66,0,0,1-6.91.66Z" transform="translate(-56.19 -2.31)"/><path class="cls-4" d="M87.14,99.69l-.07.15a1.88,1.88,0,0,0,.38.14Z" transform="translate(-56.19 -2.31)"/><path class="cls-4" d="M88.44,100.88a1.5,1.5,0,0,1,0,.37,1.5,1.5,0,0,0,0-.37l-1-.9a1.88,1.88,0,0,1-.38-.14l-.47,1.1,21,18.34,1.17.58.13-.45Z" transform="translate(-56.19 -2.31)"/><path class="cls-69" d="M103.89,127.86s-24.4-23.71-30.95-34.92c0,0-4.65.71-6.23-2.35a16,16,0,0,0-2.42-3.83,8.57,8.57,0,0,1-4.24-3.87l-3.45-4s-.24-1.44.58-1.72a2.5,2.5,0,0,1,1.84.43l4.68,3.21-.16-1.42-3.71-8.2s-.84-1.5.08-2a2.25,2.25,0,0,1,1.92,0l1.93,2.53,3.58,4.89.46-.37-2-8.62s-.24-1.26.57-1.48a2.12,2.12,0,0,1,1.29,0l.73.74L70.69,74l.15-.13a56.31,56.31,0,0,0,.36-5.64A5.63,5.63,0,0,1,72.26,65h.83" transform="translate(-56.19 -2.31)"/></svg>