<svg id="Capa_1" data-name="Capa 1" xmlns="http://www.w3.org/2000/svg" viewBox="0 0 197.2 293.8"><defs><style>.cls-1{fill:#582217;}.cls-2{fill:#454171;}.cls-3{fill:#662483;}.cls-4{fill:#facaa9;}.cls-5{fill:#5a2218;}.cls-6{fill:#4e276e;}.cls-7{fill:#59180e;}.cls-8{fill:#ee9470;}.cls-9{fill:#dc7c5b;}.cls-10{fill:#402842;}.cls-11{fill:#653427;}.cls-12{fill:#fffefd;}.cls-13{fill:#34130d;}.cls-14{fill:#e13e76;}.cls-15{fill:#d23a6b;}.cls-16{fill:#b44369;}.cls-17{fill:#3c2723;}.cls-18{fill:#f8bcac;}.cls-19{fill:#5c2425;}.cls-20{fill:#6d2e34;}.cls-21{fill:#a98080;}.cls-22{fill:#ae868b;}.cls-23{fill:#cbb2a9;}.cls-24{fill:#f1936e;}.cls-25{fill:#d78d7b;}.cls-26{fill:#b67f6f;}.cls-27{fill:#3c3c3b;}.cls-28{fill:#e7e2e6;}.cls-29{fill:#bea3ae;}.cls-30{fill:#7b4733;}.cls-31{fill:#e49472;}.cls-32{fill:none;stroke:#653427;stroke-miterlimit:10;stroke-width:0.5px;}</style></defs><path class="cls-1" d="M200.83,46.94c1.85,4.81,3.68,9.63,5.56,14.42a61.93,61.93,0,0,0,4.7,9.87c3.16-2.75,3.3-4.47.55-6.43.68-.53,1.28,0,1.91.13a.6.6,0,0,1,.49-.05,8.28,8.28,0,0,1,1.53,1.36,4,4,0,0,1,.48.61,19.18,19.18,0,0,0,1.21,2,7.34,7.34,0,0,1,.86,2.89c-.56,4.45-3.94,7.75-8,9.22-1.46.53-3,.72-4.29,1.76a3,3,0,0,1-1.23.41c-2.81.74-5.51-.39-8.27-.49-.65,0-1.51-.45-1.59-1.13-.18-1.49-1.22-2-2.35-2.32-4.53-1.38-8-4.57-11.72-7a15.27,15.27,0,0,0,5.23,6.51,46.2,46.2,0,0,0,11.18,6c6,2.22,14.49.2,18.74-4.6.42-.47.8-1,1.51-1,1.11.2,2,1,3.15,1.11a2.18,2.18,0,0,0,2.17-.78c.5-.72,0-1.28-.37-1.86-.26-.39-.74-.82-.35-1.31s1-.41,1.57-.28a6.23,6.23,0,0,1,1.86.84c4.12,2.53,6.14,9.95,3.91,14.31-1.18,1.11-2.62,1.92-3.71,3.14a1.39,1.39,0,0,1-1.14.57c-.92-.1-1.2.39-1.32,1.17a2.29,2.29,0,0,1-1.55,2c-2.61.72-4.89,2.19-7.57,2.88-9,2.29-16.71,0-24-5.2-3.32-2.39-5.71-5.55-8.2-8.65a25.76,25.76,0,0,0-2.45-3.07,3.26,3.26,0,0,1-.81-1.24c-.72-2.22-2.37-2.63-4.49-2.83-4.58-.42-8.89.8-13.28,1.67a11.65,11.65,0,0,1-4.81.34c-1.44-.89-.78-1.75.13-2.46a9.66,9.66,0,0,1,3.65-1.4c3.8-1,7.67-.86,11.54-.79a20.83,20.83,0,0,1,3.35.38c1,.13,1.52-.07,1-1.18-3-6.74-4.13-14-5.91-21.09-1.12-4.39-1.13-4.38-5.55-4.11a5.29,5.29,0,0,0-2.19.4c-3.37.69-6.82.54-10.2,1.15-1.47.27-3,.36-4.45.58a16.32,16.32,0,0,1-6.49-.32,93.37,93.37,0,0,0-16.63-2.47,35.94,35.94,0,0,0-4.28.32c-.84,0-1.67,0-2.51,0-2.14-.06-2.69-.68-2-2.55,1.86-4.76,4.71-8.63,9.8-10.42a12.51,12.51,0,0,1,3.88-.43,19.62,19.62,0,0,0,3.8-.18,9.91,9.91,0,0,0-4.43-3,13.59,13.59,0,0,0-8.11-.3c-1.61.45-3.31.51-4.91,1.12a12.07,12.07,0,0,0-5.22,3.51,5.08,5.08,0,0,0-1.14,2.13,89,89,0,0,0-2.41,17.73c0,2.43-.86,4.79-.81,7.25a1.77,1.77,0,0,1-1.08,1.83c-.84.29-1.09-.65-1.57-.93C105.57,69,105.53,69,105,72.3a65.33,65.33,0,0,1-2.35,11.16,32.76,32.76,0,0,1-5.31,10.05,8.72,8.72,0,0,0-.93,1.39c2.58-1.82,4.07-4.06,5.81-6.08,1.89-2.19,2.59-5,3.9-7.43.45-.84.84-2.32,1.85-2s.29,1.68.16,2.55c-.51,3.27-1.06,6.51-2.88,9.42-.8,1.28-1,2.89-1.59,4.33-1.16,2.69-3.06,4.82-4.5,7.28-1.11,1.9-3,2.67-5,3.48.42.36.94.34,1.11.82.5,2.26.17,4.54.22,6.81a10.09,10.09,0,0,0,.11,2.2,45.28,45.28,0,0,0,6.15,19.48,34.88,34.88,0,0,0,4.32,5.41c6.74,7.25,14.09,13.8,22.74,18.75a52.49,52.49,0,0,0,6.54,3.05,2.18,2.18,0,0,1,.9.83c.91,2.3.46,4.69.38,7.05a5.1,5.1,0,0,1-3.76,4.18c-2.93.63-5.89.33-8.85.34-.86,0-1.72,0-2.58,0a8.12,8.12,0,0,0-5.4,1.29,46.5,46.5,0,0,0-12.83,14.21,85.86,85.86,0,0,1-11,14.89c-.54.6-1,1.26-1.52,1.89-.33.41-.62,1-1.35.62A38.89,38.89,0,0,1,91,190.93c2.81-8.53,8.24-14.23,17.39-15.88-7.27-.08-13.64,1.91-18.58,7.84,1.86-4.88,6.47-7.83,15-9.68-7.09-3.22-14-6.13-20.76-9.52-.36-.51,0-.93.15-1.39,1-2.22.74-3.67-1-5.39-3-3-6-6-9-9a4.07,4.07,0,0,0-4.58-1.15,4.8,4.8,0,0,1-4.77-.56c-.89-.66-2.3-.17-3-1.33-3.67-6.3-5.49-13.19-6.43-20.35a49.8,49.8,0,0,1-.52-5.87,20.14,20.14,0,0,0-1.1,7.28,46.21,46.21,0,0,0,2.46,16.28c.16.39.3.77-.37.73-6-12.55-5.66-25.28-1.08-38.14,2.56-7.17,6.41-13.65,10.28-20.16A238.54,238.54,0,0,0,84.51,43.56a65.68,65.68,0,0,1,20.32-29.14A39.26,39.26,0,0,1,121,6.85c.93-.23,2,.23,2.87-.41a61.14,61.14,0,0,1,6.49-.16c.6,0,1.25.23,1.79-.24.21-1.1,1.13-1.41,2-1.75a2.24,2.24,0,0,1,.92-.13c7.54.39,15.09-1.44,22.63.08,1,.2,1.88,1,3,.71.07,1.07-.69,1-1.38,1-2-.2-4,0-6-.43s-4-.06-6,0a1.54,1.54,0,0,0-1.68,1.2c-.18.73-.82,1.08-1.27,1.61.43.54,1.06.23,1.57.39s.9.2.93.75-.42.71-.81.91c-.88.47-2,.15-3,.83.89.48,1.67,0,2.41.08,4.88.64,9.83-.45,14.7.76a42.12,42.12,0,0,1,8.57,3.66c.39.2.77.52.63,1s-.71.63-1.22.64a4.62,4.62,0,0,1-2-.42c-2.24-1-4.67-1.18-7.28-1.68a38.55,38.55,0,0,1,13.39,5.07c1,.56,2,1,3,1.5.7.33,1.49.83,1.22,1.66s-.12,2.15-1.14,2.64a2,2,0,0,1-2.37-.68c-2.09-2.32-5-3.19-7.66-4.59-5.12-2.73-10.87-3.56-16.32-5.32a11.57,11.57,0,0,0-8.09.49,4.07,4.07,0,0,0-2.66,4.11c0,1.23.5,2,1.82,1.67,3.24-.84,6.47-.09,9.7,0,.69,0,1.54,0,1.78.75.32,1-1,.69-1.3,1.31,0,.49.49.62.75.94.52.67.21,1-.45,1.22a11.18,11.18,0,0,1-3.14.49,4.29,4.29,0,0,0-3.13,1.06c2.09-.09,4.16.16,6.22.2a19.69,19.69,0,0,1,10.6,3.11,48.61,48.61,0,0,1,11.25,9.79,33.18,33.18,0,0,1,4.4,6.5c1.92,3.8,4,7.51,6.2,11.14a28.62,28.62,0,0,0,7.27,7.66,40.53,40.53,0,0,1-2.9-3.39,4.78,4.78,0,0,1-.67-.9c-.35-.76-1.16-1.69-.27-2.34s1.61.29,2.18.93a36.25,36.25,0,0,0,9.05,7.51,69,69,0,0,1-12.8-16.46c-1.2-2.24-1.56-4.86-3-7.06a14.86,14.86,0,0,0-1.39-2.43c-1.93-2-.93-4.31-.74-6.52.05-.65.69-.61,1.2-.53a6.44,6.44,0,0,1,2.61,1.4c3.46,3.22,6.7,6.65,10.07,10,2.23,2.2,2.92,2.32,5.67.9C199.8,46.73,200.3,46.53,200.83,46.94Z" transform="translate(-51.53 -3.63)"/><path class="cls-2" d="M132.16,232.27h0l.05,0Z" transform="translate(-51.53 -3.63)"/><path class="cls-3" d="M177,296.5a89,89,0,0,0,1-13.43,23.69,23.69,0,0,0-.19-4.84,63.06,63.06,0,0,0-3-10.44,25.65,25.65,0,0,0-2.79-5.47c-.25-.18-.58-.26-.75-.53a34.35,34.35,0,0,0-6.83-8.44c-.41-.34.2-.46.15-.72-1.5-2.57-3.23-4.94-6-6.37-.54-.28-1.27-.39-.76-1.29,1.52-2.74,1.14-5.72.84-8.6-.37-3.6-1.65-7-4.56-9.32a17.72,17.72,0,0,0-10-3.88c-.4,0-.89.12-1.12-.43.23-.63,1-1,.87-1.8a.48.48,0,0,0-.37-.39,1.57,1.57,0,0,0-1.14.58c-1.22,1.54-2.87,1.74-4.69,1.66s-3.6-.08-5.39,0a5.3,5.3,0,0,0-5.09,4.72,10.39,10.39,0,0,0,4.77,4.85l.12-.1h0l.05,0c2.52-2.13,4.65-4.65,7.07-6.86-2.42,2.22-4.54,4.75-7.07,6.86l-.05,0c-.3.44-.08.85.08,1.26a.82.82,0,0,0,.63.43c.75.12,1.13.75,1.6,1.22q6.87,6.84,13.72,13.7,9.45,9.48,18.92,18.94-9.39-9.37-18.77-18.76-6.93-6.94-13.86-13.85c-.51-.52-.92-1.22-1.78-1.24s-1.18.82-1.4,1.5a21.06,21.06,0,0,0-1.13,5.67c-.16,3.58-.71,7-4.18,9-.37.22-.53.69-.84,1-1.35,1.27-2.62,2.62-4.54,3.11a4,4,0,0,0-2.67,4.09,3.43,3.43,0,0,1-.75,1.67,49,49,0,0,0-5.9,14.59c-.65,2.64-.79,5.4-1.86,7.94a2.25,2.25,0,0,0-.22.71c-.37,3.42.26,6.85-.12,10.27a1,1,0,0,0,.79,1.11c.16.15.5-.76.43,0a18.56,18.56,0,0,0,0,2.79h66.47Z" transform="translate(-51.53 -3.63)"/><path class="cls-4" d="M89.43,208.3c4-4.6,8.35-9,11.39-14.4,3.85-6.78,8.5-12.85,14.82-17.52,1.27-.38,1.06.65,1.24,1.3-.72,9.65-1.49,19.29-5.68,28.24a28.09,28.09,0,0,1-8.91,10.64,3.42,3.42,0,0,1-3.17.64,15.53,15.53,0,0,0-7.56-.1c.1,0,.37.24.27,0,0,0,0-.07.17-.08,6.08-.51,10.11,1.54,13.4,6.38a36.5,36.5,0,0,1,5.56,14c.33,1.74,1,3.25,2.88,3.76a38,38,0,0,1,6.5,2.28c1.84,1,3.46,2.19,3.9,4.42-.54,2-2.2,3.12-3.48,4.54a104.34,104.34,0,0,0-8.47,9.72c-.47.62-.86,1.41-1.83,1.43a2.36,2.36,0,0,1-1.06-2.89c1.1-4.17.54-8.31-.09-12.45-1.17-1.85-3.12-2.74-4.85-3.91a1.23,1.23,0,0,0-1.23-.08c-.32-2-2.18-2.59-3.54-3.51a73.75,73.75,0,0,1-14.75-13.13,18.17,18.17,0,0,0-1.34-1.29,3.83,3.83,0,0,1-1.17-4.08c1.12-3.94,3.47-7.27,5.51-10.74A11,11,0,0,0,89.43,208.3Z" transform="translate(-51.53 -3.63)"/><path class="cls-5" d="M183.51,36.48c-1.2-.27-1.95-1.59-3.49-1.39.07,1,.77,2.09-.4,3-.52.4,0,1.06.23,1.54.73,1.37,1.54,2.7,2.24,4.08,2.39,4.75,3.94,9.92,7.4,14.13a80.74,80.74,0,0,0,8.67,9.62,1.25,1.25,0,0,1,.61,1.06c-2.65-.6-4.58-2.28-6.49-4s-3.8-3.39-5.63-5.22c.25,3.39,3.37,4.91,5.11,7.92-2.6-1-3.89-2.67-5.42-4.06-3.29-3-5.27-6.91-7.3-10.73-1.92-3.63-3.74-7.37-6.27-10.55s-5.42-6.52-9.09-8.77a35.14,35.14,0,0,1-3.47-2.2c-2.65-2.1-5.76-2.59-9-2.66-2.15-.05-4.3-.54-6.47-.06-.5.11-1.32.22-1.47-.44s.65-1,1.2-1.2a6.38,6.38,0,0,1,2.15-.55,17.29,17.29,0,0,0,4.31-.56c-.23-.95-1.81-.75-1.75-1.62.08-1.13,1.43-.61,2.1-1,0-.32-.23-.51-.48-.5-3.65.05-7.31-1-10.94,0-1.59.48-2.06-.26-2.15-1.63-.25-4,2-5.4,5.93-5.92a17.24,17.24,0,0,1,7.91.92c3,1,6.07,1.74,9.1,2.6s6,2.71,9,4.16c1.38.68,2.85,1.21,3.66,2.74a1.81,1.81,0,0,0,1.85.65c.79-.15.16-1.07.38-1.37,1.46-1.93-.21-2.06-1.35-2.63-2.68-1.34-5.23-3-8-4.08a25.8,25.8,0,0,0-6.37-1.93,6.64,6.64,0,0,1-2.31-.74c4-.54,7.67,1.23,11.57,1.66-2.91-1.82-5.75-3.63-9.11-4.27a28.6,28.6,0,0,0-9.24-.47c-2.35.31-4.78-.72-7.22,0-.41.12-1.31-.07-1.39-.64-.11-.77.75-.94,1.3-1,1.06-.21,2.23.06,3.27-.88-.8-.55-1.62-.24-2.37-.33-.43,0-1,0-1-.55-.05-.4.33-.7.68-.81.87-.26,1.29-.58,1.23-1.69s1.09-1,1.88-1.07c4.1-.57,8.14.47,12.22.52.63,0,1.07.09,1.36-.54,3.78.71,7.63,1.29,11.18,2.74a30.52,30.52,0,0,1,13.38,10,17.65,17.65,0,0,0,1.37,1.5c.1.66-.25.9-.84.92-1.84-1.3-3-3.25-4.71-4.75a34.33,34.33,0,0,0-10.94-6.62,2.63,2.63,0,0,0-1.47-.07A2.61,2.61,0,0,1,166.2,8a2.58,2.58,0,0,0-2.44-.67c-2.95.81-5.95,0-8.92.36a34,34,0,0,1-4,.29,22,22,0,0,1,6.88.7,5.51,5.51,0,0,1,1.43.44c.4.2.84.47.77,1s-.61.54-1,.61a6.33,6.33,0,0,0-1.47.23c4.82.64,9.24,2.47,13.65,4.32A20,20,0,0,1,179,21.28a13.16,13.16,0,0,0,2.05,1.9,3.45,3.45,0,0,1,1.51,2.07,8.52,8.52,0,0,0,1.35,3.63,2,2,0,0,1,.43,1.75C183.66,32.54,183.79,34.54,183.51,36.48Z" transform="translate(-51.53 -3.63)"/><path class="cls-5" d="M105.92,284.83a38.49,38.49,0,0,1-11.26-2.42,6.93,6.93,0,0,1-4.78-4.62c-.33-1.17-1.42-1.32-2.2-1.82-3.64-2.35-6.38-5.36-7.6-9.61-2-6.95,2.64-14,9.43-14.22,4.34-.17,6.23,1.57,6.54,6.24-.32-.52-.53-.87-.73-1.22-1.49-2.62-3.44-3.67-5.56-3a6,6,0,0,0-4.27,6.48c.44,3.3,3.18,6.55,6.28,7.22a9.31,9.31,0,0,0,9.06-3.61c.42-.53.82-1.08,1.23-1.62a31.7,31.7,0,0,1,4.67-4.95c.53-.49,1.17-1.24,2-.43a11.92,11.92,0,0,1,.74,4.29c-.09,1,.63,1.94,1,2.89a2.77,2.77,0,0,1-.13,2c-2.27,5.23-3,10.78-3.29,16.4C107.08,283.69,107.18,284.7,105.92,284.83Z" transform="translate(-51.53 -3.63)"/><path class="cls-6" d="M110,294.57c-.25-.18-.55-.37-.48-.73.61-3.06.1-6.14.16-9.21,0-.71-.28-1.51.41-2.1A64.64,64.64,0,0,1,113,269,54.4,54.4,0,0,1,118.64,258c-.27-.3-.89-.61-.4-1,.84-.71,1.5-2,2.33-2.16a7.44,7.44,0,0,0,2.56-1.24c1.8-1.06,2.82-2.9,4.44-4.13a6.94,6.94,0,0,0,2.8-5.76,24.89,24.89,0,0,1,1.3-7.85c.26-.67.27-1.52,1.26-1.63,0,0,.07-.06.09-.16s0-.17-.18-.22l-.33-.37c-.6-.89-1.13-.31-1.63.11a8.45,8.45,0,0,1-2.23,1.8c-1.06.59-1.51,1.83-2.6,2.38a1.31,1.31,0,0,0-.43.65.75.75,0,0,0,.19.47,7.34,7.34,0,0,1,.66,6.57,13.68,13.68,0,0,1-6,6.71,93,93,0,0,0-9.76,11.31c-.37.26-.45.7-.65,1.06a2.43,2.43,0,0,1-.33,2.29,9.09,9.09,0,0,0-.88,2,54.74,54.74,0,0,0-2.26,14.81,1.41,1.41,0,0,1-.7,1.24c.44,1.79.14,3.6.17,5.4q.09,3.61.38,7.2h4A4.78,4.78,0,0,0,110,294.57Z" transform="translate(-51.53 -3.63)"/><path class="cls-1" d="M198.46,40.26c.41,1.22.83,2.44,1.25,3.67s-.35,2.14-1.36,2.74a2.57,2.57,0,0,1-3.13-.33,31.14,31.14,0,0,1-3.11-3c-2.2-2.38-4.92-4.24-6.81-6.92a4,4,0,0,1-.72-3.68,6.53,6.53,0,0,0-.36-4.9c-1-2.08-.45-3.75,1.38-5.1a2.8,2.8,0,0,0,1.23-1.31.74.74,0,0,1,1.21-.39c3.76,4.89,6.36,10.42,8.91,16C197.44,38.13,198,39.19,198.46,40.26Z" transform="translate(-51.53 -3.63)"/><path class="cls-1" d="M81,162.2c-7.28-3.2-13.43-7.74-17.52-14.72.3-1,1-.53,1.43-.27a6.11,6.11,0,0,0,5,.39,3.84,3.84,0,0,1,4.26,1.15c2.67,2.89,5.58,5.55,8.34,8.35a7.42,7.42,0,0,1,1.06,1.31,2.65,2.65,0,0,1,0,3A2,2,0,0,1,81,162.2Z" transform="translate(-51.53 -3.63)"/><path class="cls-5" d="M108.54,257c-1.89.78-2.94,2.55-4.42,3.82-.69.59-1.16,1.44-2.06,1.78,1.9-5.35,2-10.87,1.53-16.43a19.68,19.68,0,0,0-.36-2c.23-.24-.32-1.35.68-.71,2,1.26,4.15,2.25,5.56,4.24.08.1.17.22.14.32a16.83,16.83,0,0,0-.73,7.78A1.43,1.43,0,0,1,108.54,257Z" transform="translate(-51.53 -3.63)"/><path class="cls-1" d="M188,21.08c-1.13,1.77-3.9,2.3-3.79,5,0,.19-.06.42,0,.56,1.46,2.48,1.27,5,.52,7.69-.29,1,.86,2,1.6,2.81q4.5,4.56,9.2,8.92c1.52,1.4,3.55.28,4.1-2.14a11.29,11.29,0,0,1,1.13,3c-.77-.1-1.25.41-1.8.82a3.28,3.28,0,0,1-4.47-.13c-3.77-3.63-7.38-7.42-11.05-11.15a6.58,6.58,0,0,1,.08-4.88,2.5,2.5,0,0,0-.46-2.89c-.88-.95-.89-2.27-1.1-3.48.28-2.44,1.84-4,3.75-5.26a1.29,1.29,0,0,0,.8-.81A6.23,6.23,0,0,1,188,21.08Z" transform="translate(-51.53 -3.63)"/><path class="cls-1" d="M81,162.2a2.25,2.25,0,0,0,2.5-1.51c.49-1.21-.12-2-.89-2.82-3-3-6.1-6-9.08-9.13a2.88,2.88,0,0,0-3.25-.75,5.87,5.87,0,0,1-6-.63.56.56,0,0,0-.82.12L62,144.88a14.09,14.09,0,0,1,4.65,1.7c.8.54,1.81.11,2.71-.21a4.64,4.64,0,0,1,5.41,1.27c2.78,3,5.71,5.77,8.58,8.63,2.44,2.44,2.63,3.94.86,6.87a1.85,1.85,0,0,0-.12.55Z" transform="translate(-51.53 -3.63)"/><path class="cls-7" d="M132.12,6c-.88.87-2,.35-3,.4-1.77.08-3.55,0-5.32,0C126.57,5.62,129.36,6.2,132.12,6Z" transform="translate(-51.53 -3.63)"/><path class="cls-1" d="M56,143c.12-.24.25-.48.37-.73a16.54,16.54,0,0,1,1.6,4A7.27,7.27,0,0,1,56,143Z" transform="translate(-51.53 -3.63)"/><path class="cls-4" d="M231.54,187.63l.05.41a6.2,6.2,0,0,1-.94,3.37,11.09,11.09,0,0,0-1.16,2.34c-.84,2.59.08,3.72,2.77,4.08,2.26.3,4.61.09,6.77,1a7.68,7.68,0,0,1,4.84,2,33.66,33.66,0,0,1,3.76,3.22c1.17,1.33,1.16,2-.43,2.72,0,0-.16,0-.17,0-1.27,3.18-3.72,1.27-5.42.95-6.16-1.16-12.25-.57-18.36.14a3.83,3.83,0,0,0-2.7,1.83c-2.17,3.33-4.81,6.34-6.66,9.86-.67,1.28-2.08,1.9-2.63,3.25-1.37.72-2,2.3-3.35,3-2.75,2-5.21,4.43-8,6.39s-4.19,2-6.59-.35-4.57-5.11-6.77-7.74c-3.41-4.07-6-8.72-9.16-13a16,16,0,0,1-2.57-6.16c-1.17-3.43-2.85-6.67-3.92-10.13a33.44,33.44,0,0,1-.46-16.83c.14-.66.36-1.35,1.14-1.58,1.65.13,2.62,1.24,3.55,2.42a10.11,10.11,0,0,0,2.23,3.18c1.11,1.4,2.52,2.53,3.14,4.33.4,1.13,1.71,1.59,2.27,2.85,2.41,5.38,4.48,10.94,7.53,16a20,20,0,0,0,5.33,5.9c-.29,1.77-2.2,2.46-2.59,3.84,1.92-3.24,5.37-4.84,8.82-6.41a40.28,40.28,0,0,1,10.08-2.76c1.68-.27,3.53-.45,4.4-2.34.59-1.43.92-3,1.58-4.37a14.42,14.42,0,0,1,4.63-5.72,7.43,7.43,0,0,0,2.93-3.27,3,3,0,0,1,.52-.95,7.15,7.15,0,0,1,3.08-2.65A2.15,2.15,0,0,1,231.54,187.63Z" transform="translate(-51.53 -3.63)"/><path class="cls-8" d="M175.28,205.29c.9,4.48,4.24,7.55,6.44,11.28,3,5.13,7,9.42,10.81,13.9,2.69,3.17,4.23,3.95,7.93.9,2.1-1.73,4.46-3.15,6.32-5.2.24-.26.64-.65,1.13-.28-3.2,3.52-7.09,6.2-11,8.88-1.91,1.32-3.24-.44-4.8-1a193.35,193.35,0,0,1-16.71-22.63c-.24-.38-.43-.57-.86-.43A10.56,10.56,0,0,1,175.28,205.29Z" transform="translate(-51.53 -3.63)"/><path class="cls-4" d="M119.77,50.38a39.24,39.24,0,0,1,16,1.07c6.86,2,13.54,1.28,20.31.24,2-.31,4.1.13,6.05-.63,2.59-.3,2.76-.19,3.55,2.12A114.85,114.85,0,0,1,169.49,68a50.55,50.55,0,0,0,2,7c.3.86.8,1.75.06,2.65-4.31,0-8.63-.14-12.82,1.14a10,10,0,0,0-2.43.93c-.61.39-1.43,1.08-.13,1.76.44.55.05.95-.31,1.27A22,22,0,0,0,151,90a28.4,28.4,0,0,1,16.52-9.66c.49-.1,1-.14,1.48-.25,3.15-.72,3.85-.4,5.37,2.45,1.14,2.15,2,4.41,3.26,6.53.94,1.63.69,2-1.32,2.32A33.18,33.18,0,0,0,166,91.28c-6.35,1.16-9.93,5.29-11.73,11.25-.16.54-.28,1.09-.39,1.63-.28.69-.22,1.45-.43,2.16s.56,0,.57.36c1.17,3.45,4.43,3.94,7.23,5,.61.24,1.35.15,1.95.53,7,2.26,16.19-.68,18.32-8a35,35,0,0,0,.72-4.77c.13-.78-.29-2.08.76-2.14s1.66,1.07,2,2.1a84,84,0,0,1-.18,21.66,59.68,59.68,0,0,1-1.65,7.68c-2,7.1-6.45,12.61-11.29,17.89-1.47,1.62-3,3.16-4.47,4.8a55.09,55.09,0,0,1-11,9c-6,4-12.77,5.59-19.94,2.88-.42-.15-.86-.13-1.28-.26C124.54,157,116,148.58,108.81,138.67a38,38,0,0,1-5.56-12.19,54.36,54.36,0,0,1-1.51-17.14c.47-1.24,1-2.46,2.37-2.91a.6.6,0,0,1,.42.31,3.79,3.79,0,0,0,2.19,2.67,1.23,1.23,0,0,1,.88.83A2.43,2.43,0,0,0,110,111.6c.68.11,1.26.35,1.42,1.12-.34,1.57-1.53,1.79-2.85,1.8-2.12,0-2.69.4-3.1,2.42s-.85,3.79.76,5.57a13.91,13.91,0,0,1,2,3.81c1.75,3.94,5,6.1,8.84,7.6a3.48,3.48,0,0,0,2.21.07,10.76,10.76,0,0,0,6.65-4.82,36.32,36.32,0,0,1,2.27-3.43c1.68-2,2.06-4.65,2.64-7.12.34-1.4-.46-2.24-1.91-2.44a10.87,10.87,0,0,0-3.17,0,50.4,50.4,0,0,1-9.9.14,8.15,8.15,0,0,1-3.07-.79c-1.59-.73-1.66-1.07-.54-2.64a1.18,1.18,0,0,1,1.32.15c.82,1,1.83.65,2.82.44a30.55,30.55,0,0,1,3.71-.25c.43,0-.2-.19,0-.35a.63.63,0,0,1,.26-.43,10.85,10.85,0,0,1,3.35-.42c2.72,1,6.76-.59,8.73-3.16.77-1,.33-2-.18-3s-.31-2-.9-2.84a4.45,4.45,0,0,1-.58-1.37C129.16,95,123,91,116.27,91c-1.5,0-3,0-4.48,0-1.24-.13-1.56-.89-1.22-1.95.48-1.47.71-3,1.28-4.43A2.64,2.64,0,0,1,115.06,83c1.85.29,3.71.46,5.53.9a25.06,25.06,0,0,1,4.87,2.18,28.82,28.82,0,0,1,12.73,11.73c-.75-5.5-2.67-10.66-6.77-14.82a2.66,2.66,0,0,1-.82-1.64c-.24-1.48-1.48-1.73-2.6-2a34.65,34.65,0,0,0-10.34-1.08c-.93,0-1.87,0-2.8,0-1.43-.16-1.89-.88-1.55-2.32,1.09-4.55,1.7-9.2,2.54-13.8a82.43,82.43,0,0,1,2.36-9.44A5.25,5.25,0,0,1,119.77,50.38Z" transform="translate(-51.53 -3.63)"/><path class="cls-5" d="M95.08,107c-.68-.33-1.74.82-2-.12s1.08-1,1.75-1.28a9.52,9.52,0,0,0,4.49-3.88,61.89,61.89,0,0,0,3.92-6.45c.49-1,1.21-1.84,1.13-3.05a1.73,1.73,0,0,1,.28-1c2.29-3,2.52-6.54,3.09-10a6.66,6.66,0,0,0,.19-1.52,10.8,10.8,0,0,0-2.41,4.25A18.37,18.37,0,0,1,103,88.6a47.84,47.84,0,0,1-3.26,4.06c-1.1,1.28-2.2,2.69-4.39,3,1.46-2.12,2.85-4,4.07-6,3-4.8,4-10.22,5-15.68.57-3.27,1.2-6.56-2.91-8.36.84-.59,1-.08,1.21.09s.51.56.81.78.65,1.11,1.3.75a1.68,1.68,0,0,0,.69-1.47,34.26,34.26,0,0,1,.37-4.83,45.2,45.2,0,0,0,.78-8.7,22.46,22.46,0,0,1,1.43-7.82,4,4,0,0,0,.4-1.43c-.27-4.43,2.58-6.63,6.09-8,4.17-1.59,8.53-2.6,13.07-1.55A15.17,15.17,0,0,1,133,36.39a1.11,1.11,0,0,1,.58,1.27c-.23.7-.79.31-1.25.35-2.33.18-4.65-.39-7,.47A14.34,14.34,0,0,0,117,46.19c-.34.74-.76,1.44-1.07,2.19-.66,1.63-.39,2,1.33,2C115.38,55,115,60,114.09,64.78c-.65,3.3-1.23,6.61-1.9,9.91-.2,1-.6,2.07,0,3.09.34.59,0,.91-.51,1.09A1.06,1.06,0,0,0,111,80a75.31,75.31,0,0,1-3.3,11.42c-.89.73-.82,1.78-.9,2.77-1.11,2.17-2.38,4.27-2.65,6.76-.28-.05-.63.46-.77,1.13-.6,0-1.12-.27-1.7.48a14.3,14.3,0,0,1-4.93,4.1C96.23,106.9,95.76,107.45,95.08,107Z" transform="translate(-51.53 -3.63)"/><path class="cls-5" d="M106.52,29.42c-.07-1.11.51-1.28.77-1.68s1-1,.52-1.58-1.21-.05-1.71.29a25.67,25.67,0,0,0-5,4.37,5.06,5.06,0,0,1-2.62,1.48c1.19-2.47,2.93-3.93,4.42-5.5a20.8,20.8,0,0,1,5.87-4.34c-1.94-.44-3,.62-4.24.91-.59.13-1.37.73-1.71.11s.32-1.41.94-1.81A8.47,8.47,0,0,0,106,20.05c.18-.23.54-.41.37-.77s-.59-.23-1-.23a4.13,4.13,0,0,0-3.15,1.73c-.33.37-.78.91-1.25.56-.64-.48,0-1.1.3-1.41,1.89-1.75,3.43-3.83,5.77-5.15,1.7-1,3.34-2.09,5.07-3a43.68,43.68,0,0,1,8.22-3.48,19.6,19.6,0,0,1,7.74-.54c.73.08,1.46.2,2.21.26,1.67.12,3.26.11,4.12-1.72a.82.82,0,0,1,.44-.32c.08,0,.22.07.51.18-1.9,2-1,4-.4,6.15a12.41,12.41,0,0,1,.16,2.6c.15,2.92.07,5.85.14,8.77.05,1.88-1.22,3.84-2.47,5.47-.41.53-1.06.06-1.54-.2A25.66,25.66,0,0,0,117.58,26a15.52,15.52,0,0,0-7.15,1.79C109.28,28.43,107.88,28.56,106.52,29.42Z" transform="translate(-51.53 -3.63)"/><path class="cls-4" d="M135.15,162.87a4.23,4.23,0,0,1,1.92.1c4.35,1.38,8.75,1.81,13.11-.09.67-.3,1.38-.53,2.07-.78,3.28-1.18,5.62-3.76,8.44-5.57,3.18-2.05,5.6-4.74,8.13-7.34,4.33-4.46,8.6-9,11.53-14.58A41.32,41.32,0,0,0,183.89,124c1.49-6.76,1.09-13.62,1.16-20.47,0-1.39-.39-2.7-.39-4.07a7.29,7.29,0,0,1,4.5,3.88A57.19,57.19,0,0,1,187,128.7a33.49,33.49,0,0,1-7.07,12.63A139.62,139.62,0,0,1,164,156.63c-.68.55-1.5.89-2.13,1.5a2.35,2.35,0,0,1-.41.36,5.16,5.16,0,0,0-3.1,2.08,27.61,27.61,0,0,1-6.81,3.28,22.55,22.55,0,0,1-12.85,1c-1-.2-2.13-.24-2.86-1.18l-.74-.42a.2.2,0,0,1-.08-.23Q135.11,162.87,135.15,162.87Z" transform="translate(-51.53 -3.63)"/><path class="cls-5" d="M229,90.89a13,13,0,0,1-4.35,7.24,1.72,1.72,0,0,0-.43,2.38,42.85,42.85,0,0,1,2.1,28.71c-1.31-1.78-.94-3.8-.81-5.77.47-6.92-.81-13.41-4.82-19.2-1.13-1.64-1.78-1.71-3.65-1.16-7.85,2.32-15.49,2.28-22.66-2.27-.42-.27-.85-.52-1.3-.75a.79.79,0,0,0-.55-.11c-.43.42-.2,1.08-.5,1.55-1,.63-1-.29-1-.76.13-1.73-.9-2.7-2.09-3.67-1.55-1.26-2.55-3-4-4.37a5.49,5.49,0,0,1-.52-.65c-1.37-2.12-3-4.08-4.18-6.33-.32-.61-1-1.18-.41-2,2.37,2.61,4.31,5.57,6.66,8.21a31.62,31.62,0,0,0,7,5.45,23.77,23.77,0,0,0,7.52,3.19,24.16,24.16,0,0,0,12.15-.14,35.08,35.08,0,0,1,3.81-.88,2.21,2.21,0,0,0,1.8-1.14c.34-.65.77-.76,1.53-.68a2,2,0,0,0,2.37-2.14c0-1,.06-2,1.54-1.24.54.29.81-.15,1.07-.47A16,16,0,0,1,229,90.89Z" transform="translate(-51.53 -3.63)"/><path class="cls-4" d="M135.15,162.87c0,.12,0,.24,0,.35a31.89,31.89,0,0,1-6.4-2.92,12.52,12.52,0,0,0-3.16-2.29A75.54,75.54,0,0,1,111,145.33a63.48,63.48,0,0,1-7.23-8.77,39.33,39.33,0,0,1-3.38-7.27c-.4-1.07-.37-2.38-1.51-3.11a.56.56,0,0,1-.18-.51c.21-3.82-.93-7.52-1.11-11.31a6.23,6.23,0,0,1,.09-1.67,9.25,9.25,0,0,1,4.49-3.45c0,3.78.13,7.55.53,11.34.88,8.31,4.36,15.36,9.48,21.78a98.16,98.16,0,0,0,13,13.3,59.3,59.3,0,0,0,9.48,6.49A.92.92,0,0,1,135.15,162.87Z" transform="translate(-51.53 -3.63)"/><path class="cls-5" d="M217.71,71.61c1,2.63.49,5.16-.5,7.66a15.54,15.54,0,0,1-9.16,6,19.4,19.4,0,0,1-13-.88,39.61,39.61,0,0,1-12.54-8.19c-1.24-1.23-1.74-2.87-2.75-4.2-.17-.23-.39-.58,0-.83s.73,0,1,.22c1.9,1.9,4.39,3,6.42,4.69s4.88,2.11,7.18,3.45c.61.36,1.29.28.73,1.36-.37.7,1.65,2,3,1.67a5.9,5.9,0,0,1,3.19.3,5.37,5.37,0,0,0,5.07-1c1-.91,2.3-.9,3.44-1.25A11.37,11.37,0,0,0,217.71,71.61Z" transform="translate(-51.53 -3.63)"/><path class="cls-8" d="M171.51,77.71c-.29-2.86-1.71-5.41-2.25-8.22a138.74,138.74,0,0,0-4-15.91c-.57-1.76-1.26-2.74-3.16-2.52a6.55,6.55,0,0,1,2.56-.37c4.14-.39,4.22-.41,5.31,3.74,1.34,5.1,2.43,10.27,3.83,15.36.78,2.85,2,5.58,3.05,8.54Z" transform="translate(-51.53 -3.63)"/><path class="cls-8" d="M133.06,174.57a4.69,4.69,0,0,0,3.07-3.48c.4-.12.35-.47.32-.76-.13-1.35.67-1.58,1.75-1.5a3.53,3.53,0,0,1,.91.2,14.76,14.76,0,0,0,9.38.05c2-.57,2.35-.32,3.08,1.56.48,2.16,2.37,3,3.92,4.12-.24.84-1,1.12-1.66,1.38a26.71,26.71,0,0,1-19.68-.38C133.63,175.56,132.86,175.47,133.06,174.57Z" transform="translate(-51.53 -3.63)"/><path class="cls-8" d="M179.79,83.74c.81,2.31,2.37,4.19,3.68,6.22a5,5,0,0,1,1.07,1.92c-2.12,1.34-4.29.5-6.44.13-.68-.12-1.54-.15-1.72-1.13,1.31.1,1.66-.25.94-1.53-1.4-2.49-2.64-5.06-4-7.58-.75-1.43-1.73-1.82-3.51-1.49a33.21,33.21,0,0,0-13.21,5.11,19.5,19.5,0,0,0-5.52,5.38,1.5,1.5,0,0,1-.84.78,16.28,16.28,0,0,1,3-6.67c.9-1.14,1.87-2.23,2.81-3.34,3.32,0,6.49-.93,9.69-1.62a39.39,39.39,0,0,1,10.73-.37,1.7,1.7,0,0,1,1.53,1.12C178.61,81.71,179.21,82.71,179.79,83.74Z" transform="translate(-51.53 -3.63)"/><path class="cls-8" d="M98,112.62a96.45,96.45,0,0,0,1.21,11.25c.45,3.69,3.65,11,6.32,14.44a100.57,100.57,0,0,0,12.68,13.5,70.12,70.12,0,0,0,9.78,7.31,1.24,1.24,0,0,1,.75,1.18c-9.16-5.08-16.73-12.08-23.76-19.73-6.18-6.73-8.87-14.84-9.65-23.74-.35-3.08-.07-3.76,1.8-4.34A.91.91,0,0,1,98,112.62Z" transform="translate(-51.53 -3.63)"/><path class="cls-5" d="M164.05,39.54c-1.53-1-2.83-2.2-4.21-3.08-3.74-2.38-7.63-4.95-12.38-4.43-3.36.37-6.31,1.63-8.31,4.83-1.17,1.86-2.59,3.45-2.54,5.79,0,.33-.17.69-.51.68s-.57-.44-.57-.82a8.74,8.74,0,0,1,.15-2.6,18.51,18.51,0,0,1,5-8.54,9.21,9.21,0,0,1,5.15-1.91c4.59-.36,9.29-.41,13.17,2.69C161.39,34.06,163.43,36.36,164.05,39.54Z" transform="translate(-51.53 -3.63)"/><path class="cls-9" d="M151.28,171.13c-.37-2-1.47-2-3.16-1.45a12.26,12.26,0,0,1-9.11-.19c-1.79-.77-2.32.36-2.88,1.6a18.17,18.17,0,0,0-.25-7.45,24.59,24.59,0,0,0,15.85-.33C151.9,165.94,152.25,168.58,151.28,171.13Z" transform="translate(-51.53 -3.63)"/><path class="cls-6" d="M126.2,237.91l-.38.42a34.51,34.51,0,0,1-1.89-8.11,15.18,15.18,0,0,0-5.4-10c-2.65-2.24-5-4.88-7.43-7.36-.59-.61-1.36-1.14-1.29-2.16,1.88-1.7,2-4.05,2.5-6.34a36.14,36.14,0,0,1,2.51-7.22,26.09,26.09,0,0,0,2-13.33c-.19-2,.05-4-.42-5.92-.16-.55.32-1.44-.79-1.49a8.4,8.4,0,0,1,5.62-1.5c-.33,1.4-1.76.54-2.45,1.19-.83.46-.76,1.17-.65,2a66.22,66.22,0,0,1,.62,10.06,24.13,24.13,0,0,1-2.11,9.57c-1.86,4.16-3.34,8.45-1.81,13.19a12.25,12.25,0,0,0,4.57,6.4c1.06.77,2.11,1.54,3.12,2.38,1.78,2.18,2,4.91,2.45,7.51.38,2.27.68,4.54,1.28,6.78A5,5,0,0,1,126.2,237.91Z" transform="translate(-51.53 -3.63)"/><path class="cls-3" d="M118.63,175.63c.71-.83,1.93.1,2.63-.75,3.93-.26,7.88.34,11.8-.31,3.75,2.27,7.93,2.71,12.16,2.72a20.47,20.47,0,0,0,8.2-1.54,3.48,3.48,0,0,0,1.86-1.16c.09-.09.19-.24.28-.23,4.29.09,8.59-.75,12.87.15a2.64,2.64,0,0,1,1.65.78.86.86,0,0,1,.06.63c-2,1.2-1.94,1-4.24.24a9.9,9.9,0,0,0-7.48.61,36.25,36.25,0,0,1-8,3.11,22.45,22.45,0,0,1-15.9-2.7,10.19,10.19,0,0,0-6.83-1.23c-2.23.35-4.49,0-6.7.61A2.59,2.59,0,0,1,118.63,175.63Z" transform="translate(-51.53 -3.63)"/><path class="cls-8" d="M112.22,78.17c-.89,0-1.16-.36-1-1.26q2.42-12.4,4.75-24.81a2.09,2.09,0,0,1,1.23-1.69l2.55,0a36.61,36.61,0,0,0-2.62,8.22c-1,5.47-2,10.95-3,16.42a2.54,2.54,0,0,1-.23.89c-.81,1.31-.26,1.81,1.06,1.9C114.19,79,113.23,78.74,112.22,78.17Z" transform="translate(-51.53 -3.63)"/><path class="cls-8" d="M98,112.62c-2.38.46-2.87,2.12-2.67,4.21-.65-3.25-.18-6.54-.25-9.81,3.2-1.18,5.33-3.66,7.56-6.3l.54,1.47a7,7,0,0,1,1.17,4.45c-1.21.46-1.63,1.6-2.22,2.6Z" transform="translate(-51.53 -3.63)"/><path class="cls-3" d="M118.63,175.63a34.54,34.54,0,0,0,9.36-.35,13.34,13.34,0,0,1,8,2c7.34,4,14.55,3.09,21.61-.71a13.67,13.67,0,0,1,7.42-1.26c1.4.07,2.56.6,2.75,2.39.44-1.14.39-2.74,2.19-1.64.63.62.47,1.36.34,2.1a48.08,48.08,0,0,0-.51,13,27.85,27.85,0,0,0,2.53,8c.39.91.73,1.85,1.15,2.75,2.95,6.31-.65,12.45-4,15.53a8,8,0,0,1-2.55,1.53,4.74,4.74,0,0,0-2.33,1.46.58.58,0,0,1-.4.43c-4.24,1.91-8.6,1.19-12.93.46-2.5-.42-5-.85-7.5-.22l-.09-.49a23.42,23.42,0,0,0-7.91.92,19.6,19.6,0,0,1-10.66-.09,7.56,7.56,0,0,1-2.74-1.5c-2.57-1.73-5.26-3.31-6.85-6.16a14.05,14.05,0,0,1-1.45-10.24,60.64,60.64,0,0,1,3.38-9.19,14.35,14.35,0,0,0,.74-4.55,48,48,0,0,0-.7-12.26C117.29,176.45,117.49,175.8,118.63,175.63Z" transform="translate(-51.53 -3.63)"/><path class="cls-6" d="M179.09,276c-.41-4.81-1.36-9.56-4.2-13.64a99.17,99.17,0,0,0-12-13.58,11.36,11.36,0,0,0-1.67-2.24,3.33,3.33,0,0,1-1.06-2.71c.24-1.48.23-3,.44-4.47a138.47,138.47,0,0,1,3.87-17c.16-.61.39-1.2-.14-1.75-.39,0-.68-.82-1.1-.25-1,1.35-2.42,1-3.75,1a49.26,49.26,0,0,1-10-.94c-1.83-.29-4-1.33-5.73.59-.24.29-.48.57-.71.86s-1,.64-.85,1.14a.91.91,0,0,0,.48.49,1.46,1.46,0,0,0,1,.09,8.79,8.79,0,0,1,3.13.43c3.51.86,6.75,2.29,8.9,5.35a13,13,0,0,1,2.62,7.24c0,3,.89,6.12-1.38,8.79-.69.81.37.9.76,1,3.33,1,4.84,3.93,6.71,6.45.22,1.36,1.56,1.76,2.34,2.64,1.84,2.08,3.1,4.55,4.79,6.73,1.28,1.25,1.71,3,2.33,4.56,2.18,5.3,3.85,10.81,3.65,16.66a110.1,110.1,0,0,1-1.27,13.92h2.83A120.16,120.16,0,0,0,179.09,276Z" transform="translate(-51.53 -3.63)"/><path class="cls-6" d="M122.38,219.9c2.81,1,5.65,2.08,8.67,1.82,2.39-.2,4.75-.86,7.13-1.26,1.4-.23,2.82-.41,4.23-.54.5,0,1.21-.24,1.28.65-1.75,2.42-4.14,3.11-7,2.74a28.59,28.59,0,0,0-3.93,0,5,5,0,0,0-5.1,4.49c-.65.24-.82-.39-1.2-.63,1.47,1.5,2.94,3,4.46,4.45.83.79.85,1.41,0,2.14a11.53,11.53,0,0,1-2.24,1.94c-.88.67-1.09,2.07-2.44,2.24C125.27,231.83,124.8,225.66,122.38,219.9Z" transform="translate(-51.53 -3.63)"/><path class="cls-3" d="M110,282.53c.4-9.06,2.94-17.36,8.6-24.58a1.5,1.5,0,0,1-.38,1.19c-4.46,6.81-6.51,14.47-7.87,22.36C110.32,281.87,110.36,282.25,110,282.53Z" transform="translate(-51.53 -3.63)"/><path class="cls-3" d="M110.74,294.61a2,2,0,0,0-.66-1.6c0,.58-.09,1.07-.13,1.55,0,1,.09,1.91.13,2.87h.76C110.78,296.49,110.74,295.55,110.74,294.61Z" transform="translate(-51.53 -3.63)"/><path class="cls-3" d="M148.27,248.79q8.91,8.82,17.83,17.64c.64.64,1.36,1.19,2.17,1.89-.89.39-1.06-.06-1.29-.29q-9.21-9.21-18.4-18.43a3.7,3.7,0,0,1-.31-.46c-.11-.08-.15-.16-.12-.23S148.23,248.79,148.27,248.79Z" transform="translate(-51.53 -3.63)"/><path class="cls-3" d="M148.27,248.79v.35q-6.72-6.62-13.44-13.21c-.61-.61-1.27-1.18-1.9-1.77l-.09-.38a1.26,1.26,0,0,1,1,.42Z" transform="translate(-51.53 -3.63)"/><path class="cls-3" d="M164.39,252.92a27.76,27.76,0,0,1,7.13,9.37c-.24.34-.41.1-.53-.1a39.13,39.13,0,0,0-7.72-9.39C163.76,252.23,164,252.93,164.39,252.92Z" transform="translate(-51.53 -3.63)"/><path class="cls-3" d="M128.64,235.67c.75-1.14,2.67-1.81,2.49-3s-1.7-2-2.62-3a23.24,23.24,0,0,1-2.9-3.56l2,1.68a29.52,29.52,0,0,0,4.47,4.47l.08.09.32,1.08c-.76-.57-1.08.15-1.53.52C130.22,234.53,129.79,235.58,128.64,235.67Z" transform="translate(-51.53 -3.63)"/><path class="cls-3" d="M132.11,232.24l8.22-7.82.06,0c-.87.9-1.68,1.86-2.61,2.7-1.89,1.69-3.32,3.89-5.59,5.18Z" transform="translate(-51.53 -3.63)"/><path class="cls-5" d="M110,210.91a130.8,130.8,0,0,0,9.73,9.83,12.2,12.2,0,0,1,4.28,7.9c.34,3.26,1.71,6.36,1.78,9.69a.7.7,0,0,0,0,.29,45,45,0,0,1-3.46,3.67c.81-.76,1.81-1.84,2.87-2.85.45-.43.87-.73,1.28.1a7.31,7.31,0,0,1-2.1,8.44.45.45,0,0,1-.36,0c-.56-2.1-2.17-3.23-4-4.16a26.59,26.59,0,0,0-6.33-2.16,5.88,5.88,0,0,1-2.43-3.85,64.86,64.86,0,0,0-5-13.24c-.7-1.33-1.46-2.61-2.28-3.87a2.29,2.29,0,0,1-.37-2.46,22.15,22.15,0,0,1,5.4-7.11A.86.86,0,0,1,110,210.91Z" transform="translate(-51.53 -3.63)"/><path class="cls-8" d="M110,210.91c-2.88,1.93-4.43,4.93-6.19,7.75-.32.51-.06,1,.23,1.38,3.89,5.66,6.1,12.05,8,18.58a6.36,6.36,0,0,0,1.69,3c-2.2-.55-3-2.24-3.31-4.24a34.6,34.6,0,0,0-5.8-14.36,12.38,12.38,0,0,0-8.73-5.49c-2-.25-3.88,0-5.83-.16,2.54-1,5.15-1.87,7.83-.93,2.37.82,4-.1,5.68-1.54,6.73-5.59,9.38-13.21,11-21.4a144.61,144.61,0,0,0,1.9-15.68c1.65,6.75,1.53,13.4-1.3,19.85a26.79,26.79,0,0,0-2.33,6.66C112.44,206.87,112.31,209.29,110,210.91Z" transform="translate(-51.53 -3.63)"/><path class="cls-8" d="M108.54,257c-.54-3.19-.76-6.35.93-9.31.93,1.91.85,4,1,6a21,21,0,0,1-.69,7.61,1.87,1.87,0,0,0,1,2.06c.11.56-.23.83-.65,1.06A41.93,41.93,0,0,1,108.54,257Z" transform="translate(-51.53 -3.63)"/><path class="cls-6" d="M126.91,239.27c0-1-.65-.62-1.13-.65l-.25.28.65.41c.06,2.06,1.23,4.1,0,6.16A17.82,17.82,0,0,1,124,248l-3.51,4.11c1.58.19,2.37-1.19,3.18-2,1.55-1.6,3.3-3.31,3.53-5.69A44.34,44.34,0,0,0,126.91,239.27Z" transform="translate(-51.53 -3.63)"/><path class="cls-10" d="M125.25,239v.18l.28-.3-.13-.08Z" transform="translate(-51.53 -3.63)"/><path class="cls-1" d="M185.78,20c-1.19,1.8-3.07,3.1-3.75,5.26-.07-.24-.06-.58-.22-.7-3-2.19-4.91-5.61-8.21-7.43A50.06,50.06,0,0,0,159,11.72c-1-.2-2-.42-3.18-.68,1.18-1.33,2.65-.47,4.16-1.18-4-1.45-7.71-1.61-11.51-1.76a3.53,3.53,0,0,1,2.58-.64c2.94-.17,5.87-.77,8.84-.25,1.26.22,2.45-.31,3.69-.41s2.34-.22,3.13,1a1.35,1.35,0,0,0,.95.5c7.48.23,12.22,5.08,16.9,10A16.52,16.52,0,0,1,185.78,20Z" transform="translate(-51.53 -3.63)"/><path class="cls-5" d="M144.56,19.37a8.34,8.34,0,0,1,4.64-1.22,28.45,28.45,0,0,1,17.5,4.09c.48.31,1.34.44.9,1.32a1.06,1.06,0,0,1-1.63.35c-3-2.1-6.57-2.45-9.95-3.19A49,49,0,0,0,144.56,19.37Z" transform="translate(-51.53 -3.63)"/><path class="cls-11" d="M176.05,33.64c1,.68,1.63,1,1.68,1.74,0,.27-.32.35-.56.27C176.38,35.38,176.25,34.73,176.05,33.64Z" transform="translate(-51.53 -3.63)"/><path class="cls-5" d="M162.9,248.75c-3.93-2.2-3.39-5.73-2.84-9.31a128.24,128.24,0,0,1,4.29-18.27,2.11,2.11,0,0,0,0-.56h0c.16-.14.28-.1.36.09,1.11,2.65,1,5.49,1,8.25a54.69,54.69,0,0,1-2.65,18.73A9.87,9.87,0,0,0,162.9,248.75Z" transform="translate(-51.53 -3.63)"/><path class="cls-6" d="M164.74,220.69l-.36-.09a3.17,3.17,0,0,1,2.35-2.17c5.29-2,8.8-9.88,6.75-15.23-1.24-3.23-2.76-6.36-3.72-9.7a12.08,12.08,0,0,1-.51-2.93A99.37,99.37,0,0,1,170,176l0-.43c1-.39,1.54,0,1.81.94-.89.08-.81.87-.91,1.41-1.36,7.33-1.18,14.49,2.17,21.36a55.09,55.09,0,0,1,2.17,6,14.71,14.71,0,0,1-.71,5.47,14.9,14.9,0,0,1-9,9.31A4.15,4.15,0,0,0,164.74,220.69Z" transform="translate(-51.53 -3.63)"/><path class="cls-1" d="M171.85,176.55a3.25,3.25,0,0,0-1.81-.94,17.19,17.19,0,0,0-8-.93,27.14,27.14,0,0,1-6.8-.09c-2.35,0-3.24-1.64-4-3.46-.15-2.62-.41-5.25.45-7.82a35.12,35.12,0,0,0,6.65-3.13,10,10,0,0,1,3-1.78h0c3.23-2.42,6.43-4.88,9.5-7.52a97.07,97.07,0,0,0,12.67-12.65,35.28,35.28,0,0,0,7.19-17c1.12-5.06,1-10.18.73-15.3a4.58,4.58,0,0,1-.15-.64c0-1.18-.4-2.39.38-3.49l.13-2.83c2.54.78,4.23,2.8,6.63,3.56a30.46,30.46,0,0,0,13,1.27,21.73,21.73,0,0,0,6.27-1.48,2.17,2.17,0,0,1,2.89.94,28.8,28.8,0,0,1,5.29,14.7,24.9,24.9,0,0,1,0,6.28,15.94,15.94,0,0,0,.38,5c-.15.83-.29,1.66-.44,2.49l-1.62,4.49a6.36,6.36,0,0,0-1,2.58,1.91,1.91,0,0,0-.16.53c-.07.49-.15,1.15-.79,1s-.47-.82-.32-1.28a34.86,34.86,0,0,0,1.38-6.78c.45-3.87-.31-7.61-.74-10.36a25.51,25.51,0,0,1,.36,9.76,37.68,37.68,0,0,1-2.62,9.16,4.77,4.77,0,0,1-1.33,1.78c-.32.16-.3.45-.27.73-.21.38-.34.82-.76,1a11.08,11.08,0,0,0-2.6,2.12c-.86.82-1.7,1.29-2.7.21s-.54-1.89.25-2.78,1.67-1.3,2-2.44c-1.54.18-4.15,2.83-4.22,4.18-.05.85.55,1.33,1,1.9.83,1,2.11,1.61,2.39,3a2.74,2.74,0,0,1-1.63,2.09c-.93.1-1.07-.55-1.28-1.24-1-3.31-3.18-3.89-5.6-1.54-2.74,2.67-2.73,2.66,0,5.4a8.82,8.82,0,0,1,2.07,2.36,1.18,1.18,0,0,1-.69,1.09,2.91,2.91,0,0,1-3.37-1.32c-1.74-2.36-2.85-2.47-5-.46a6.34,6.34,0,0,0-2.13,2.52c1,.24,1.34-.51,1.82-.92a9.45,9.45,0,0,1,1.56-1.34,1.52,1.52,0,0,1,2.09,2.17c-.44.79-1.32,1.27-1.73,2.3,1,.06,1.25-.77,1.8-1.07.9-.48,1.81-1.35,2.7,0a1.89,1.89,0,0,1-1,1.51c-1.84,1.38-3.46,3.05-5.57,4-1,0-1-.65-1.14-1.35-.52-2.6-2.7-3.36-4.68-1.63a6.9,6.9,0,0,0-2.13,2.5c1.21.09,1.61-.8,2.21-1.3.77-.65,1.5-1.47,2.6-.72s.84,1.82.39,2.83c-.33.74-.8,1.4-1.07,2.17a3.16,3.16,0,0,1-2.1,1.67,3.33,3.33,0,0,1-2.84-1.12,6.17,6.17,0,0,0-1.14-1,.79.79,0,0,0-1.14.27c-.33.53,0,.81.48,1,.93.38,1.86.75,2,1.94a2.18,2.18,0,0,1-.78,1.11,74.25,74.25,0,0,1-12.94,6.5,1.17,1.17,0,0,1-1.06-.07Z" transform="translate(-51.53 -3.63)"/><path class="cls-8" d="M192.15,206a5.4,5.4,0,0,1,.65.88,5.36,5.36,0,0,0,5,3.29c-.34,1.17-1.22,1.3-2.25,1.16-2.66-.74-4-3.07-5.22-5.08a77.36,77.36,0,0,1-6.57-13.66,18.72,18.72,0,0,0-3.21-5.38c-1.44-1.77-2.8-3.73-4.18-5.62-.57-.79-1.86-1.23-1.49-2.59.26-.08.43-.43.78-.29,3.16,3.44,6.43,6.8,8.75,10.9,2,3.58,3.46,7.46,5.16,11.2A44.76,44.76,0,0,0,192.15,206Z" transform="translate(-51.53 -3.63)"/><path class="cls-8" d="M195.55,211.32c.71-.48,1.64-.5,2.25-1.16a86.82,86.82,0,0,1,16-5.26,7,7,0,0,0,2.71-1.15c-.5,1.56-1.74,2.37-4.27,2.63a35.53,35.53,0,0,0-13.88,4.48,14.45,14.45,0,0,0-5.93,5.47C192.62,214.08,194.36,212.87,195.55,211.32Z" transform="translate(-51.53 -3.63)"/><path class="cls-4" d="M112.31,112.89c-.63,1.69.39,2.9,3,2.85,1.62,0,3.18.26,4.78.29,2.74.06,5.44-.58,8.19-.43s3.46,1.53,2.9,4.27c-.8,3.92-3.21,6.9-5.22,10.08a10.35,10.35,0,0,1-7.69,4.76c-1.55.17-2.88-.85-4.15-1.52a14.42,14.42,0,0,1-6.49-6.71c-.91-1.89-1.22-4.25-3.38-5.4a.67.67,0,0,1-.17-.64c1.1-1.32.41-3,1-4.48s1.51-2.35,3.23-1.93a2.2,2.2,0,0,0,2.78-1.51C111.66,112.27,112.09,112.24,112.31,112.89Z" transform="translate(-51.53 -3.63)"/><path class="cls-12" d="M162.9,112.64A25.5,25.5,0,0,1,156,110c-1.37-.76-2.31-1.63-2.11-3.31-.54-.68-.11-1.34,0-2,.05-.17.11-.34.17-.5.33-.59.39-1.47,1.41-1.31a4.7,4.7,0,0,1,1,1.6,8.48,8.48,0,0,0,7.17,5.77c3.61.54,6.41-1,8.64-3.74.47-.59,1.21-1.6.9-1.92a4.81,4.81,0,0,0-2.92-1.34,4.22,4.22,0,0,1-2.31-.54,2.41,2.41,0,0,1-.86-2.6c.24-1.47,1.89-1.62,2.52-2.73a5,5,0,0,1,2.25-2.21c2.87-1.36,5.59-.34,8.28.57.87.3.84,1.27.94,2.09.48,4.07-.79,7.72-2.72,11.2-2.14,2.61-5.1,3.65-8.28,4A20.8,20.8,0,0,1,162.9,112.64Z" transform="translate(-51.53 -3.63)"/><path class="cls-12" d="M123.89,112.27l-3.76.45c-1.12.61-2.34.36-3.52.42a12.86,12.86,0,0,1-8.09-2.81c-.41-.63-1-1.12-1.4-1.74-1.47-2.17-2.26-4.34-.89-7,.88-1.7,1.44-3.58,2.19-5.36.86-2,4.06-2.61,5.24-1-.49,1.77-1.77,3.24-1.89,5.16a6.3,6.3,0,0,0,0,2.37,8.35,8.35,0,0,0,6.59,7.28,8.77,8.77,0,0,0,9.15-2.8c1.83-2.14,1.69-2.6-.94-3.47a7.55,7.55,0,0,1-1.65-.24,2.94,2.94,0,0,1-2.09-2.18,2.58,2.58,0,0,1,1.28-2.69,9.19,9.19,0,0,0,.93-.6c2-1.69,2.15-1.65,3.85.35,1.3,1.52,1.78,3.37,2.42,5.17.27,1.26.94,2.42.88,3.75a3,3,0,0,1-.41,1.41C130.71,110.6,126.14,112.62,123.89,112.27Z" transform="translate(-51.53 -3.63)"/><path class="cls-8" d="M131,81.47c.69,1.64,2.18,2.64,3.18,4,2.93,4.11,4,8.79,4.54,13.7-1.25-1.7-2.46-3.38-3.72-5a28,28,0,0,0-9.48-7.6,26.4,26.4,0,0,0-10.91-3.2,2.3,2.3,0,0,0-2.33,1.13c-.64-1.75.17-3.26.85-4.75.28-.6,1-.62,1.67-.65,1.24,0,2.49,0,3.73,0,3.3.13,6.41,1.31,9.65,1.73C129.13,80.92,130.19,80.73,131,81.47Z" transform="translate(-51.53 -3.63)"/><path class="cls-13" d="M131,103.67a14.34,14.34,0,0,0-3.37-6c-.6-.62-1.14-1.06-1.57.15a1.41,1.41,0,0,1-1,1,2.07,2.07,0,0,0-1.69,2.66,2.37,2.37,0,0,0,2.82,1.81,3.66,3.66,0,0,1,.73,0c-1.76,3.52-5.37,4.69-8.21,2.64-1.56-1.11-1.93-2.78-2-4.57.66-3.13,1.17-3.69,4.32-4.68-1.44-3.07-4.22-4.1-8.62-3.17-1.28.16-2.55.37-3.81.61-.66.13-1.34.33-1.92-.22-.29-1-.72-2,.8-2.34,1.24-1.41,2.94-.8,4.46-1,4-.29,7.94-.2,11.66,1.55a13.61,13.61,0,0,1,7.41,8.8c.21.68.45,1.36.67,2,.42.47.49,1.06,0,1.38S131.29,103.81,131,103.67Z" transform="translate(-51.53 -3.63)"/><path class="cls-14" d="M132.11,139.24c2.95-.84,5.62-2.68,8.82-2.58a27.58,27.58,0,0,0,5.14,0c2.46-.38,4.5,1.05,6.67,1.86.23.44.73.42,1.09.64.53.31,1.21.53,1,1.34a1.46,1.46,0,0,1-1.38,1.09c-5.35.75-10.71,1.4-16.09.27-1.34-.28-2.72-.21-4-.6C132.28,140.93,131.62,140.45,132.11,139.24Z" transform="translate(-51.53 -3.63)"/><path class="cls-13" d="M171.87,95.72c-.83.44-1.74.79-1.9,1.9-.5.73-.93.83-1.17-.16a2.66,2.66,0,0,1,.15-1.1c.37-1.88-.61-2.92-2.57-2.66a13.23,13.23,0,0,0-8.73,4.85,17.38,17.38,0,0,1-2.23,3.51,5.36,5.36,0,0,0-1.19,2.29h0c-.12.26-.28.52-.62.42s-.16-.24-.06-.39c1.18-7.6,5.78-13.15,14.27-13.92a34.09,34.09,0,0,1,8.56.43,16.13,16.13,0,0,0,8.16,1l.57.61c-.23,2.11-2,2.1-3.46,2.55a57.76,57.76,0,0,0-8.74-1.64,4.39,4.39,0,0,0-1.88-.05C171.1,94.22,172.56,94.61,171.87,95.72Z" transform="translate(-51.53 -3.63)"/><path class="cls-14" d="M147.89,152.4c-3.16,2-6.35,1.21-9.41-.09a9.13,9.13,0,0,1-4.41-3.31c-.16-.93-1-1.38-1.45-2.13-.22-.39-.45-.79-.11-1.21a1,1,0,0,1,1.2-.2c4.47,2.15,9.29,1.88,14,2.1a3.64,3.64,0,0,1,1.8.39,2.3,2.3,0,0,1,1.36,1.88c.05,1-.58,1.41-1.34,1.81C149,151.92,148.41,152.08,147.89,152.4Z" transform="translate(-51.53 -3.63)"/><path class="cls-8" d="M181.67,94.65c1.35-.39,2.73-.74,3.44-2.16,2.21,1.68,3.7,4.08,5.9,5.79,1,.77,0,2.41.72,3.5l.09,3.69a5.57,5.57,0,0,1-3-2.23c-1.08-1.58-2.73-2.53-4.13-3.75a3.17,3.17,0,0,0-1.75-1.88l-.17,1.91c-1.08-.58-.23-1.51-.52-2.16-.07.61.06,1.35,0,2.06-.06.44-.3.67-.73.28C181,98,180.72,96.3,181.67,94.65Z" transform="translate(-51.53 -3.63)"/><path class="cls-15" d="M147.89,152.4a2.84,2.84,0,0,1,1.4-.88c.91-.4,1.51-1,1.16-2a2.18,2.18,0,0,0-2.15-1.44,70.32,70.32,0,0,1-8.35-.27,20.49,20.49,0,0,1-6-1.72c-.39-.18-.78-.65-1.15-.23s.23.72.44,1.06c.39.65,1.68.95.85,2.1a12.34,12.34,0,0,1-4.2-5.55,1,1,0,0,1,1-.57,24.06,24.06,0,0,0,12.36,3.72,23.17,23.17,0,0,0,10.49-2.37,4.51,4.51,0,0,1,2.1-.72c.54.08.79.49,1.06.89C154.71,148,152.19,151.2,147.89,152.4Z" transform="translate(-51.53 -3.63)"/><path class="cls-5" d="M131,81.47c-3.48.21-6.74-1-10.12-1.56-.73-.12-1.47-.21-2.21-.31a15.66,15.66,0,0,0-5.87.08,2.61,2.61,0,0,1-2.15-.1c-.48-1.59,1.23-.73,1.57-1.41l2.75-.36a39.88,39.88,0,0,1,13.33,1.08,11.4,11.4,0,0,1,2.24.9C131.2,80.15,131.58,80.71,131,81.47Z" transform="translate(-51.53 -3.63)"/><path class="cls-8" d="M110.65,79.58a19.87,19.87,0,0,1,8,0c-1.37,0-2.74,0-4.11,0-.72,0-1.37.23-1.38.93,0,1.41-.87,2.58-.9,4-.42,1.54-.75,3.12-1.29,4.62-.39,1.07,0,1.33.94,1.41l-4.46,1c.18-2.63,1.46-5,2.07-7.47C109.91,82.58,110.38,81.11,110.65,79.58Z" transform="translate(-51.53 -3.63)"/><path class="cls-16" d="M132.11,139.24a1.63,1.63,0,0,0,1.53,1.6,54.64,54.64,0,0,0,19.75.29c.52-.08,1.16-.16,1.13-.73-.08-1.18-1.25-1.15-2-1.54,0,0-.12-.06-.13-.09,0-.27.22-.23.39-.27l5.57,1.91c.31.71-.06,1.06-.68,1.28-.87,0-1.7.32-2.58.36a47.88,47.88,0,0,1-24-.64,7.43,7.43,0,0,0-1.15-.09,1,1,0,0,1-.85-1.22Z" transform="translate(-51.53 -3.63)"/><path class="cls-17" d="M181.71,99.85c.6-.93,0-2.07.5-3.09.37.92,0,1.92.53,2.76-.63,10.15-8.52,15.84-18.62,13.4-.4-.1-.88.13-1.22-.28,3.74.23,7.45.33,11-1.07a10,10,0,0,0,4-2.67,16.87,16.87,0,0,0,3.2-7.55C181.19,100.81,181.18,100.22,181.71,99.85Z" transform="translate(-51.53 -3.63)"/><path class="cls-13" d="M108.85,110.06a12.49,12.49,0,0,0,7.57,2.64c1.23.29,2.49,0,3.73.18.37.17.87-.08,1.34.59l-5.1.24c-1-.06-2.1.43-3-.5l-1.12-.32c-.29-.41-.77-.24-1.15-.37a2.92,2.92,0,0,0-1.49-.71,3.07,3.07,0,0,1-2.21-1.48,1.2,1.2,0,0,0-.82-.7,4.77,4.77,0,0,1-2.19-2.68.29.29,0,0,0-.1-.31c-.46-1.47-1.24-2.85-1.17-4.45a7.5,7.5,0,0,0-.34-3.09c1.11.52.53,1.45,1,1.87,1.06.73,1,2,1.25,3A11.16,11.16,0,0,0,108.85,110.06Z" transform="translate(-51.53 -3.63)"/><path class="cls-18" d="M123.89,112.27c2.55-.34,4.69-1.66,6.83-3a2.19,2.19,0,0,0,1.1-2c.28-.45.15-1.11.69-1.43,1.21,1.85,1,2.48-.45,4a10.34,10.34,0,0,1-7.46,3C124.08,112.86,124,112.69,123.89,112.27Z" transform="translate(-51.53 -3.63)"/><path class="cls-19" d="M129.08,140.1l.7,1.08a1.59,1.59,0,0,1,.84,1.88l-.75.39c-1.14-1.87-3.32-2.78-4.49-4.93Z" transform="translate(-51.53 -3.63)"/><path class="cls-20" d="M157.64,141.55l.68-1.14a16.12,16.12,0,0,0,3.82-2.12c-1.42,2.72-4.24,3.63-5.26,6.11-.54.1-.75-.19-.8-.66A2.69,2.69,0,0,1,157.64,141.55Z" transform="translate(-51.53 -3.63)"/><path class="cls-21" d="M132.51,105.87a2.44,2.44,0,0,1-.69,1.43l-.84-3.63c1.17.65.54-.42.69-.74C132.54,103.74,132,105,132.51,105.87Z" transform="translate(-51.53 -3.63)"/><path class="cls-18" d="M104.45,107l2.19,2.68C105.52,109.63,104.5,108.39,104.45,107Z" transform="translate(-51.53 -3.63)"/><path class="cls-22" d="M153.55,104.37c.24.28.45-.06.68,0,.24.82-.45,1.5-.38,2.3-.24,0-.54.68-.61.2C153.13,106,152.8,105.1,153.55,104.37Z" transform="translate(-51.53 -3.63)"/><path class="cls-18" d="M113.43,113.21l3,.5C115.3,114.18,114.17,114.86,113.43,113.21Z" transform="translate(-51.53 -3.63)"/><path class="cls-18" d="M107.46,110.33l2.21,1.48C108.55,111.88,107.55,111.79,107.46,110.33Z" transform="translate(-51.53 -3.63)"/><path class="cls-18" d="M120.15,112.88a8.54,8.54,0,0,1-3.73-.18l3.71,0Z" transform="translate(-51.53 -3.63)"/><path class="cls-23" d="M108.85,110.06c-2.74-1.51-3.66-4.18-4.44-6.93-.2-.72-.35-1.44-.53-2.16-.15-2.79,1.29-5,2.79-7.08l6.11-.92a11.75,11.75,0,0,1,3.37.15c-.68,1.15-1.31,2.14-2.71,2.22-1.28-1-4-.39-4.55,1-.94,2.29-1.94,4.55-2.8,6.87-.8,2.16.57,3.77,1.64,5.42C108.06,109.13,108.73,109.38,108.85,110.06Z" transform="translate(-51.53 -3.63)"/><path class="cls-24" d="M188.79,103.24a9.14,9.14,0,0,1,3,2.23h0a67.73,67.73,0,0,1-.14,11.48c-.2,1.58-.43,3.16-.59,4.75a33,33,0,0,1-6.92,16.47,100.49,100.49,0,0,1-21.6,19.66,8.2,8.2,0,0,1-1.15.57,1.15,1.15,0,0,1,.61-1.08c3.3-2.13,6-4.92,8.91-7.56a97.58,97.58,0,0,0,10.13-10.62,32,32,0,0,0,5.77-11.55,63.93,63.93,0,0,0,2.31-20.09C189.09,106.08,188.91,104.66,188.79,103.24Z" transform="translate(-51.53 -3.63)"/><path class="cls-25" d="M161.41,158.4a6.77,6.77,0,0,1-3,1.78C158.85,158.65,160.1,158.48,161.41,158.4Z" transform="translate(-51.53 -3.63)"/><path class="cls-6" d="M118,217.72c.87,1.79,4.73,1.42,4.61,4.88Z" transform="translate(-51.53 -3.63)"/><path class="cls-6" d="M119.66,211.81c-2.22-4-1.6-8.12-.35-12.25C118.6,203.67,118.21,207.77,119.66,211.81Z" transform="translate(-51.53 -3.63)"/><path class="cls-6" d="M166.21,194.5a5.4,5.4,0,0,1-.92-4.55Z" transform="translate(-51.53 -3.63)"/><path class="cls-1" d="M212.51,152.45a25.77,25.77,0,0,1-4.91,5.2c-1.83-1.21-3.1-3-4.73-4.46-.63-.55-.29-.93.15-1.36.93-.92,1.87-1.83,2.77-2.78s2-1.56,3.16-1.06a4.17,4.17,0,0,1,2.69,3.09C211.74,151.7,211.62,152.37,212.51,152.45Z" transform="translate(-51.53 -3.63)"/><path class="cls-1" d="M206.88,158.44c-.55,1-1.57,1.46-2.34,2.2-1.31-.9-2.1.05-2.82.88-.56.65-1,1.47-1.89.57s.33-1.21.66-1.72c.55-.87,2.21-1.53,1-2.73s-1.91.33-2.71,1a11.14,11.14,0,0,0-1.19,1.19c-.48.54-.88.81-1.51.14s-.33-.95.13-1.39c.86-.82,1.64-1.73,2.54-2.49,2-1.71,3.77-1.48,5.1.83A2.76,2.76,0,0,0,206.88,158.44Z" transform="translate(-51.53 -3.63)"/><path class="cls-1" d="M218,144.12a24.08,24.08,0,0,1-4,6.46c-1-1.08-2-2.2-3.09-3.24a2,2,0,0,1-.31-2.84,19.13,19.13,0,0,1,3.4-3.68c.46-.36.8-.52,1.28,0s.57.9,0,1.42c-.76.74-1.46,1.53-2.24,2.26s-.72,1.29,0,2,1.19.42,1.85-.13C215.87,145.54,216.46,144.16,218,144.12Z" transform="translate(-51.53 -3.63)"/><path class="cls-1" d="M198.14,165.89a16.53,16.53,0,0,1-4,2.72c-.15-1.17.9-1.85,1.19-2.87.21-.77.22-1.33-.42-1.81s-1.26-.06-1.76.44-1.17,1.12-1.72,1.71a.94.94,0,0,1-1.46.15c-.66-.52-.31-1,.11-1.4.65-.67,1.32-1.32,2-2a2.93,2.93,0,0,1,3.56-.83c1.24.61,2.3,1.49,1.92,3.17C197.37,165.69,197.76,165.8,198.14,165.89Z" transform="translate(-51.53 -3.63)"/><path class="cls-1" d="M192.18,170a7.69,7.69,0,0,1-2.67,1.44,2.88,2.88,0,0,0-2.18-1.53,1.12,1.12,0,0,1-1-.95c-.07-.71.6-1.05,1.06-1.42s.93-.09,1.32.27C189.71,168.79,190.52,170.1,192.18,170Z" transform="translate(-51.53 -3.63)"/><path class="cls-26" d="M191.08,121.7a131.4,131.4,0,0,0,.73-16.23A43.2,43.2,0,0,1,192,116.6,15.11,15.11,0,0,1,191.08,121.7Z" transform="translate(-51.53 -3.63)"/><path class="cls-27" d="M168.2,102.49a18.5,18.5,0,0,1,4.66,1.16c1.24.47,1,.88.65,1.66a9.47,9.47,0,0,1-13.88,3.86c-1.73-1.15-3.2-2.52-3.56-4.72-.11-.36-.2-.76.25-.92.65-.23,1,.24,1.33.7.69,1.12,1.51,1.31,2.53.44a1.33,1.33,0,0,1,1.06.21c3.08,1.51,4.9,1,6.63-1.94A2.09,2.09,0,0,1,168.2,102.49Z" transform="translate(-51.53 -3.63)"/><path class="cls-27" d="M168.2,102.49c.3,1.58-.92,2.27-1.9,3a4,4,0,0,1-4.34.4,16.91,16.91,0,0,1-1.68-1.12,1,1,0,0,1-.69-.54c-.56-2.28.1-3.78,2.21-4.66a6.5,6.5,0,0,0,1.91-1.44,2.39,2.39,0,0,1,2.93-.41,1.42,1.42,0,0,1,.78,2.14A2.74,2.74,0,0,0,168.2,102.49Z" transform="translate(-51.53 -3.63)"/><path class="cls-27" d="M167.42,99.82c.21-1.32-.72-1.86-1.7-2a1.65,1.65,0,0,0-2.07,1.12,1.21,1.21,0,0,1-.85.89c-2.82,1-3.12,1.48-2.9,4.51-1.13-.13-1-1.09-1.15-1.81-.38-2.71,1.31-5,4.37-5.92-1.57-.49-2.54.47-3.6,1.17-.69.45-1.28,1.31-2.28.58a13.76,13.76,0,0,1,9.29-5.21c2.14-.33,3.35,1.18,2.87,3.33,0,.12-1.42,1.73.57,1.14.12.56-.12.83-.67.85C168.38,98.5,167.91,99.18,167.42,99.82Z" transform="translate(-51.53 -3.63)"/><path class="cls-23" d="M181.71,99.85c-.27,3.43-1.08,6.64-3.79,9.05.47-1.06.86-2.17,1.42-3.18,1.54-2.77,1.17-5.77,1.17-8.73a1,1,0,0,0-.85-1.08,27.15,27.15,0,0,0-6.4-1c-.7,0-.84.69-1.39.78,0-1.44-1.5-1.62-2.14-2.87a33.4,33.4,0,0,1,11.94,1.8C181.68,96.39,181.7,98.12,181.71,99.85Z" transform="translate(-51.53 -3.63)"/><path class="cls-27" d="M157.24,98.36c1.48.19,2.09-1.2,3.11-1.81a3,3,0,0,1,3.71.07c-4.86,2.28-5.94,4.28-4.16,7.72l.38.39c-.83,1.55-1.79,1.57-2.79.13-.29-.42-.44-2.13-1.42-.41-.26-.5-.75-.91-.69-1.56-.4-.29-.17-.75-.31-1.12Z" transform="translate(-51.53 -3.63)"/><path class="cls-22" d="M155.07,101.77a.91.91,0,0,1,.31,1.12c-.78.17-.46,1.21-1.15,1.46C154,103.33,154.68,102.59,155.07,101.77Z" transform="translate(-51.53 -3.63)"/><path class="cls-27" d="M117.1,101.35c.12,3.75,2.64,5.94,6.22,4.85,1.54-.46,2.2-2.16,3.57-2.92a3.44,3.44,0,0,0,1,.45c2.47.26,1.62,1.55.87,2.77a9.67,9.67,0,0,1-10.21,4.17,9.12,9.12,0,0,1-7-7.73.66.66,0,0,1,.17-1,13.09,13.09,0,0,0,2.12-1.74C115.36,98.74,116.25,99.07,117.1,101.35Z" transform="translate(-51.53 -3.63)"/><path class="cls-27" d="M117.1,101.35c-.17-.06-.38-.07-.5-.19-.4-.4,0-1.39-.85-1.42a1.92,1.92,0,0,0-2,1.12c-.4,1.22-2,.88-2.31,2.08-.74-2.89.34-5.31,2-7.6L116.05,93h-3.27c3.87-.49,7.54-.5,9.21,4.15C119.29,97.13,117.48,98.44,117.1,101.35Z" transform="translate(-51.53 -3.63)"/><path class="cls-28" d="M157.64,141.55l-1.56,2.19c-4.36,2.18-8.91,3.67-13.85,3.29-4.18-.31-8.2-1.3-11.61-4-.28-.63-.9-1.1-.84-1.88a.67.67,0,0,1,.89-.31,35.1,35.1,0,0,0,21.89,1.6,12.2,12.2,0,0,0,2.83-.87C156.14,141.71,156.87,140.63,157.64,141.55Z" transform="translate(-51.53 -3.63)"/><path class="cls-29" d="M155.39,141.6c-1.83,1.62-4.22,1.67-6.4,2.07-6.08,1.13-11.94,0-17.62-2.24a3.31,3.31,0,0,1-.7-.56,52,52,0,0,0,16.8,1.77C150.14,142.5,152.74,141.86,155.39,141.6Z" transform="translate(-51.53 -3.63)"/><path class="cls-1" d="M209.43,151.65a3.28,3.28,0,0,1-2.24,2.41c-.77.21-1.46-.82-1.76-1.64-.2-.52,1.8-2.3,2.46-2.26A1.6,1.6,0,0,1,209.43,151.65Z" transform="translate(-51.53 -3.63)"/><circle class="cls-12" cx="70.46" cy="97.86" r="4.64"/><circle class="cls-27" cx="69.4" cy="98.87" r="8.24"/><circle class="cls-27" cx="114.35" cy="97.86" r="8.24"/><circle class="cls-12" cx="74.96" cy="98.52" r="3.42"/><circle class="cls-12" cx="119.44" cy="96.73" r="3.59"/><path class="cls-30" d="M146.14,122.11c.47-2.88-3.39-4.34-2.2-8.27.53,3.82,5.17,4.73,4.27,8.13-.75,2.87-3.49,4.49-6.61,4.94C141.21,123.51,145,124.1,146.14,122.11Z" transform="translate(-51.53 -3.63)"/><path class="cls-31" d="M146.14,122.11c-.65,2.42-3.71,2.55-4.54,4.8-1.55,1.58-2.69.13-3.21-.85-.63-1.17.68-1.86,1.68-2.19C142.06,123.21,144.11,122.69,146.14,122.11Z" transform="translate(-51.53 -3.63)"/><path class="cls-6" d="M143.88,223.06s-8.86,2.51-11,11l-3.43,2.13-2-.53-2.61-10.62,9.51-3.1,11-1.79,2.81-.23Z" transform="translate(-51.53 -3.63)"/><path class="cls-32" d="M171.55,176.51s4.34.94,8,6.05a133.19,133.19,0,0,1,8,13.52l3.91,8.66s2.66,5.2,4.81,5.18a22.39,22.39,0,0,0,5.59-1.27s5.39-2.06,9.18-3.05,4.66-.94,5-1.49,1.64-4.42,2-5.12a20.07,20.07,0,0,1,2.28-3.49c.78-.81,2.84-2.45,3.24-2.79a10.63,10.63,0,0,0,1.84-2.28,12.06,12.06,0,0,1,1.42-2.16c.3-.33,1.53-1.72,2.47-1.71s1.61,0,2,.62,0,3,0,3l-1.62,3.23s-1.12,3.19.56,3.76,4.22.66,6.55,1a38.3,38.3,0,0,1,5,1.26l4.7,3.44,1.51,1.55s.63.55.49,1.05-1.42,1.31-1.42,1.31-.76,1.81-1.8,1.78-1.33-.47-3.62-.83a63,63,0,0,0-11.15-.54c-3.3.25-6.45.59-6.45.59s-2.25.23-3.08,1.42l-2.25,3.2-3.55,5a37,37,0,0,1-3,4.08c-1.45,1.64-4.58,4.65-4.58,4.65L200.91,232l-4.37,3a5.42,5.42,0,0,1-2.93-.45,12.87,12.87,0,0,1-2.82-2.34l-5-6.21-6.65-9.14-4-6-.59-.09" transform="translate(-51.53 -3.63)"/><path class="cls-32" d="M116.08,176.3s-5.38,3.09-14,15.17-14.12,19.74-14.12,19.74l-5,9.28s-2,2.73,0,4.82,6.77,7.5,10.16,10.23,10.83,7.86,10.83,7.86,6,3.43,5.4,4.72-1.19,4.94-.81,6.3,1,10.76,1,10.76" transform="translate(-51.53 -3.63)"/><path class="cls-32" d="M116.08,176.69a25.17,25.17,0,0,1,1.42,9.55,102.48,102.48,0,0,1-2.28,12.46,33.54,33.54,0,0,0-2.52,6.4c-.38,2.18-1,4.82-1.94,5.2s-4.84,5-4.84,5l-2.31,2.94s2.49,4.78,3.62,7.24,4.28,11.35,4.28,11.35l2.22,4.83s4.94.54,6.61,1.75S124,248,124,248" transform="translate(-51.53 -3.63)"/></svg>