<svg id="Capa_1" data-name="Capa 1" xmlns="http://www.w3.org/2000/svg" viewBox="0 0 176.32 294.27"><defs><style>.cls-1{fill:#652718;}.cls-2{fill:#1d1d1b;}.cls-3{fill:#653427;}.cls-4{fill:#553831;}.cls-5{fill:#423938;}.cls-6{fill:#3a3938;}.cls-7{fill:#64392b;}.cls-8{fill:#482c29;}.cls-9{fill:#5e342a;}.cls-10{fill:#656769;}.cls-11{fill:#4f4241;}.cls-12{fill:#644238;}.cls-13{fill:#6a6867;}.cls-14{fill:#f3c4a7;}.cls-15{fill:#f6c6ab;}.cls-16{fill:#f6c7ab;}.cls-17{fill:#e59270;}.cls-18{fill:#f2bca0;}.cls-19{fill:#3c3c3b;}.cls-20{fill:#f1936e;}.cls-21{fill:#5b2015;}.cls-22{fill:#f6c3a5;}.cls-23{fill:#ed926f;}.cls-24{fill:#facaa9;}.cls-25{fill:#ef9470;}.cls-26{fill:#f8c8a8;}.cls-27{fill:#f9c9a9;}.cls-28{fill:#f5c2a4;}.cls-29{fill:#ed936f;}.cls-30{fill:#de8368;}.cls-31{fill:#fff;}.cls-32{fill:#88bac0;}.cls-33{fill:#88b9c0;}.cls-34{fill:#fcfdfd;}.cls-35{fill:#f9c8a8;}.cls-36{fill:#fcfbfb;}.cls-37{fill:#8bb8bd;}.cls-38{fill:#9bc0c4;}.cls-39{fill:#fbfaf9;}.cls-40{fill:#fcfdfe;}.cls-41{fill:#8ababf;}.cls-42{fill:#88babf;}.cls-43{fill:#fdfdfc;}.cls-44{fill:#41909d;}.cls-45{fill:#8db6bc;}.cls-46{fill:#f4f0f0;}.cls-47{fill:#3893a1;}.cls-48{fill:#fefefe;}.cls-49{fill:#3893a0;}.cls-50{fill:#297d84;}.cls-51{fill:#297c85;}.cls-52{fill:#367f86;}.cls-53{fill:#347c83;}.cls-54{fill:#ee9470;}.cls-55{fill:#f8c8a9;}.cls-56{fill:#f6c7aa;}.cls-57{fill:#f5c6a8;}.cls-58{fill:#eda080;}.cls-59{fill:#3993a1;}.cls-60{fill:#297d85;}.cls-61{fill:#2a7c84;}.cls-62{fill:#2c7c84;}.cls-63{fill:#35b7c2;}.cls-64{fill:#fdfbfc;}.cls-65{fill:#8bb8be;}.cls-66{fill:#fbf6f5;}.cls-67{fill:#3bb4bd;}.cls-68{fill:#36b7c1;}.cls-69{fill:#fdfcfc;}.cls-70{fill:#3db4bd;}.cls-71{fill:#fbf6f4;}.cls-72{fill:#367e85;}.cls-73{fill:#377d83;}.cls-74{fill:#714230;}.cls-75{fill:#53281f;}.cls-76{fill:#7a3b25;}.cls-77{fill:#f0bda4;}.cls-78{fill:#fefdfd;}.cls-79{fill:#fffefd;}.cls-80{fill:#4a1d19;}.cls-81{fill:#8c3032;}.cls-82{fill:#cbb2a9;}.cls-83{fill:#50231b;}.cls-84{fill:#ceb9b1;}.cls-85{fill:#eba585;}.cls-86{fill:#5c322a;}.cls-87{fill:#826254;}.cls-88{fill:#735449;}.cls-89{fill:#7b4733;}.cls-90{fill:#a07d6d;}.cls-91{fill:#96483f;}.cls-92{fill:#e49472;}.cls-93{fill:#634539;}.cls-94{fill:#8d6758;}.cls-95{fill:#6b4737;}.cls-96{fill:#3e919f;}.cls-97{fill:#3b93a0;}.cls-98{fill:#6e3d2d;}.cls-99{fill:#70412d;}.cls-100{fill:#4a1e19;}.cls-101{fill:#f3efed;}.cls-102{fill:#f4efef;}.cls-103{fill:#e46f79;}.cls-104{fill:#fbf2f1;}.cls-105{fill:#7c3c26;}.cls-106{fill:none;stroke:#653427;stroke-miterlimit:10;stroke-width:0.75px;}</style></defs><path class="cls-1" d="M104.57,89.2c1.63,1.07-.44,1.53-.37,2.34a.84.84,0,0,0,.29.71c1-.31,1.8-.44,2,1.09,1.26,9.32,7.22,15.26,14.68,20a72.31,72.31,0,0,0,21.14,8.76c1.22.32,2.71.33,2.3,2.29a.94.94,0,0,0,0,1.25.62.62,0,0,0,.82,0c.1-1.43,2-2.2,1.41-3.87a13.55,13.55,0,0,0-4.54-1.49c-8.51-2.18-16.56-5.46-23.56-10.84-6.53-5-11.09-11.26-10.54-20.09.06-.88-.12-1.9.67-2.43h-3.83C104.67,87.61,104,88.26,104.57,89.2Z" transform="translate(-62.03 -2.58)"/><path class="cls-2" d="M159.3,49.81a41.54,41.54,0,0,0-11.44-6.45c-9.65-3.68-19.49-3.62-29.47-1.61a7,7,0,0,0-5.23,3.94c-2.29,4.33-3,9.07-4,13.75a81,81,0,0,0-.79,12,23.18,23.18,0,0,0,.31,4.48,30.76,30.76,0,0,1,.85,5.31c0,.75.21,1.77-.8,2-.77.19-1.17-.62-1.57-1.17a18.18,18.18,0,0,1-3-7.76c-.46-2.56-.81-5.13-1.34-7.67-.17-.8-.1-2.12-1.25-2s-.9,1.4-1,2.26c-.28,3.06.45,6,1.19,9.13a2.21,2.21,0,0,1-1.4-1.75,67,67,0,0,1-1.49-15.72c.22-4.39,1.84-8.6,1.5-13.05.53-5.43,1.64-10.65,5.36-14.94a16.69,16.69,0,0,1,1.14-1.38c.73-.88,2.17-1.66,1.58-2.93s-2.1-.62-3.25-.57c-2.28.1-4.54.56-6.82.68-.67,0-1.62.08-1.81-.69-.25-1,.83-1.16,1.51-1.46a12.18,12.18,0,0,1,2-.56c2.84-.69,5.76-.14,8.62-.57,4.73-.73,4.81-.81,4.86-5.64a30.3,30.3,0,0,1,1-8.27c.39-1.66,1.31-2.42,3-1.54.48-.08.84-.25.59-.84a2.35,2.35,0,0,0-2.47-2.14c-1.34.06-2,1.27-2.36,2.42a38.1,38.1,0,0,0-1.74,11.5c0,1.93-.56,2.53-2.51,2.53-4.39,0-8.81.17-13,1.71-1.43.53-2.92,1.23-2.56,3.16.32,1.75,1.84,1.94,3.26,2,2.65.06,5.31,0,8.37,0a26.94,26.94,0,0,0-6,12.68c-.51,3-.19,6.25-.92,9.22-1.95,8-1.48,15.82-.09,23.77.27,1.52,1.66,3.15.22,4.79-.08.54.26.75.69.9.91.3,2-.55,2.82.29-.17.78-1.6.71-1.17,1.83.22.54,2.25.08.84,1.55a1.25,1.25,0,0,0-.3,1.61c.61.79,1.23.11,1.81-.16s1.22-.84,1.85-.15a2.22,2.22,0,0,1,.32,2,1.86,1.86,0,0,1-.25.68h3.83a2.15,2.15,0,0,1,.34-.17c3.47-1.3,3.54-4.11,2.92-7-1.52-7.07-1.06-14.14-.11-21.18a30.63,30.63,0,0,1,3.28-11.16,5.41,5.41,0,0,1,3.56-3c13.61-3,26.45-1.7,38,6.88,1,.76,1.88,1.85,3.32,1.88a1.3,1.3,0,0,0,.88-1.08A3.9,3.9,0,0,0,159.3,49.81Z" transform="translate(-62.03 -2.58)"/><path class="cls-3" d="M191.31,90.43a21.47,21.47,0,0,1-6.1,14.86c-8.63,8.91-19.64,13.06-31.43,15.64-2.14,1-4.63.11-6.73,1.28-2,.48-1.91,2-1.85,3.54a1.39,1.39,0,0,0-.08,1.79.79.79,0,0,0,.87,0c.49-2.91,2.24-3.92,5.06-3.44,1.15.2,2.78-.67,3,1.45.19,1-.11,2.29,1.32,2.72,1.13-.88.8-2.3,1.29-3.42.14-1.79,1.48-2.14,2.89-2.53a71.2,71.2,0,0,0,19.2-8.31c7.05-4.46,12.79-10,14.61-18.55.44-2.06,1.79-2,3.34-2.1a8.53,8.53,0,0,0,7.37-6.12,8.42,8.42,0,0,0-3.36-9.26c-1.15-.81-3.05-.66-3.68-2-1.58,1-2.73,3.18-4.62,3.18h0c1.89,0,3-2.23,4.62-3.18a2.38,2.38,0,0,1-.12-.32,59.92,59.92,0,0,1-5.84,2.07C191.31,81.91,191.45,86.16,191.31,90.43Z" transform="translate(-62.03 -2.58)"/><path class="cls-2" d="M198.68,62.18c-.56-.79-.87-1.82-2-2.1a3.5,3.5,0,0,0-2.36,3c.52.91,1.77,1.44,1.47,2.77-.67,3.08-.86,6.26-1.89,9.5-.58-1-.3-1.83-.52-2.57-1-3.42.35-7.23-1.7-10.47-2-.42-1.27,1.3-1.64,2.14.33,4.41.72,8.82,1,13.23a59.92,59.92,0,0,0,5.84-2.07,1.55,1.55,0,0,1,0-.15c-.33-1.66.44-3.34.77-5a35.08,35.08,0,0,1,.68-3.6h.17a9,9,0,0,1,.22-2.13A9.39,9.39,0,0,1,198.68,62.18Z" transform="translate(-62.03 -2.58)"/><path class="cls-3" d="M219.19,86.91a12.64,12.64,0,0,1-.61,1.56,3.51,3.51,0,0,1-.78,1.22c-2,2.21-3.94,4.52-6.07,6.64-6.79,6.8-14.25,12.84-21.56,19a1.57,1.57,0,0,0,1.09,2.08c1.15-.52,1.74-1.76,2.89-2.28,9.09-7.72,18.27-15.35,26-24.55.72-.86,1.56-1.67,2.74-.56s.26,2.24-.44,3.18c-1.55,2.09-3.07,4.18-4.73,6.18-6.63,8-13.76,15.54-21.09,22.88a4.92,4.92,0,0,0-1.83,2.66,1.3,1.3,0,0,0,.32.77,233.09,233.09,0,0,0,30.33-33.69l.2.18C224.24,89.34,222.09,87.15,219.19,86.91Z" transform="translate(-62.03 -2.58)"/><path class="cls-4" d="M170.62,271c-1.43-3.55-1.06-5.17,2.1-7a2.12,2.12,0,0,0,1.27-2.6c-1.33-6.85-2.68-13.7-3.91-20.57-.28-1.58-.7-2.07-2.46-1.85-3,.36-6,.25-9,.33-.92,0-1.87,0-2-1.25-.25-3.18-2.2-6.24-.65-9.57a4.46,4.46,0,0,0,0-1.78c-.21-.92-.65-1.88.36-2.63.09,0,.23,0,.27.11,2.24,3.63,2.26,3.71,6.66,2.5,6.31-1.75,12.66-3.35,19-4.89,1.9-.46,2.8-1.35,2.29-3.34a56.51,56.51,0,0,1-1.06-7.08,4.25,4.25,0,0,0-2.77-3.82c-2.78-1.32-5.56-2.84-5.76-6.52a.87.87,0,0,1,.67-.48c1.42.29,1.87,1.66,2.78,2.53a6.45,6.45,0,0,0,4,2.22c0-2.25-.73-4.23-.86-6.26a8.67,8.67,0,0,1-.35-3.61c.19-.6.28-1.29,1.17-1.23,1.4,8.25,2.7,16.52,4.27,24.74.52,2.69,2.78,4.66,3.34,7.61,1.26,6.57,1.55,6.51-4.89,8.75-4.27,1.49-4.28,1.49-3.71,6.12.77,6.31,1.56,12.62,2.31,18.93.11.92.18,1.63,1.25,2.1,4.78,2.1,5,2.67,4.18,7.95.23.55-.11.76-.54.92-1.86.29-2.51-.29-1.49-2.08a3.09,3.09,0,0,0,.2-3.12c-.8-1.54-1.69-1.57-2.65-.1-2.43,3.72-6.3,4.22-9.58,1.22-.69-.63-1.14-1.8-2.41-1-1.36,1.1-.59,2.78-1.11,4.1C171.37,270.72,171.13,271.05,170.62,271Z" transform="translate(-62.03 -2.58)"/><path class="cls-2" d="M203.71,38.23a1,1,0,0,1-.2-.3A42.05,42.05,0,0,0,191.68,22c-.27-.21-.84-.45-.38-.84,3.26-2.78-.21-3.85-1.51-4.88A60.63,60.63,0,0,0,156.53,2.76a48,48,0,0,0-34.11,10.05c-.11.65.3.83.84.9a6.33,6.33,0,0,0,2.38-1.18c8-4.63,16.31-7.74,25.68-8,9.87-.25,18.88,2.52,27.59,6.76a46.72,46.72,0,0,1,9.82,6.22c.49.41,1.74,1.12.48,1.72-2.74,1.3-1,2.35.13,3.12,5.45,3.74,8.87,9,11.72,14.81a5.57,5.57,0,0,1,.79,2.22c-.76-.31-1.22-1.41-2-1.18-2.41.77-3.89-.29-5.16-2.14a1,1,0,0,0-1.33-.35c-.61.42-.41,1.07-.2,1.63.53,1.45,1.68,2.61,2.12,4.31-1.58-.7-2.91-.86-4.09.32-1.42,1.43-.67,3-.19,4.48a17.87,17.87,0,0,1,1.33,3.21c-1.49-.33-2.93-.53-4.21.34-.69.68-2-.66-2.31.49-.44,1.85-1.7,3.8,0,5.69.6.15,1.31-1.57,1.86.2a3.25,3.25,0,0,0,2.16,2.28A4,4,0,0,0,193,56.84c.06-1.61-1.42-2.26-2.08-3.41-.26-.45-1.52-1.42.38-1.39,1.33.61,2.25,2.24,4.07,1.68a2,2,0,0,0,.84-1.47c-.24-2.88-3-4.89-2.87-8.22,1.74.72,2.18,2.27,3.1,3.36s1.69,3.68,3.18,3c1.87-.78.25-3,.16-4.56s-.78-2.83-.37-4.78c1.46,1.78,1.53,3.66,2.24,5.26.35.79.61,2,1.7,1.76.86-.15.9-1.25.87-2a44.47,44.47,0,0,1,.42-5.88A8.85,8.85,0,0,1,203.71,38.23Z" transform="translate(-62.03 -2.58)"/><path class="cls-5" d="M150,215.11c-2.54-.35-3.39.9-3.56,3.3-.23,3.36-1.77,7-.91,10,.95,3.25-.17,5.89-.2,8.8,0,1.7-.78,2.25-2.39,2.13-2.47-.18-5,.18-7.42-.35-1-.21-1.93.16-2.88-.19a.89.89,0,0,1-.14-.82,2.29,2.29,0,0,1,.75-.48,21.34,21.34,0,0,1,6.53-.09c3.38.38,3.38.4,4.16-3,.59-3.37.5-3.56-2.64-4.39-8-2.1-16.06-3.8-24-6.14-2.12-.63-3.5-.24-4,2.09-1.87,5.32-1.87,5.32,3.32,7.17,2.51.9,5.07,1.64,7.66,2.29.77.19,2.16.18,1.36,1.73a3.05,3.05,0,0,1-3.38-.35,89.91,89.91,0,0,1-10.69-3.68c-1.5-.63-2.33-1.39-1.44-3.14,1.55-3.06,1.06-7,4.31-9.36.34-.25.23-1.14.32-1.73q2-11.91,3.91-23.84c.23-1.4.22-2.58-1.55-2.93-1.6-.33-1.56-1.51-1.29-2.76.82-.19,1.3.49,2,.77a8.06,8.06,0,0,1,.8.48c16.74,6.18,33.78,8.44,51.34,4,1.15-.29,2.32-.71,3.48,0a1.2,1.2,0,0,1-.44,1.78A69.54,69.54,0,0,1,140.77,199a63.51,63.51,0,0,1-8.27-1.43c-2.95-.87-5.31-.41-7,2.26a3.73,3.73,0,0,1-1.38,1.11c-4.58,1.41-5.74,4.94-6,9.2-.16,2.27-.75,4.52-1.06,6.79-.61,3.65-.39,4,2.92,4.91,6.92,2,13.94,3.58,20.9,5.4,2,.53,3,.14,3.09-2.12s.52-4.76.86-7.14a3,3,0,0,0-.8-3c-.46-.42-1.43-.74-.91-1.6.4-.65,1.22-.58,1.92-.49a11.07,11.07,0,0,1,2,.51C148,214,149.67,213.41,150,215.11Z" transform="translate(-62.03 -2.58)"/><path class="cls-6" d="M145.2,125.75l.09,1.92c.57.94.94,1.88-.58,2.21-.43.09-1.05-.3-1.22.35s.42,1,.91,1.37c2.43,1.6,9.49,1.61,11.82,0,1.11-.79,1.61-1.64-.25-2.15-.73-.2-1-.57-.51-1.26a6.87,6.87,0,0,1,.64-3.73c1.63-1.18,3.3-.19,4.93,0a28.49,28.49,0,0,1,7.36,1.3c2.89,1,4.65-.06,6.46-2.2a87.62,87.62,0,0,1,10.71-11.25c.94-.78,1.88-2.31,3.29-1.29s2.39,2.44,1.53,4.38l1,2c2.27,2,2.6,4.91,3.66,7.49,0,.31.05.62.08.93.36,2.8,1.65,5.3,2.84,7.78s.28,3.1-2,3.56c-5.85,1.19-11.66,2.58-17.51,3.79-1.85.38-2.48,1-2,3.08,2.75,13,5.4,25.94,7.51,39,.21,1.28.31,2.57.47,3.86.16.68.35,1.36-.71,1.44a3.27,3.27,0,0,1-.87-2.26c-.16-1.74-.89-3.37-1.09-5.11a47.33,47.33,0,0,0-1.61-8.33,16,16,0,0,1-.31-2.85c-.33-1.87-.75-3.72-1.13-5.58-1.28-6.36-2.47-12.73-3.89-19.06a14.69,14.69,0,0,0-1.82-4.71c-1.13-3-2.21-6-2.13-9.29a2.57,2.57,0,0,0-2.16-2.81,65.83,65.83,0,0,0-10.39-1.59c2.78,4.38,1.61,7-3.43,8.19a17.79,17.79,0,0,1-9.19,0c-2.37-.67-4.79-1.38-5.2-4.26s1.88-3.7,3.76-4.84l.45-.13A4.5,4.5,0,0,1,145.2,125.75Z" transform="translate(-62.03 -2.58)"/><path class="cls-7" d="M106.17,125.85c-10.68-10-20.74-20.52-29.34-32.39-1-1.3-1.75-2.33-3.57-1.9a2.64,2.64,0,0,1-2.51-.72c-2.82-3.13-6.52-5.54-8.11-9.69-1.43-3.72-.34-7,3.23-8.7a18.14,18.14,0,0,0,5.21-3.59c1.39-1.42,2.6-.39,3.65.5,1.75,1.48,3,3.44,6,2.84,1.53-.31,2.83,1.28,2.67,3-.36,4,.49,8.28-1.93,11.93-1,1.5.4,2,1,2.68a199.72,199.72,0,0,0,23.23,22.1c1.52,1.27,2.88,2.75,4.73,3.59a1.2,1.2,0,0,1-.22,2c-1.41-.24-2.15-1.44-3.21-2.18A274.43,274.43,0,0,1,83.11,93.13a33.79,33.79,0,0,1-2.42-2.65c-1.15-1.44-1.6-2.86-.5-4.62,1.92-3.07,1.1-6.6,1.42-9.94a1.49,1.49,0,0,0-1.09-1.61c-1-.26-1.09.63-1.29,1.26-.74,2.27-2.79,3.6-3.93,5.58-1.3.67-2.34,1.75-3.64,2.4-.77.38-1.57,1.45-2.54.26-1.19-1.89-2.81-3.48-3.89-5.45-.24-.43-.51-1.23-1.26-.62-.29.24-.2.73-.18,1.12,1,4.64,4.85,7.12,7.75,10.32a1.42,1.42,0,0,0,1.07.48c3.82-.36,5.33,2.54,7.16,5,7.24,9.71,15.61,18.4,24.19,26.91,1,1,2.37,1.89,2.6,3.53A1.25,1.25,0,0,1,106.17,125.85Z" transform="translate(-62.03 -2.58)"/><path class="cls-6" d="M109.84,117.32c.69-.46.56-1.18.59-1.85,2.29-5.26,2.36-5.33,6.43-1.15,3.62,3.72,7.12,7.56,10.55,11.46.93,1,1.74,1.47,3.06,1.06,4.6-1.45,9.41-1.71,14.14-2.42,0,.42,0,.83.08,1.25l-.23.22c-3.28,1.3-6.83,1.21-10.22,1.92-2.46.52-3.81,1.39-3.9,4.24a22.89,22.89,0,0,1-2.67,9.41,9,9,0,0,0-2,4.52c-1.17,5.81-2.24,11.65-3.53,17.44A8.36,8.36,0,0,1,121,167c-.72.63-1.1.2-1.42-.44,1.63-7.94,3.23-15.88,4.94-23.8.24-1.12-.1-1.37-1-1.59-1.34-.31-2.67-.71-4-1.07-.12-.83.5-1,1.07-1.14a3.75,3.75,0,0,1,1.76.11c2.37.7,3.88-.08,4.44-2.53.25-.75.44-1.52.62-2.3.67-2.94.54-5.5-1.83-7.93-3.45-3.55-6.53-7.48-10.05-11-1.84-1.83-2.24-1.73-3.26.73-1.45,3.48-2.77,7-4.28,10.49-.74,1.83-1.28,3.74-2.14,5.52-1,2.06-.72,3.25,1.8,3.64,1.28.2,2.82.23,3.57,1.7-.51.94-1.26.64-2,.39-7.18-1-7.17-1-4.57-7.53.58-1.45,1.07-2.93,1.6-4.4,0-.33.07-.66.1-1C107.07,122.17,107.36,119.23,109.84,117.32Z" transform="translate(-62.03 -2.58)"/><path class="cls-8" d="M105.62,281.81A39,39,0,0,1,113.1,276c1.07-.7,1.38-1.11,1.09-2.68-.49-2.7-.92-5.63.38-8.36a1.19,1.19,0,0,1,.9.83c-.51,2.55,1.37,3.93,2.8,5.39-.45,1.31-1.72.56-2.31,1.24,2.62,2.91,8.79,4.13,12,2.39,2.16-1.16,3.84-5.24,3.26-7.95a3.36,3.36,0,0,1-.63-1.51.88.88,0,0,1,.79-.8c2.68,1.71,2.47,4,1.34,6.51-.95,2.12-2.48,4.06-2,6.62-.19.4-.39.79-.95.7a5.93,5.93,0,0,0-2.56-.66c-3.29.16-6.56.21-9.75-.9-1.14-.4-2.35.06-3.42.22,4,.48,7.62,2.57,11.31,4.31a7.18,7.18,0,0,0,3.05.91c.87.6,1.33,1.28.41,2.2-3.75,1.87-7.06,4.44-10.66,6.55a29,29,0,0,1-9.19,3.33c-1.79.36-3.59.3-4.82-1.42a1.38,1.38,0,0,1,.1-.85c1.44-.66,2.94,0,4.41-.19,2.5-.36,3-1.39,2-3.69-.93-2.08-3.32-2.86-4.16-5a1.09,1.09,0,0,1,.3-.75c3.67.22,5.29,2.93,6.42,5.79.69,1.72,1.28,1.94,2.76,1.13a56.21,56.21,0,0,0,6.42-3.85c1.88-1.38,1.78-2.22-.29-3.14-1.92-.84-3.86-1.65-5.82-2.39-3.63-1.39-6.56.25-9.34,2.38C106.25,282.79,105.9,282.4,105.62,281.81Z" transform="translate(-62.03 -2.58)"/><path class="cls-9" d="M131.42,264.54l-.61.49a12.79,12.79,0,0,0-2.7,2.33c-3.35,3-7.63,2.34-9.7-1.72-1.28-2.51-2.23.53-3.33,0l-.51-.68a2.63,2.63,0,0,1,2.1-1.94c2.53-.37,2.94-2.09,3.16-4.16.81-7.34,1.68-14.68,2.52-22l3.73-.06a10.18,10.18,0,0,1,6.58,1.13l-.14.84c-2,1.3-4,.21-6-.14s-2.84.16-2.71,2.18c-.86,7.14-1.67,14.29-2.55,21.43-.61,1.9-.73,3.6,1.77,4.16,1.94.43,3.51-.63,4-3,1.6-7,2.61-14.09,4-21.1.25-1.26.37-2.58,1.37-3.56,1-.07,2.07-.37,3,.23-1.32-.06-2.09.24-2.35,1.86-1.08,6.57-2.23,13.13-3.66,19.62C129.07,262.59,129.44,263.78,131.42,264.54Z" transform="translate(-62.03 -2.58)"/><path class="cls-8" d="M105.62,281.81l1.24.59h0l-.1.81a4.19,4.19,0,0,1-.57.68c-4,3.77-4,3.77-1.75,8.3l-.06.68c-1.52.31-2.33-.39-2.56-1.37.15,2.22,1.08,3.23,4.06,3.33,4.71.15,9-1.42,13.12-3.57,3.58-1.87,6.19-5,9.62-7.05.86-.68,0-1.19-.17-1.77.2-1.52,1.09-2.74,1.71-4.08l.6-.69c.8,4.27-.89,7.37-4,10.25-5.9,5.41-12.53,8.89-20.63,8.93-6.12,0-8.4-4.14-5.34-9.45A18.12,18.12,0,0,1,105.62,281.81Z" transform="translate(-62.03 -2.58)"/><path class="cls-8" d="M197.6,281.75a17.6,17.6,0,0,1,5.49,6.59c2.17,4.61,0,8.31-5.07,8.49-8.13.28-15-2.94-20.76-8.44-1.88-1.79-4.5-3.21-4.49-6.39-.26-.54,0-.83.49-1,.91-.06,1.32.53,1.61,1.26-.7,1.2.6,1.22,1,1.76a29.53,29.53,0,0,0,17.43,10.58,10.43,10.43,0,0,0,6.16-.17c1.32-.53,2.86-1.2,1.85-3.19a1.58,1.58,0,0,1-.53-.59c.4-3.36-2-5.06-4.11-6.95a1.73,1.73,0,0,1-.6-1.06,1.39,1.39,0,0,1,.7-1A1.12,1.12,0,0,1,197.6,281.75Z" transform="translate(-62.03 -2.58)"/><path class="cls-8" d="M197.6,281.75l-1,.15a2.82,2.82,0,0,1-1.93-.7c-2.63-2.18-5.5-1.88-8.46-.87-1,.35-2,1-3.16.68a1,1,0,0,1-.68-1c1.42-2.17,3.94-2.1,6-2.95a5.11,5.11,0,0,0-3.75,0,13.21,13.21,0,0,1-5.63.69c-2.81-.32-5,0-5.45,3.44l-.75.78a3.18,3.18,0,0,1-.42-2.87c.91-3.07-.43-5.57-1.73-8.12.18-.24.36-.49.55-.73,1.2.13,1.46,1.2,2,2a7.87,7.87,0,0,0,1.62,2.09c3,2.45,11.27.76,13.17-2.7a2.56,2.56,0,0,1,.6-.63l.61-.65a1.28,1.28,0,0,1,.47,1.58c-2.25,3.12.6,3.85,2.31,5.13C193.88,278.58,196,279.8,197.6,281.75Z" transform="translate(-62.03 -2.58)"/><path class="cls-10" d="M183.78,188.15l.63-1.32c.59,2.21,1.6,4.5-1.51,5.81-.33.14-.35,1-.51,1.56l-.62,1.26c-1-.06-1.64-.91-2.77-.69-3.4.65-3.87,1.45-2.78,5.25a1.32,1.32,0,0,1-.36.75l-.69,0a.85.85,0,0,1-.82,0c-1-1.39-2-2.8-1.61-4.7a1.52,1.52,0,0,0,.74-1.32c2.05-2.16,5.26-2.11,7.49-3.93C182.38,190.43,182.79,189,183.78,188.15Z" transform="translate(-62.03 -2.58)"/><path class="cls-11" d="M119.54,166.54l1,.59a1.09,1.09,0,0,1,.4.83,37.66,37.66,0,0,1-.37,5.2,39.4,39.4,0,0,0-1.58,8.33c-.15,1.12-.47,2.2-.61,3.31-.63,1.84-.1,3.93-1.2,5.68l-1.24-1.1c.53-6.62,2-13.08,3.13-19.61C119.23,168.7,119.38,167.62,119.54,166.54Z" transform="translate(-62.03 -2.58)"/><path class="cls-12" d="M98.45,78.39l.65.55c.06.93-.72,1.35-1.19,2-3.26,4.31-1.25,9.15,4.09,9.82.87.11,1.81,0,2.45.8,0,.24,0,.49,0,.73-4,1.07-7.47-.41-9.15-3.88C93.56,84.67,94.72,80.93,98.45,78.39Z" transform="translate(-62.03 -2.58)"/><path class="cls-13" d="M150,215.11c-.81-.94-2.28,0-3-1a1.84,1.84,0,0,1,1.83-.79,22.38,22.38,0,0,0,8-.42c.75-.15,1.73-.24,2.09.65s-.55,1.19-1.09,1.51c-1.31.77-1,1.93-1.06,3.14-.05,2,1.32,4.07-.14,6-.91.66-.26,1.7-.62,2.49-1-2.22-.92-4.69-.91-6.95C155.09,215.94,153.49,214.72,150,215.11Z" transform="translate(-62.03 -2.58)"/><path class="cls-2" d="M122.42,12.81l.61.6c.22.47,0,.81-.33,1.13-1.68,1-2.88,2.79-4.94,3.24a1.46,1.46,0,0,1-.6-.63c-.2-3.25-.47-6.49.45-9.69l.66-.7c1.37,2.52.52,5.23.63,8.14Z" transform="translate(-62.03 -2.58)"/><path class="cls-6" d="M109.14,137.78c.62-.22,1.41.11,1.86-.61,1.35-.64,2.69-.14,4,0a19.17,19.17,0,0,0,3.44.92c.82.24,1.93,0,2.14,1.27-.46.11-1,.14-1.16.7A67.61,67.61,0,0,1,109.14,137.78Z" transform="translate(-62.03 -2.58)"/><path class="cls-14" d="M232.33,72.23a3.09,3.09,0,0,0,1.48.8c2,.39,2.64,1.49,1.39,3.35-1,1.47-1.78,3.07-2.86,4.45-1.76,2.26-2.56,2-3.59-.77l.06-.4c1-1.84,2.48-3.46,2.56-5.71A2.18,2.18,0,0,1,232.33,72.23Z" transform="translate(-62.03 -2.58)"/><path class="cls-15" d="M223.37,75.79c-.08-3.31,2.46-4.82,4.68-6.31,1.55-1,1.56,1.23,2.44,1.78a1.42,1.42,0,0,1-.5,1.12c-1.26,1.14-1.91,2.75-3.06,4C225.55,77.79,224.24,78,223.37,75.79Z" transform="translate(-62.03 -2.58)"/><path class="cls-16" d="M230,71.63l.46-.37a1.63,1.63,0,0,1,1.84,1L231.7,74c-.17,2.46-1.91,4.13-3,6.12l.06,0a2.16,2.16,0,0,1-2.56-1.18c-.79-1.63.58-2.6,1.29-3.65A33.45,33.45,0,0,1,230,71.63Z" transform="translate(-62.03 -2.58)"/><path class="cls-17" d="M237.7,76.51c.89,2.4-.77,7.2-2.8,8.38-1.86,1.09-2.72-1-4.31-1.22l1.68-1.23c1.58-.29,2.16-1.6,2.88-2.8S236.15,77,237.7,76.51Z" transform="translate(-62.03 -2.58)"/><path class="cls-3" d="M230,71.63c-1.56.67-2.26,2.26-2.94,3.68-1,2-1.88,2.11-3.17.48l-.58.55a2.39,2.39,0,0,1-.44.87c1.3.27,2.24,1.57,3.61,1.67-.15-1.19.53-1.95,1.13-2.81C228.59,74.7,229.91,73.54,230,71.63Z" transform="translate(-62.03 -2.58)"/><path class="cls-18" d="M237.7,76.51A44.56,44.56,0,0,1,235,81c-.6.8-1,2.56-2.75,1.4A36.49,36.49,0,0,0,236,76.92C236.33,76.31,236.74,74.94,237.7,76.51Z" transform="translate(-62.03 -2.58)"/><path class="cls-19" d="M179.46,10.94c3.68,1.4,6.76,3.78,9.83,6.16.83.64,2.24,1.28,1.93,2.39s-1.95.28-3.22,1a36.29,36.29,0,0,1,13.54,16.23,8.42,8.42,0,0,1-8.74-2.83c-1.39-1.55-2.72-3.16-4-4.8-.72-.91-1.42-2.13-2.81-1.86s-1.19,1.68-1.69,2.6c-.93,1.71-.44,4.35-3.17,4.9a.68.68,0,0,1-.52-.49.89.89,0,0,0,.09.56,2.46,2.46,0,0,1,.21,2.22c-2.28,2.09-3.71,2.15-5.89.22a19.25,19.25,0,0,1-3.6-4.72c-.76-1.28-1.4-2.64-2.26-3.86-.45-.63-1-1.4-1.9-1.13s-.73,1.09-.82,1.76c-.2,1.46-.17,3-1.52,4-.57.12-.85-.29-1.18-.63,0,.33.31.49.49.7A3.18,3.18,0,0,1,165.33,36c-1.5,4.54-2.93,4.86-6.39,1.55a68.76,68.76,0,0,1-6.07-7,13.2,13.2,0,0,0-2.27-2.39c-2.24-1.73-4-1.1-4.43,1.75-.29,1.87-.54,3.76-.75,5.64C145,39,143.6,40,140.17,39c-4.25-1.26-8-3.59-11.77-5.87a44,44,0,0,0-3.92-2.71c-3.84-2.46-5.56-2.37-9.09.49-2.76,2.24-4.62,5.18-6.53,8.09a16.91,16.91,0,0,1-5.55,5.73c-1.06.6-2.19,1.57-3.54.49.3-5.53,1.61-10.7,5.33-15A23.75,23.75,0,0,0,109.29,26a9.16,9.16,0,0,1,7.22-3.69c5.37-.2,10.08,1.19,13.72,5.38a8.43,8.43,0,0,0,.85.84c.59.51,1.08,1.41,2,1.16,1-.3,1-1.44,1.09-2.28.29-1.77.55-3.56.9-5.32.63-3.15,1.14-6.74,4.79-7.66,3.42-.86,6.05,1.37,8.4,3.65,1.75,1.69,2.84,3.86,4.31,5.75,1.61,2.09,2.71,2.05,4.1-.16,1.27-2,2.1-4.31,3.51-6.27,2.48-3.46,5.21-3.69,8.15-.55,1.44,1.52,2.71,3.2,4.09,4.79,1.65,1.9,2.47,1.7,3.21-.67.69-2.2.89-4.51,1.57-6.71C177.58,12.9,177.87,11.46,179.46,10.94Z" transform="translate(-62.03 -2.58)"/><path class="cls-19" d="M179.46,10.94c-2,3-2.13,6.58-3,9.92-.33,1.19-.28,2.84-1.78,3.19s-2.18-1.19-3-2.1c-1.35-1.47-2.49-3.11-3.8-4.61-2.62-3-5-2.82-7.14.58-1.22,1.94-2.18,4-3.3,6-1.92,3.4-3.42,3.48-5.59.22-1.94-2.91-3.72-5.95-6.8-7.84-4.53-2.78-7.57-1.54-8.76,3.63-.69,3-1.07,6.06-1.74,9.07-.62,2.82-1.07,3-3,.83-3.62-4-7.64-6.89-13.35-6.95a11,11,0,0,0-8.54,3.5c-1.36,1.39-2.35,3.3-4.49,3.79l3.47-4.13c-2.88.32-5.3.61-7.73.83a26.23,26.23,0,0,1-3.86.15c-.87,0-1.93-.24-2.07-1.33s.7-1.64,1.57-1.93a21.69,21.69,0,0,1,6.38-1.35c2.18-.06,4.37-.39,6.54-.32,2.91.09,3.9-1.22,3.45-3.95a5.26,5.26,0,0,1,.09-1.18c1.77-1.32,3.24-.35,4.7.63l0,0c2.49,0,3.53-2,4.86-3.57l.55-.63C141,.66,162,1.17,179.46,10.94Z" transform="translate(-62.03 -2.58)"/><path class="cls-20" d="M153.73,121.65c-2.16,1-4.42.75-6.68.56-10.43-2.28-20.39-5.71-29-12.25-7.42-5.64-11.52-12.9-10.64-22.48,0-.58-.5-1.38.56-1.72,3.78-1.21,4.32-1.84,3.48-5.62a49.73,49.73,0,0,1-1-13.7c.35-6.29,1.15-12.5,3.55-18.43a7.06,7.06,0,0,1,5.89-4.68C131.48,41.18,142.57,42,153,47.8a56.47,56.47,0,0,1,7.23,5.25c2.44.93,3.82,3.1,5.55,4.82,1.3,1.3-.14,2-1,2.78,5.14-.77,10.23-1.1,15.27.48a5,5,0,0,1,2.85,1.47,4.6,4.6,0,0,1,.44,4.7c-1.13.8-1.81-.24-2.64-.66-3.41-1.7-6.83-3.35-10.63-3.09,1.2.12,2.66-.24,3.9.66.46,1.81-1.32,1.8-2.11,2.6a3.44,3.44,0,0,1-2.79.45c-5.86-1.39-10.24-5.12-14.62-9-6.9-6.07-15.11-8.74-24.27-8.63a90.31,90.31,0,0,0-12,.51,3.48,3.48,0,0,0-3.37,3.12,95.63,95.63,0,0,0-1.8,15.45c-.14,3.69.12,7.4-.06,11.09-.76,14.83,7.18,24.36,19.07,31.47a90.42,90.42,0,0,0,18.64,8.14C151.87,119.81,153.67,119.65,153.73,121.65Z" transform="translate(-62.03 -2.58)"/><path class="cls-19" d="M99.77,45.22c3.87-.44,6-3.18,8.07-6,2.52-3.56,4.6-7.46,8.45-9.88,3.15-2,5.13-2,8.16.24,1.33,1,3.15,1.37,4,3a13.94,13.94,0,0,0,2.9,2.89c1.46.91,1.83,2.3.33,3.67-4.67.79-9.37.23-14.06.35-4.27.12-4.66.5-6.3,4.52-3.13,7.74-3.54,15.73-2.56,23.88.16,1.27-.18,2.6.4,3.83-.28,3.54,1.36,6.84,1.25,10.36,0,1,.24,2.18-.92,2.64-1.31.52-2-.61-2.62-1.47-2.92-3.81-3.56-8.39-4.21-12.92-.25-1.76-.94-3.42-.9-5.23-.83,4.13.06,8,1.24,12-2.08.38-3.07-.39-3.45-2.5-1.45-8.09-2.42-16.13-.16-24.26A24.19,24.19,0,0,0,99.77,45.22Z" transform="translate(-62.03 -2.58)"/><path class="cls-2" d="M165,35.64l-3-4.67a6.08,6.08,0,0,1,2.61,2.27c3.24,1.76,4.57,5.07,6.42,7.95a22.62,22.62,0,0,1,2,4c.51,1.5.93,3,1.53,4.48,1.22,3,5.69,4.35,8.27,2.49a3.91,3.91,0,0,0,1.47-5c-.79-3.6-3.13-6.65-3.61-10.35-.16-.67-.37-1.33-.48-2s0-1,.69-.4c3.37,2.69,4,6.78,5.36,10.48.21,2.13,1.33,3.89,2.3,5.71-.68,2.47-1.46-.07-2.37.08.56,1.8-1,3.5-.18,5.36.51,1.42-.56,1.74-1.49,2.18-4,2-6.8-.32-9.52-2.78-2.44,4.31-4.79,5.37-7.71,3.53a10.93,10.93,0,0,1-2.37-1.77c-1.39-1.52-3.07-2.82-4-4.76-4.74-5-10.71-7.66-17.14-9.59-8.92-2.67-17.81-1.79-26.73,0a3.74,3.74,0,0,0-2.58,2.23,34.17,34.17,0,0,0-4,12.4c-.09.59-.05,1.2-.59,1.61-1.83-2.8-.29-5.65,0-8.42a25.19,25.19,0,0,1,2.81-8.5c.91-1.79,2.18-2.88,4.18-2.87,7.47,0,15-1,22.4.38,9.08,1.64,17.54,4.77,24.21,11.55a21.33,21.33,0,0,0,2.39,2.27c1.52,1.14,3.09,2.57,5.12,1.27s1.31-3.12.81-4.87A51,51,0,0,0,165.93,38,3.52,3.52,0,0,1,165,35.64Z" transform="translate(-62.03 -2.58)"/><path class="cls-19" d="M172.27,49.44c1.22,2.15,1.8,4.37-.5,6.09-2.48,1.86-4.63.25-6.38-1.35-3.17-2.88-6-6.11-9.92-8.1a55.4,55.4,0,0,0-22.34-6.36c-4.38-.24-8.7,0-13,.1-5.76.09-6.8.57-8.3,6-1.16,4.28-2.23,8.66-1.94,13.2q-.33,6.3-.67,12.6c-2.39-8.63-2.56-17.2.59-25.7.3-.84.49-1.71.76-2.57,1.12-3.63,2.66-4.75,6.51-4.76l15,0a5.32,5.32,0,0,1,4.61-.63c7.47,1.66,15.12,2.66,22,6.58a67.68,67.68,0,0,1,7.32,5.15C169,52,169.43,52,172.27,49.44Z" transform="translate(-62.03 -2.58)"/><path class="cls-2" d="M184.31,57.89c-2.06-.17-4.29,1.25-6.17-.69-.76-.78-1.63-1.47-2.44-2.2-1.08-1-1.7-.63-2.18.63-1.56,4-3.29,4.41-7.12,2.17-2.34-1.37-3.14-4.15-5.54-5.35l-.6.6,5.54,5.8c3.81.77,7.61,2.51,11.41-.08a10.58,10.58,0,0,1-1.38-.71,8.21,8.21,0,0,1,1.44.67l.1-.06-.1.06c.26.14.52.28.78.39l.56.22a2.31,2.31,0,0,0,.47.11C181,59.71,183.24,60.65,184.31,57.89Z" transform="translate(-62.03 -2.58)"/><path class="cls-19" d="M177.21,58.77c-3.8,2.59-7.6.85-11.41.08l.06.07c-.59,1-2.57.8-3,2.72,6.68-1,13.25-1.58,19.6,1.06a.5.5,0,0,0,.7-.19c-.37-1.93-2.07-2.21-3.5-2.75l-1.1-.42a3.43,3.43,0,0,1-.56-.22C177.76,59,177.49,58.9,177.21,58.77Z" transform="translate(-62.03 -2.58)"/><path class="cls-21" d="M178.61,59.34l-.56-.22A3.43,3.43,0,0,0,178.61,59.34Z" transform="translate(-62.03 -2.58)"/><path class="cls-22" d="M104.45,91.52c-3,.33-5.8,0-7.69-2.74-2.23-3.32-1.46-6.52,2.34-9.84,3.35-.92,3.35-.92,4.68,1.48-1,.64-2.35,0-3.23.9-.31,1-1.13,1.63-1.32,2.67-.64,3.38.87,4.74,5.74,5.08.42-.14.91-1.12,1.24,0C106.68,90.54,105.49,91,104.45,91.52Z" transform="translate(-62.03 -2.58)"/><path class="cls-23" d="M105,89.07c-2.83,1.19-5,.65-6.1-1.53a4.49,4.49,0,0,1,1.68-6.22,4.41,4.41,0,0,1,2.86.2c-.3,1.16-1.7,1.51-1.74,2.88.1.31.29,0,.48-.14.94-.89,2-2.05,3.29-1s.91,2.49.48,3.89C105.71,87.86,104.69,88.14,105,89.07Z" transform="translate(-62.03 -2.58)"/><path class="cls-19" d="M117.64,17.63l-4.7-.63a24.1,24.1,0,0,1,1.47-9.22c1-2.63,1.91-2.39,3.2-.32C118.37,10.85,117.44,14.24,117.64,17.63Z" transform="translate(-62.03 -2.58)"/><path class="cls-24" d="M182.51,62.7l.6,0a4.77,4.77,0,0,1,3.46,1.43c.12-.91,0-2,1.16-2.26s2,.67,2.58,1.59a8,8,0,0,1,.48,1.17,197.18,197.18,0,0,1,1.37,25.72A22.28,22.28,0,0,1,185.73,106c-8.82,8.91-19.91,13.35-32,15.66-4.45-2.45-9.49-3.41-14.1-5.5-8.18-3.71-15.76-8.3-21.32-15.46a27.08,27.08,0,0,1-6.07-16.54c-.07-10-.32-19.91,1.55-29.81.66-3.5,1.78-4.91,5.57-5.14,7.79-.46,15.48-.92,23.09,1.41a35.88,35.88,0,0,1,14.73,8.86A23.9,23.9,0,0,0,168.05,66a4.89,4.89,0,0,1,1.24.79,2.49,2.49,0,0,1-1.66,1.11A10.69,10.69,0,0,0,160.75,75c-.71,2.09-1.25,4.19-.58,6.39a14.23,14.23,0,0,1-.28,3.51c-.07,1.34,0,2.59,1.58,3.09a33,33,0,0,0,10.31-.09c2.55-.47,5.15.07,7.68-.45a26.56,26.56,0,0,0,2.64-.61c1.81-.56,2.4-2.11,3-3.66a15.66,15.66,0,0,0,0-10.25c.4-2.3-1.91-3.41-2.35-5.34C183.53,65.9,182.89,64.31,182.51,62.7Z" transform="translate(-62.03 -2.58)"/><path class="cls-25" d="M195,124.81c-2.21-2-2.22-5.1-3.66-7.49.18-1.42,1.34-1.91,2.37-2.55a1.38,1.38,0,0,1,.79.39c2.4,2.71,2.32,2.65,4.67,0,4.07-4.68,8.72-8.8,12.8-13.49,3-3.38,6.06-6.64,8.93-10.11a3.86,3.86,0,0,1,2.35-1.73c1.78.9,1.11,1.95.26,3.11a162.9,162.9,0,0,1-13.73,16.61C204.92,114.66,199.94,119.71,195,124.81Z" transform="translate(-62.03 -2.58)"/><path class="cls-26" d="M220.13,89.55c-1.52,2-3.3,3.76-5,5.58-6.64,7.09-14.14,13.25-21.41,19.64a19.31,19.31,0,0,1,1.28,2.36c.77,2.06,1.72,2.1,3.06.47,1.19-1.46,2.42-2.9,3.74-4.24,7.48-7.56,14.76-15.3,21.46-23.57C222.35,87.9,221.46,87.82,220.13,89.55Z" transform="translate(-62.03 -2.58)"/><path class="cls-27" d="M155.46,128.14c.06.75-.08,1,.76.26.65-.56,1.54.55,2,1.3s-.15,1.5-.74,2c-2.68,2.37-11.77,2.36-14.52.05-.91-.77-1.26-1.69-.43-2.52.45-.44,1.32-2.58,2.22-.15.1.29.31.22.55-1.44a3.91,3.91,0,0,1,.44-.26,17.32,17.32,0,0,1,9.09-2.25C155.25,126.11,154.71,127.26,155.46,128.14Z" transform="translate(-62.03 -2.58)"/><path class="cls-28" d="M194.54,81.28c-.83,0-1.29-.2-1.17-1.18a1.71,1.71,0,0,1,1.46-1.65,6.67,6.67,0,0,1,6.79,2.84,6.66,6.66,0,0,1-7.47,10.09c-1.31-.35-1.44-1.28.08-1.83a3.79,3.79,0,0,1,2-.66,3.61,3.61,0,0,0,3.13-3.77c0-2-1.1-3.07-3.14-3.18A2.89,2.89,0,0,1,194.54,81.28Z" transform="translate(-62.03 -2.58)"/><path class="cls-19" d="M194.48,62.65c2.21.66,2.66,1.86,2,4.17-1,3.4-.94,7.06-2.76,11-2-5.34-1.1-10.46-2.2-15.26A2.13,2.13,0,0,1,194.48,62.65Z" transform="translate(-62.03 -2.58)"/><path class="cls-29" d="M194.54,81.28c1.75.25,4-.92,5.06,1.37a4.89,4.89,0,0,1-.36,5.31,4.44,4.44,0,0,1-5,1.58,3.94,3.94,0,0,1-.94-3.29c.14-1-.52-2.37.44-3,1.2-.83,1.85.93,3,1.28C196.54,82.9,195,82.5,194.54,81.28Z" transform="translate(-62.03 -2.58)"/><path class="cls-30" d="M154.82,125.16a33.1,33.1,0,0,1-9.09,2.25c0-4,0-4,4.07-4a11.65,11.65,0,0,0,3.24-.27C155.29,122.47,155.05,123.77,154.82,125.16Z" transform="translate(-62.03 -2.58)"/><path class="cls-19" d="M194.48,62.65l-3-.06c-1.38.26-.2,1.45-.73,2l-.58-.72a7.06,7.06,0,0,1-.51-5.44l3-1.8,4.13,3.66C196,61,195.65,62.26,194.48,62.65Z" transform="translate(-62.03 -2.58)"/><path class="cls-31" d="M174.63,200.57l.54.23a9.06,9.06,0,0,0,6.84,6.38c1.65.35,1.8,1.21,2,2.34.47,2.9.87,5.82,1.3,8.74-.42,1.09-1.45,1.27-2.4,1.57A85.33,85.33,0,0,1,168.58,223c-4.54.63-6.54-1.1-6.72-5.72a42.65,42.65,0,0,0-.57-8,5,5,0,0,0-3.84-4.11,22.82,22.82,0,0,0-12.13.55c-2,.57-3,2.22-3.78,4a27.28,27.28,0,0,0-2.09,10.21c-.08,3.63-.8,4.32-4.35,3.83-6-.84-11.58-3-17.23-5a2.07,2.07,0,0,1-1.58-1.63c.66-4.33,1.33-8.64,1.95-13,.12-.84.22-1.43,1.25-1.69,2.05-.5,3.71-1.82,5.44-3a5.34,5.34,0,0,1,3.53,0,115.93,115.93,0,0,0,42.06.7A6.8,6.8,0,0,1,174.63,200.57Z" transform="translate(-62.03 -2.58)"/><path class="cls-32" d="M116.29,217.11a87.06,87.06,0,0,0,20,6c1.8.31,2.32-.32,2.28-2A29.22,29.22,0,0,1,140.48,210c1.27-3.33,3.33-5.41,7.23-5.74,3.4-.29,6.73-.71,10.1.12a5.34,5.34,0,0,1,4.36,4.7,55.89,55.89,0,0,1,.49,8.37c.1,4.31,1.52,5.55,5.8,4.87a104.58,104.58,0,0,0,16.83-4c1.17,2.73,0,3.65-2.68,4.26-7.39,1.68-14.69,3.7-22,5.6-3.45.89-3.45.91-3.86-2.71,0-.4-.08-.8-.12-1.2-.21-1.67-.36-3.34-.63-5-.41-2.55-1.23-5.24,3-5.68a40,40,0,0,1-12,.55l-3.46-.7c2.8.9,2.33,2.91,2,5-.44,2.74-.72,5.52-1,8.3-.15,1.67-.72,2.15-2.46,1.69q-12.09-3.21-24.25-6.19C114.26,221.34,116.15,219,116.29,217.11Z" transform="translate(-62.03 -2.58)"/><path class="cls-33" d="M188.65,226c.07.07.17.14.19.23,1.46,6.17,1.46,6.16-4.65,8.23a84.87,84.87,0,0,1-21.43,3.84c-4.94.36-4.94.41-5.83-4.51a4.39,4.39,0,0,1,3-1.21C169.63,231.05,179.29,229.2,188.65,226Z" transform="translate(-62.03 -2.58)"/><path class="cls-34" d="M188.65,226c-.28,1.06-1.23,1.21-2.06,1.48-9.66,3.17-19.62,4.92-29.66,6.31-1.15-2.68-.24-3.75,2.63-4.41,8.29-1.91,16.49-4.2,24.73-6.33C187.9,222.16,187.91,222.18,188.65,226Z" transform="translate(-62.03 -2.58)"/><path class="cls-25" d="M183,263.79c.77,2.5-.89,3.24-2.77,3.61a3.92,3.92,0,0,1-4.78-3.35c-1.29-6.66-2.56-13.32-3.73-20-.9-5.12-.83-5.13,4.21-6.19a5.08,5.08,0,0,0,.86-.28c2.82-1.09,3.78,0,3.34,2.8a1.22,1.22,0,0,1-.35.48c-4.16,2.78-4.16,2.78-3.15,7.89.72,3.62,1.61,7.21,2.18,10.84C179.22,262.26,180.1,263.87,183,263.79Z" transform="translate(-62.03 -2.58)"/><path class="cls-35" d="M183,263.79c-3.53,1.25-4.11.83-4.73-2.68-.92-5.16-1.75-10.35-3.11-15.4-.8-2.92.21-4,2.69-4.67.77-.2,1.52-.43,2.28-.66.78,5.92,1.58,11.84,2.33,17.76C182.69,260,182.82,261.91,183,263.79Z" transform="translate(-62.03 -2.58)"/><path class="cls-36" d="M188.53,271.05l-.12.72c-2.75,3.29-6,3.61-8.88.84-1.08-1-2.55-1-3.81-1.52-3.13-1.27-4.09-2.66-3.61-5.45,1-.62,1.79-2.3,2.84.31.85,2.13,3.19,2.92,5.56,2.5,2.67-.47,3.7-1.88,3.94-5,4.51,1,5.33,3.81,2.15,7.57Z" transform="translate(-62.03 -2.58)"/><path class="cls-37" d="M172.11,265.64c.16,3.86,3.08,4.69,6,5.34,1.31.29,2.53.33,2.69,2.1.12,1.41,1.32,1,2.08.8a16.47,16.47,0,0,0,5.49-2.11,1.74,1.74,0,0,1-.63,1.87c-2.52,2-5.63,2.24-8.64,2.59-3.61.41-5.06-.65-7-4.49a12.92,12.92,0,0,0-1-1.46C171,268.63,170.33,266.89,172.11,265.64Z" transform="translate(-62.03 -2.58)"/><path class="cls-38" d="M176,200.2c-2.23-4.46-2.2-4.38,2.86-6.18,1.72-.61,2.53-.2,3,1.44.16,1.19.33,2.38.49,3.56A6.38,6.38,0,0,1,176,200.2Z" transform="translate(-62.03 -2.58)"/><path class="cls-39" d="M176,200.2l6.3-1.18c.3,1.84.49,3.71.91,5.52.48,2.08-.69,1.94-1.9,1.47-2.53-1-4-3.11-5.41-5.24A5.67,5.67,0,0,1,176,200.2Z" transform="translate(-62.03 -2.58)"/><path class="cls-19" d="M185.58,45.17a47,47,0,0,0-4.78-10.75c2.55-.65,1.85-3.21,2.78-4.81.7-1.21.29-3.22,2.21-3.51,1.76-.27,2.55,1.36,3.52,2.42,1.39,1.54,2.66,3.2,3.92,4.86,2.11,2.79,5.34,2.77,8.31,3.37.87,1.41,1.89,2.79.82,4.87-1.42-1.63-2.38-4.79-5.1-1.68-.34.39-.76-.36-1-.75a22,22,0,0,0-2.56-3.26c.46,2.6,2.54,4.52,3.06,7.46-1.82-.63-3.05-2.76-5-1.14-1.59,1.33-.17,2.76-.19,4.15-1,2.29-2.68,1.31-4.16.69C186.6,46.75,186.17,45.84,185.58,45.17Z" transform="translate(-62.03 -2.58)"/><path class="cls-20" d="M189.7,58.45c.8,1.75.54,3.6.51,5.44-1.17-.53-2.62-3.58-3.41.39a6.1,6.1,0,0,1-3.69-1.6c-1.67-2.29-4.34-2.69-6.77-3.28-2.15-.53-2.67-1.29-1.35-3.23,2.83,1.84,5.52,5,9.31,1.72a3,3,0,0,0,1.61-1.84l1.16-1.8Z" transform="translate(-62.03 -2.58)"/><path class="cls-19" d="M185.58,45.17c1.95.65,3.5,3.29,6,1.23a15.82,15.82,0,0,1,2.26,4.83c-2-.77-3.61-2.07-5.38-.62C186.14,49.52,185.93,47.31,185.58,45.17Z" transform="translate(-62.03 -2.58)"/><path class="cls-40" d="M117.16,190.48a10.88,10.88,0,0,1,.54-5.87c1.33-.94,2.63-.09,3.94,0,13.16,3,26.52,3.68,39.94,3.15a78.12,78.12,0,0,0,16.26-2.56c1.91-.07,3.94-1.77,5.7.38l.24,2.53c.46,2-.63,2.81-2.44,3-5.57,2.75-11.68,3.13-17.69,3.83-11.17,1.3-22.27.37-33.33-1.25a51.61,51.61,0,0,1-12.69-3.2l-.23-.08Z" transform="translate(-62.03 -2.58)"/><path class="cls-41" d="M174.63,200.57a128.9,128.9,0,0,1-29.41,1.92,100.13,100.13,0,0,1-20.29-3c1.55-3.38,4-3.73,7.44-2.89a76.07,76.07,0,0,0,39.48-.51,3.78,3.78,0,0,1,.89,0Z" transform="translate(-62.03 -2.58)"/><path class="cls-42" d="M132.66,237.89c-2.3.21-4.42-.58-6.58-1.13-3.85-1.26-7.84-2-11.6-3.61s-3.78-1.5-2.54-5.22c.22-.64.55-1.25.82-1.88a4.93,4.93,0,0,1,3.21.33c8.82,3.22,17.74,6.06,27.09,7.3a2.23,2.23,0,0,1,1.56.8c-.3,4.1-.3,4.08-4.31,3.81C137.76,238.12,135.21,238,132.66,237.89Z" transform="translate(-62.03 -2.58)"/><path class="cls-43" d="M144.62,234.48c-9.88-.51-19-4-28.25-7.06-1.22-.4-2.41-.91-3.61-1.37.83-3.9.84-3.91,4.43-3l24.51,6.34C145.72,230.44,145.72,230.45,144.62,234.48Z" transform="translate(-62.03 -2.58)"/><path class="cls-44" d="M117.63,190.54c6.4.93,12.7,2.38,19.15,3.13a128.43,128.43,0,0,0,44.56-2.5c-2.11,2.31-5.2,2.49-7.86,3.59-8.55,2-17.17,3.56-26,2.93-9.67-.68-19.16-2.33-28.21-6A2.78,2.78,0,0,1,117.63,190.54Z" transform="translate(-62.03 -2.58)"/><path class="cls-45" d="M119.38,198.26c0-.1,0-.2,0-.3.24-1.49-.24-3.81,1.24-4.16s3.33.79,5,1.32c.84.27.63.82.25,1.36a10.39,10.39,0,0,1-2.77,3C121.8,199.25,120.34,199.51,119.38,198.26Z" transform="translate(-62.03 -2.58)"/><path class="cls-46" d="M119.38,198.26c1.34.09,2.69.16,3.71,1.21a10.79,10.79,0,0,1-1.16.85c-.91.47-2,1.55-2.82.88S119,199.23,119.38,198.26Z" transform="translate(-62.03 -2.58)"/><path class="cls-47" d="M127.21,141.32c1-3.92,2.82-7.65,2.44-11.84-.1-1.21.74-1.54,1.62-1.75,4.34-1,8.68-2,13.19-1.84-.08,1.31-1.39,1.26-2.11,1.87-2,1.68-1.91,3.71.27,5.19,3.35,2.28,11.67,2.29,15,0,2.45-1.66,2.52-3.39.17-5.24-.53-.43-1.29-.59-1.5-1.57,1-.78,2.24-.39,3.34-.26,2,.24,3.93.67,5.9,1,5.6.9,5.49.91,6.18,6.24a54.88,54.88,0,0,0,1.77,7c.75,1.74-.39,2.86-1.38,3.95a11.91,11.91,0,0,0-2.85,12.44c1,3.19,2.37,6.26,2.88,9.6-4.35,1.84-9,1.59-13.56,1.87a130.94,130.94,0,0,1-27.17-1.66,4.75,4.75,0,0,1-3-1.13,2.87,2.87,0,0,1-.22-2.83,26.25,26.25,0,0,0-.46-17.51A7.34,7.34,0,0,1,127.21,141.32Z" transform="translate(-62.03 -2.58)"/><path class="cls-48" d="M118.25,181.51a21.35,21.35,0,0,1,1.65-8.42c2.08-.69,4,.38,6,.51,16,2.78,32.05,3.42,48.08,0,2.27-.28,4.4-1.43,6.78-1.1a24.18,24.18,0,0,1,1.64,8.45c-1.31,1.57-3.28,1.57-5,2.1a116.91,116.91,0,0,1-36.64,2.6A125.24,125.24,0,0,1,122,183.07,5.64,5.64,0,0,1,118.25,181.51Z" transform="translate(-62.03 -2.58)"/><path class="cls-34" d="M128.41,164.71a120,120,0,0,0,32.75,2.14c3.75-.26,7.57-.28,11.23-1.44,2.19-1.17,4.41-2.21,7-1.29l1.11,5.39c-2.13,2-5,1.71-7.55,2.53a136.17,136.17,0,0,1-46.57-1,14.43,14.43,0,0,1-4-.86c-1-.36-2.08-.77-1.92-2.2l.08-.83.83-3.58C123.93,162.57,126.2,163.48,128.41,164.71Z" transform="translate(-62.03 -2.58)"/><path class="cls-49" d="M173.45,135.32c-1.17-3.63-1-6.86,1.87-9.87,3.7-3.89,7.23-8,11.06-11.73,1.33-1.31,2-1.24,2.63.51,1.4,3.82,2.89,7.62,4.34,11.42.9,2-.09,3.23-1.81,4-5,2.31-10,4.75-15.14,6.84C174.91,137.11,174,136.9,173.45,135.32Z" transform="translate(-62.03 -2.58)"/><path class="cls-50" d="M179.38,164.12l-7,1.29c-2.44-.5-2-2.82-2.44-4.32-1.14-3.68-2.94-7.3-1.93-11.42a13.21,13.21,0,0,1,3.26-5.83c1-1.12,2.05-2.16,2.22-3.75,2.26,2.18,2.17,5.25,2.79,8C177.51,153.37,178.37,158.76,179.38,164.12Z" transform="translate(-62.03 -2.58)"/><path class="cls-51" d="M173.45,135.32c.63.32.86,1.35,2,.84,5.47-2.55,11-5,16.47-7.53,1.3-.59,1.51-1.72,1.46-3,1.18,2.83,2.33,5.66,3.54,8.47.53,1.22-.08,1.56-1.12,1.8-6.19,1.37-12.35,2.9-18.57,4.11C173.41,140.76,174.26,137.26,173.45,135.32Z" transform="translate(-62.03 -2.58)"/><path class="cls-52" d="M173.44,171.23l7.05-1.72c.09,1,.18,2,.28,3a19.67,19.67,0,0,1-6.1,1.75C173.42,173.59,172.66,172.73,173.44,171.23Z" transform="translate(-62.03 -2.58)"/><path class="cls-53" d="M177.7,182.27l4.71-1.31c.38,1.55.75,3.11,1.13,4.67-1.8-1.44-3.47.63-5.23.19C177.4,184.76,176.9,183.63,177.7,182.27Z" transform="translate(-62.03 -2.58)"/><path class="cls-54" d="M109.84,117.32c-1.46,2.39-1.62,5.39-3.57,7.55-9.67-9.68-19.34-19.36-27.53-30.39-1.48-2-2.4-5.1-6-3.91A1.62,1.62,0,0,1,71.34,90c-2.93-3.59-7.5-6-8.25-11.15,1.54-1.05,2.36.09,3.06,1.13a16,16,0,0,0,3.3,3.66,5.31,5.31,0,0,0,3.85-2A1.08,1.08,0,0,1,75,81.3l.21.35a3.68,3.68,0,0,1,0,.81c2.63,2.58,3.21,6.33,5.28,9.22,3.14,4.38,7,8.19,10.63,12.11s7.16,8,11,11.78c2.27,2.22,2.25,2.24,4.32-.11a1.74,1.74,0,0,1,1-.62C108.41,115.53,109.67,115.91,109.84,117.32Z" transform="translate(-62.03 -2.58)"/><path class="cls-55" d="M107.49,114.84c-2.5,4.51-2.59,4.59-6.15.81-7.54-8-15.27-15.9-22.22-24.48-.64-.8-1.32-1.53-1.14-2.63.33-1.91-.58-2.92-2.26-3.65-1.4-.61-1.88-1.71-.73-3.07,2.68-.08,2.91-.23,4.49-2.72-1.07.8-1.51,3.8-4.5,2.14l0,.06a5.69,5.69,0,0,1,2.44-3.87,2.41,2.41,0,0,0,1.24-2.24c0-1-.22-2.15,1.24-2.23a2.12,2.12,0,0,1,2.44,2.1c-.25,3.63.79,7.64-1.41,10.75-1.49,2.11-.74,3,.5,4.43a226.27,226.27,0,0,0,23.82,22.62C106,113.49,106.75,114.18,107.49,114.84Z" transform="translate(-62.03 -2.58)"/><path class="cls-56" d="M72,79.43c.2,1.1.48,2.35-.88,2.8-1.17.4-1.79-.76-2.34-1.5-1-1.44-1.9-3-2.86-4.53-.52-.82-.87-1.7-.13-2.46a1.81,1.81,0,0,1,2.66-.24l.35.22A61.7,61.7,0,0,1,71.92,79C71.93,79.16,72,79.3,72,79.43Z" transform="translate(-62.03 -2.58)"/><path class="cls-57" d="M75,77.1c-.39-2.07-1.89-3.46-3.11-5-.61-.78-1.1-1.41-.3-2.3s1.67-.41,2.33.2a21,21,0,0,1,3.12,3.21c1.52,2.1.73,3.44-2.09,3.85Z" transform="translate(-62.03 -2.58)"/><path class="cls-16" d="M68.41,73.5a1.81,1.81,0,0,1,1.22-2.11c1.19-.33,1.35.83,1.84,1.5,1.07,1.5,1.83,3.27,3.56,4.21l0,0c0,2.13-.19,3.91-3,2.38l.05.07c-1.32-2-2.18-4.19-3.65-6.06Z" transform="translate(-62.03 -2.58)"/><path class="cls-58" d="M69.45,83.66c-1.71.19-2.34-1.06-3.17-2.21s-1.21-2.88-3.19-2.58c-.25-1.11-.41-2.45.77-2.86s1.45,1.09,1.82,1.86C66.69,80,68.72,81.39,69.45,83.66Z" transform="translate(-62.03 -2.58)"/><path class="cls-59" d="M118.22,138.83a5.22,5.22,0,0,1-3-1.12c-3.46-1.46-2.48-2.34,0-5.58a54,54,0,0,1-6.5-3c-1.11-.62-2.12-1.27-1.26-2.78,1.56-4,3.16-8,4.67-12,.57-1.52,1-2.31,2.57-.77a132.61,132.61,0,0,1,12.88,14.16c2,2.69.87,5.88-.29,8.79-2.25.94-3.75-1.41-6-1.25C121.07,137,120.31,138.53,118.22,138.83Z" transform="translate(-62.03 -2.58)"/><path class="cls-60" d="M128.41,164.71l-7.06-1.16c1.19-6.13,2.35-12.27,3.62-18.38.31-1.47.25-3.3,2.24-3.85,3.18,7,4.46,14.19,1.54,21.66A10,10,0,0,0,128.41,164.71Z" transform="translate(-62.03 -2.58)"/><path class="cls-61" d="M107.43,126.34c-.09,1,.33,1.52,1.35,2,2.62,1.13,5.15,2.5,7.75,3.78-.62,1.76-5.35,2.66-1.34,5.63a8.23,8.23,0,0,1-4.19-.54c-7.36-1.52-7.37-1.52-4.66-8.48C106.65,127.89,107.07,127.12,107.43,126.34Z" transform="translate(-62.03 -2.58)"/><path class="cls-62" d="M118.22,138.83c1.6-1.15,3-2.4,1.94-4.68,2.58.29,4.71,1.73,7.1,2.4-.74,4.06-.9,4.13-6.65,2.83C119.93,138.65,119,139,118.22,138.83Z" transform="translate(-62.03 -2.58)"/><path class="cls-63" d="M106.86,282.4c3-3.91,5.8-4.71,10.41-2.89,2.11.83,4.12,1.89,6.3,2.63s1.65,2.2.14,3.29a45.55,45.55,0,0,1-10.59,6c-.12-4.48-2.55-7.22-6.27-9Z" transform="translate(-62.03 -2.58)"/><path class="cls-36" d="M115.08,265.63a5.2,5.2,0,0,1,3.92-2.32c-.67,3.14,1.17,4.59,3.74,5.07s4.89-.35,5.92-3.15c.6-1.62,1.44-.05,2.15-.2l.77,1.18c0,3.12-2.37,4.12-4.72,5-1.58.6-3.11,1-4.19,2.57s-2.71.69-4.13.36a5.88,5.88,0,0,1-3.69-2.31c.71-2.09,2,.57,2.85-.54C115.6,270.08,114,268.43,115.08,265.63Z" transform="translate(-62.03 -2.58)"/><path class="cls-64" d="M104.43,292.19c-1.31-1-3.26-2.16-2.65-3.79.84-2.23,2.25-4.49,5-5.19,2,1.59,4.24,2.84,5,5.57s.28,3.53-2.63,3.83A10.22,10.22,0,0,1,104.43,292.19Z" transform="translate(-62.03 -2.58)"/><path class="cls-65" d="M114.85,271.83c1.37.55,2.7,1.21,4.11,1.62s3.27,1.57,3.73-1.35c.14-.85,1.39-.94,2.28-1.08,3-.48,5.4-1.85,6.61-4.81,1.33,2.3-.19,7.38-2.69,9s-11.1.76-13.27-1.58A2.07,2.07,0,0,1,114.85,271.83Z" transform="translate(-62.03 -2.58)"/><path class="cls-66" d="M128.61,284.21c-5.09,5.6-11.05,9.73-18.65,11.16a16.7,16.7,0,0,1-5.08.19c-3.16-.37-4.17-1.71-4-5.27,1.36.72,2,2.33,3.5,2.58,3.64,1.84,7,.32,10.3-1,4.46-1.81,8.25-4.8,12.31-7.31C127.4,284.29,127.85,283.22,128.61,284.21Z" transform="translate(-62.03 -2.58)"/><path class="cls-67" d="M130.15,278.36c.07,1.63-.21,3.11-1.71,4.08-1.91,2-2.53-.63-3.79-1-3.84-1.06-7.15-3.54-11.29-4,1.23-1.85,2.8-2.06,4.65-1.39a16.87,16.87,0,0,0,10.26.71C130,276.33,129.57,277.81,130.15,278.36Z" transform="translate(-62.03 -2.58)"/><path class="cls-25" d="M123.13,240.38c-.34-2.72.69-3.44,3.34-2.63a40.3,40.3,0,0,0,6.06,1l.09-.11-.11.1q-2.31,12.6-4.64,25.2c-.48,2.59-2.42,4-4.9,3.46-2.71-.58-3.57-2.23-2.51-4.83,2.94,1.09,3,1,3.8-2,1.13-4.56,1.79-9.22,2.92-13.76.67-2.72.13-4.47-2.63-5.34A3.37,3.37,0,0,1,123.13,240.38Z" transform="translate(-62.03 -2.58)"/><path class="cls-55" d="M123.13,240.38c5.22,1.14,5.66,1.71,4.69,6.87s-2,10.06-3,15.08c-.2,1-.44,2-1.74,2.08a2.11,2.11,0,0,1-2.57-1.86Z" transform="translate(-62.03 -2.58)"/><path class="cls-68" d="M183.15,280.68c.82-.33,1.64-.64,2.45-1,4.19-1.86,7.85-1.17,11,2.22-.08.2-.16.4-.25.6-2.1,2.57-4.94,4.59-5.6,8.23-.23,1.29-1.59,1-2.52.63a37.47,37.47,0,0,1-9.44-5.68c-1.56-1.26-1.16-3.09.65-4.14C180.57,280.87,181.9,280.94,183.15,280.68Z" transform="translate(-62.03 -2.58)"/><path class="cls-69" d="M196.9,283.05c1.84.87,2.82,2.61,4.09,4.05s.5,2.5-.25,3.68c-1.69,2.62-6.69,3.62-8.91,1.8a2.92,2.92,0,0,1-.77-3.29A8.08,8.08,0,0,1,196.9,283.05Z" transform="translate(-62.03 -2.58)"/><path class="cls-70" d="M173.52,281.22c0-.9-.1-1.8-.1-2.69,0-1.49.38-2,2.14-1.61a16.49,16.49,0,0,0,9.44-.73c1.83-.69,3.5-.76,4.93,1.17-2.61.74-5.21,1.28-7.41,2.82-1.52,1.47-3.89,1.46-5.3,3.35-.72,1-1.91-.15-2.57-1.06Z" transform="translate(-62.03 -2.58)"/><path class="cls-71" d="M201.52,290.84c.39-.36.89-.73,1.09.06a3.27,3.27,0,0,1-1.64,3.8,5.81,5.81,0,0,1-3.12.92,27.62,27.62,0,0,1-22.6-11.5c1.22-.56,2,.2,2.89.86a48.49,48.49,0,0,0,13.42,7.45C195.21,293.67,198.55,293.57,201.52,290.84Z" transform="translate(-62.03 -2.58)"/><path class="cls-8" d="M201.52,290.84c-2.65,3.75-6.31,3.12-9.9,2.11-4.44-1.25-8.27-3.75-12.05-6.32-1.38-.93-2.64-2.09-4.32-2.51-.51-.44-1.38-.75-.6-1.65,1.29.5,2.32,1.32,3.56-.58.7-1.06,2.82-1.17,4.31-1.71l.63.5a5.3,5.3,0,0,1-3,1.29,1.9,1.9,0,0,0-1.76,1.4c-.22.9.32,1.47,1,2a45.13,45.13,0,0,0,10.6,5.93,10.11,10.11,0,0,1,6.26-8.76l.58.55c-1.68,1.35-3.82,2.28-4.72,4.39-1.35,3.16-1.53,5.15,2.81,5.25a7.75,7.75,0,0,0,5.75-1.91Z" transform="translate(-62.03 -2.58)"/><path class="cls-72" d="M120.44,168c1.21,2.38,3.82,1.29,5.59,2.26,1.46,1.6.58,2.86-.6,4.07a16.66,16.66,0,0,1-5.53-1.2C120.18,171.39,119.78,169.62,120.44,168Z" transform="translate(-62.03 -2.58)"/><path class="cls-73" d="M118.25,181.51l3.59.75c1.76,1.52,1.45,2.5-.78,3l-3.36-.63C117.88,183.57,118.06,182.54,118.25,181.51Z" transform="translate(-62.03 -2.58)"/><path class="cls-19" d="M122.48,14c-1.19,3.38-2.41,4.28-4.86,3.57Z" transform="translate(-62.03 -2.58)"/><path class="cls-74" d="M228.69,80.1c.48-2.3,2.08-4,3-6.12,1,0,.77.75.49,1.21C231.13,76.9,230.58,79,228.69,80.1Z" transform="translate(-62.03 -2.58)"/><path class="cls-19" d="M172.27,49.44c-1.2,3.53-3,4.12-5.88,1.56a45.66,45.66,0,0,0-19.95-10.22c-4.73-1.11-9.44-2.55-14.4-2.17,0-1,.24-2.63-1-2.72-2.41-.17-2.35-1.76-2.54-3.36,3,1.55,6,3.16,9,4.65a16.83,16.83,0,0,0,3.92,1.4c1.95.41,3.29-.12,3.32-2.54a62.2,62.2,0,0,1,.59-6.23c.18-1.55.74-3,2.27-3.62s2.75.35,3.69,1.4c2.65,3,5.14,6.09,7.84,9,3.52,3.8,3.94,3.68,5.87-1A39.25,39.25,0,0,1,172.27,49.44Z" transform="translate(-62.03 -2.58)"/><path class="cls-19" d="M172.31,45.23a55,55,0,0,0-7.76-12c1.16-1.54,1-3.37,1.17-5.13a2,2,0,0,1,1.17-1.94c.93-.32,1.49.38,2,1,1.51,1.63,2.25,3.73,3.44,5.56.86,1.34,1.87,2.59,2.85,3.84,1.67,2.13,3.49,2,5.39.3A38.43,38.43,0,0,1,184.82,47c-.75,3.37-2,4.23-5.18,3.37A11.88,11.88,0,0,1,172.31,45.23Z" transform="translate(-62.03 -2.58)"/><path class="cls-75" d="M160.23,74.64c1.31-4.59,4.47-7.06,9.06-7.89a3.84,3.84,0,0,0,2.41-.53c2.05-.64,4.1-1.34,6,.43.48,1.9-.68,2.48-2.21,2.77-3.67.25-7.53-.58-10.85,1.8-1.65,1-2.42,2.86-3.76,4.18C160.36,75.38,160,75.27,160.23,74.64Z" transform="translate(-62.03 -2.58)"/><path class="cls-76" d="M182.77,67.57c.58,1.75,3.84,1.94,2.74,4.68-2.19-.47-3-2.54-4.51-3.83-.78-1.72-2.48-2.08-4-2.72-1-.41-2.14-.38-3-1.2-1.73-.84-3.7-.3-6.22-1.06C173.87,62.92,178.85,63.41,182.77,67.57Z" transform="translate(-62.03 -2.58)"/><path class="cls-77" d="M174,64.5a12.24,12.24,0,0,1,7.72,3.1.27.27,0,0,1,0,.26,3.39,3.39,0,0,1-.42.33,3.7,3.7,0,0,1-3.67-1.25c-1.9-1-4-.48-6-.72Z" transform="translate(-62.03 -2.58)"/><path class="cls-19" d="M172.31,45.23c1.76,1.25,3.47,2.59,5.3,3.74,3.08,1.93,5.07,1.35,7.21-1.94,1.22,2.07.45,3.75-1,5.29-2,2-4.37,1.58-6.63.94C173.13,52.12,173.38,48.24,172.31,45.23Z" transform="translate(-62.03 -2.58)"/><path class="cls-78" d="M160.74,75.21a7.83,7.83,0,0,1,3-4.2,15.06,15.06,0,0,1,8.76-1.31c9.29.89,12.16,7.9,11.26,15.55a2.88,2.88,0,0,1-1.2,2c-.66,1-1.72.43-2.57.69-6.37.14-12.73,1-19.13.63-1.26,0-2-.54-1.86-1.95.19-1.82.34-3.65.5-5.47-.14-1.23-.64-2.49.35-3.6,1.17.31,1,1.35,1.08,2.18.11,2.91,1.45,5,4.2,5.87A6.24,6.24,0,0,0,172,83.93a6.15,6.15,0,0,0,.83-7.46c-.09-.18-.18-.35-.28-.52a5,5,0,0,0-2-1.9c-2.66-1.45-5.09-.94-7.37.85-.68.54-1.28,1.27-2.3,1.07a.65.65,0,0,1-.2-.49C160.68,75.3,160.7,75.21,160.74,75.21Z" transform="translate(-62.03 -2.58)"/><path class="cls-79" d="M140.61,80.63c1.57,3.38,1.46,6.51-.27,8-3,.6-6.06-.38-9.1-.11-3.32-.32-6.66-.16-10-.53-1.45-.42-3.32.57-4.32-1.31C113.87,76.47,121.66,70.1,131.61,71c1.43.12,2.56.79.58,2.08-.65.36-1.36.6-2,.94a5,5,0,0,0-2.41,2.56,6.48,6.48,0,0,0,6.56,9.36A6.59,6.59,0,0,0,138.93,83C139.52,82.23,139.6,81.1,140.61,80.63Z" transform="translate(-62.03 -2.58)"/><path class="cls-80" d="M140.61,80.63c-1.28,4.87-5,7.23-9.33,6s-5.94-5.63-4.06-10.78c1.09-.18,1.17.84,1.63,1.38.66.78,1.47,1.15,2.29.48,1-.85.49-1.71-.26-2.5-.49-.52-1.5-.66-1.3-1.72l1.83-.67c5.49-1,7.76.11,9,4.35Z" transform="translate(-62.03 -2.58)"/><path class="cls-81" d="M142.13,106.66c-2.75-1.41-3.84-3.87-4.09-6.74-.17-2,.1-2.12,2.33-1a6.35,6.35,0,0,0,.64.49c6.43,2,12.86,2.37,19.3.07a4.06,4.06,0,0,1,2.85-.14c-.67,4.54-3.37,7.28-7.64,8.61a4.48,4.48,0,0,1-.7-.42c-3.8-2.3-7.72-3.16-11.9-1Z" transform="translate(-62.03 -2.58)"/><path class="cls-82" d="M140.38,77.13c-2.07-3.35-4.94-5.06-9-4.35l1.24-.92a17.67,17.67,0,0,0-7.88.54A10.33,10.33,0,0,0,117,82.18c-.07,1.48-.06,3-.08,4.46-1.36-.64-1.15-2.15-1.8-3.18-1.23-6.92,2-13.19,8.33-14.81,8.5-2.18,14.06-.74,17.11,6.64C141.18,76,141.22,76.6,140.38,77.13Z" transform="translate(-62.03 -2.58)"/><path class="cls-83" d="M140.59,75.29c-3.31-6.23-8.79-7.4-15.14-6.42-5.36.82-8.42,4.1-9.53,9.29-.37,1.74-.52,3.53-.77,5.3-1.07-1.37-1-3-1.27-4.63-1.43-5.14,1.31-8.44,5-11.32a18.17,18.17,0,0,1,11.05-1.85c1.15.21,2.42.24,3.2,1.37C137.11,68.44,139.82,71,140.59,75.29Z" transform="translate(-62.03 -2.58)"/><path class="cls-84" d="M182.61,87.25c2.11-8.3-1.17-14.79-8.21-16.4-3.57-.81-7.08-.32-10.61.16,3.33-3.06,7.45-2.18,11.37-2.3,7.69.81,11.93,6.87,10.37,14.82C185.15,85.23,184.66,86.85,182.61,87.25Z" transform="translate(-62.03 -2.58)"/><path class="cls-85" d="M133.13,67a21.14,21.14,0,0,0-14.25,1.19l-.22-.41c2.18-3.31,5.86-3.37,9.17-4.16a7.22,7.22,0,0,1,3-.1,18.57,18.57,0,0,0-13,4.21,1.08,1.08,0,0,1-.84-.35c4.19-6.15,13.24-6.72,18.71-3.67.79.44,1.85.6,1.6,1.76s-1.27.7-2,.76S133.63,66.19,133.13,67Z" transform="translate(-62.03 -2.58)"/><path class="cls-86" d="M185.53,83.53c-.28-2-.42-4-.88-5.89-1.19-5-4.22-8.19-9.49-8.93a2.28,2.28,0,0,0,2.49-1.77,7.74,7.74,0,0,1,3.66,1.25,21,21,0,0,1,4.2,4.06C187.24,76,187.5,79.76,185.53,83.53Z" transform="translate(-62.03 -2.58)"/><path class="cls-19" d="M138.61,61.74c-8-1.29-15.09-1.54-22,1.37C123.13,57.81,132.9,56.94,138.61,61.74Z" transform="translate(-62.03 -2.58)"/><path class="cls-20" d="M117,67.41a3.68,3.68,0,0,0,.58.08c.37.28,1,.09,1.24.57l.11.16a11.87,11.87,0,0,0-5,10.61c-1.67-2.43-1.24-5.84,1.2-9.14C115.66,68.9,116.32,68.17,117,67.41Z" transform="translate(-62.03 -2.58)"/><path class="cls-87" d="M160.91,88.57A116.45,116.45,0,0,1,180,87.94C173.69,88.8,167.33,89.69,160.91,88.57Z" transform="translate(-62.03 -2.58)"/><path class="cls-88" d="M140.4,99l0-.17c2.57-.53,5.12,0,7.69.12,3.26.1,6.54-.11,9.81-.19a1,1,0,0,1,0,1.07c-4,1.65-8.14.95-12.21.59C143.89,100.3,141.92,100.36,140.4,99Z" transform="translate(-62.03 -2.58)"/><path class="cls-89" d="M155.36,92.66c.31-1.87-2.19-2.81-1.42-5.36.34,2.48,3.35,3.06,2.77,5.27-.49,1.86-2.26,2.91-4.28,3.2C152.17,93.57,154.65,94,155.36,92.66Z" transform="translate(-62.03 -2.58)"/><path class="cls-90" d="M131.38,88c3-.33,6,.58,9,.62-4.2,1-8.41.65-12.61,0C128.82,87.64,130.24,88.61,131.38,88Z" transform="translate(-62.03 -2.58)"/><path class="cls-91" d="M155.52,107.9a13.65,13.65,0,0,1-13.39-1.24.67.67,0,0,1,.23-.27,2.63,2.63,0,0,1,2-.1,18.55,18.55,0,0,0,9.4.83,2.06,2.06,0,0,1,1.65.55Z" transform="translate(-62.03 -2.58)"/><path class="cls-92" d="M155.36,92.66c-.41,1.57-2.4,1.65-2.93,3.11-1,1-1.75.09-2.09-.55s.45-1.2,1.09-1.42C152.73,93.37,154.05,93,155.36,92.66Z" transform="translate(-62.03 -2.58)"/><path class="cls-93" d="M131.38,88c-1.09,1-2.48.15-3.65.64-2.15-.31-4.38.32-6.46-.66Z" transform="translate(-62.03 -2.58)"/><path class="cls-94" d="M160.2,77.69c-.73,1.06-.16,2.36-.64,3.46-1.13-2.31-.33-4.42.67-6.51l.51.57.12.82C161.3,76.84,161.6,77.6,160.2,77.69Z" transform="translate(-62.03 -2.58)"/><path class="cls-95" d="M157.85,99.26a3.46,3.46,0,0,0,0-.46c1.59-.29,3.22-.11,4.84-.63,1.33-.44.65.58.45,1.12a1.66,1.66,0,0,1-2.24,0A2.21,2.21,0,0,1,157.85,99.26Z" transform="translate(-62.03 -2.58)"/><path class="cls-96" d="M121.06,185.24c1.53-.67,1.61-1.71.78-3,18.62,3.58,37.24,4.11,55.86,0,.21,1.19.41,2.37.61,3.55-4.5,1.72-9.26,2.2-14,2.59A131.52,131.52,0,0,1,121.06,185.24Z" transform="translate(-62.03 -2.58)"/><path class="cls-97" d="M125.43,174.29c0-1.38,1.28-2.58.6-4.07a150.52,150.52,0,0,0,47.41,1,7.8,7.8,0,0,0,1.23,3c-10.86,2.7-21.89,3-33,2.22A94.87,94.87,0,0,1,125.43,174.29Z" transform="translate(-62.03 -2.58)"/><path class="cls-98" d="M75,81.24c3.23.9,3.35-2.4,5-3.54.94,1.55,1,1.84.58,1.91-2.06.31-2.66,4.32-5.62,2.21C75,81.63,75,81.44,75,81.24Z" transform="translate(-62.03 -2.58)"/><path class="cls-99" d="M68.36,73.44A9.94,9.94,0,0,1,72,79.5,11.19,11.19,0,0,1,68.36,73.44Z" transform="translate(-62.03 -2.58)"/><path class="cls-59" d="M126.84,129c0,2-3.57.46-2.41,3.23.1.25-.63.62-.9.24-1.5-2.06-4.56-2.79-5.14-5.64,1.65-1.25,3.81,5.68,4.87-1.57C123.11,128.82,125.18,128.77,126.84,129Z" transform="translate(-62.03 -2.58)"/><path class="cls-100" d="M160.2,77.69c.82-.31.61-1,.65-1.66,2.8-3.43,6.17-4.52,10.31-2.58.17,1-.84,1.2-1.35,1.74-.75.8-1.28,1.72-.19,2.51s1.86.18,2.37-.88c.25-.53.37-1.14.92-1.48,2.16,3.43,2.18,6,.08,8.72a7.26,7.26,0,0,1-8,2.5c-3-1-4.79-3.65-4.83-7.38C160.16,78.68,160.19,78.19,160.2,77.69Z" transform="translate(-62.03 -2.58)"/><path class="cls-101" d="M172.91,75.34a10,10,0,0,1-.12,2,2.24,2.24,0,0,1-2.47,1.7A2.2,2.2,0,0,1,168,77.17a2.57,2.57,0,0,1,1.27-2.75c.6-.42,1.73.24,1.85-1A3.14,3.14,0,0,1,172.91,75.34Z" transform="translate(-62.03 -2.58)"/><path class="cls-102" d="M129.58,73.45c0,1,.82.57,1.28.75a2.52,2.52,0,0,1,1.86,2.94,2.13,2.13,0,0,1-2.23,1.93,2.38,2.38,0,0,1-2.65-2.2c-.08-.43.14-1-.62-1.06A5.33,5.33,0,0,1,129.58,73.45Z" transform="translate(-62.03 -2.58)"/><path class="cls-103" d="M155.45,107.67a20.27,20.27,0,0,1-13.09-1.28c0-.1,0-.22.11-.28C145.83,103.23,152.84,104.07,155.45,107.67Z" transform="translate(-62.03 -2.58)"/><path class="cls-104" d="M157.85,99.26l3.07,0c0,.65-.17,1.12-.91,1.29-6.63,1.58-13.2,1.82-19.66-.74-.13-.06-.31-.27-.29-.37s.22-.29.34-.43C146.21,99.77,152,100.68,157.85,99.26Z" transform="translate(-62.03 -2.58)"/><path class="cls-105" d="M118.77,68.06c-.47-.07-1.12.25-1.24-.57a17.08,17.08,0,0,1,14.59-3.9C127.4,64.28,122.41,64.16,118.77,68.06Z" transform="translate(-62.03 -2.58)"/><path class="cls-26" d="M226.12,81.61c-1,1.6-2.28,3.08-3.48,4.58-4.63,5.85-10,11-15.16,16.41a14.5,14.5,0,0,1,1.15,1.7c.73,1.52,1.46,1.48,2.38.15s1.67-2.37,2.6-3.48c5.25-6.27,10.34-12.65,14.94-19.4C227.72,80.2,227,80.2,226.12,81.61Z" transform="translate(-62.03 -2.58)"/><path class="cls-25" d="M229.45,80.86c-.7.08-1.15.81-1.61,1.5-2.07,3.11-4.27,6-6.38,9-.32.46-.65.89-1,1.33.59.71,1.21,1.38,1.83,2q3.66-5.23,7-10.92C230,82.77,230.47,81.82,229.45,80.86Z" transform="translate(-62.03 -2.58)"/><path class="cls-3" d="M221.65,87.65l5.78-7.55a2.85,2.85,0,0,1-1.24-1.22l-7.26,8.77Z" transform="translate(-62.03 -2.58)"/><polygon class="cls-3" points="162.79 88.2 168.47 79.79 168.57 81.36 163.13 89.84 162.79 88.2"/><path class="cls-3" d="M230.59,83.67s1.84-.52,6.14-7.89a1.43,1.43,0,0,0-.88-1.38s-4,8.49-5.36,8c0,0-.7.12-1.21-1.05l-.53-1.26a3.08,3.08,0,0,1-1.7-.19l3,3.25Z" transform="translate(-62.03 -2.58)"/><path class="cls-3" d="M228.44,85.41a5.5,5.5,0,0,0,.94-2.34,1.51,1.51,0,0,0-.6-1.08,1.67,1.67,0,0,1-.91-.67c-.29-.51-.56-.23-.82-.6s.21-.62.21-.62l.92.35,1.27,1.65.86.89Z" transform="translate(-62.03 -2.58)"/><path class="cls-106" d="M236.73,75.78s1.48-.26,1.21,2.08a24.26,24.26,0,0,1-1.21,4.86s-1.56,2.89-2.81,2.48a13.44,13.44,0,0,1-2.64-1.31l-.69-.22" transform="translate(-62.03 -2.58)"/><path class="cls-106" d="M235.85,74.4a2,2,0,0,0-2-1.37c-1.74-.09-1.54-1.4-1.54-1.4a1.4,1.4,0,0,0-2-.37l-.91-1.67a.93.93,0,0,0-1.35-.11c-.85.57-3.37,2-4,3.49a7.78,7.78,0,0,0-.72,2.82,7,7,0,0,0,.18,1.25" transform="translate(-62.03 -2.58)"/><path class="cls-19" d="M196.44,42.24s3.67,8.15,2.65,12a28,28,0,0,1-2.28,6.06,17.39,17.39,0,0,1-5-5.6,10.22,10.22,0,0,0-4.9-4.59l-1.06-3.34,3.86-6,3.49-1.54Z" transform="translate(-62.03 -2.58)"/><path class="cls-19" d="M197.26,39.94s2.17,5.6,3,7.8c1,2.75,4.12,1.09,4.12,1.09s3.66-3.07-1.85-10.43l-4.5-.66Z" transform="translate(-62.03 -2.58)"/><path class="cls-2" d="M199.59,50.44s-.65,8.8-4.17,11.58l2.56-1s3.41-6.64,2.5-11.73S199.59,50.44,199.59,50.44Z" transform="translate(-62.03 -2.58)"/><path class="cls-2" d="M203.73,38.3c-.07-.12-.14-.25-.22-.37l.88,4,.08-.31a10.82,10.82,0,0,1,1,3.62,13.2,13.2,0,0,1-1.17,3.6,3,3,0,0,1-4-.63l.14,1.13s.3.4,1.32.47a10.79,10.79,0,0,0,2.59-.29,2.85,2.85,0,0,0,1.11-1.31c.32-.84.93-1.35.79-2.49a18.44,18.44,0,0,0-1.19-4.79A8.52,8.52,0,0,1,203.73,38.3Z" transform="translate(-62.03 -2.58)"/><path class="cls-2" d="M186.91,49.8s8.76,8.22,12.68.35l.75.82-1.07,2.59s-1.93,8.07-11.18-1.18Z" transform="translate(-62.03 -2.58)"/></svg>