<svg id="Capa_1" data-name="Capa 1" xmlns="http://www.w3.org/2000/svg" viewBox="0 0 931.58 536.59"><defs><style>.cls-1{fill:#fff;}</style></defs><g id="logo_editorial" data-name="logo editorial"><path class="cls-1" d="M101.15,262.48c1.5.48,3.13,1.61,4.48,1.34,7.13-1.39,12.17,2.41,17.56,6.05,2.13,1.43,5.34,1.24,8.94,2l-3.23,4.21,6.19,3-3.4,6.71,5.58,3.77L130,295.88l5.87,5.33-14.05,17c1.87,1.68,2.87,3.15,4.25,3.73,8,3.37,11.77,9,14.88,17.52,2.33,6.36,11.08,10.85,17.71,15,4.39,2.76,6.24,5.55,5.65,10.47a6.29,6.29,0,0,0,.91,3.72C173.1,381.33,181,394,189,406.45c4.48,6.93,3.86,15.86-2.31,21-1.32,1.11-4.89,1.88-5.42,1.21-3.14-3.94-7.85-8.26-8.05-12.63-.68-14.74-8.87-25.55-17.27-36-3.62-4.51-10.11-6.7-16.15-9.26,3.07,10.82,2.52,22.31,10.81,31.17,7.5,8,11.19,17.15,11.75,29,.69,14.79,4.9,29.63,16.57,40.68.82.78,2.23,2.16,2,2.64-2.72,6,2.59,5.21,5.21,5.94,6.06,1.68,12.27,2.81,19,4.29-2-7.13-4.34-14-5.86-21.13-2.32-10.87.36-20.6,8.9-28,16-13.83,40.18-6.55,46.35,13.79.34,1.11.45,2.29.72,3.43,4.76,20,15.87,26.22,38.42,19.52,9.7-2.88,12.77-15.52,5.62-26.7a65.81,65.81,0,0,0-17.93-18.24c-14.27-9.76-30-17.43-44.14-27.34-53.3-37.31-64.83-117.34-23.86-168,24-29.69,56.05-38,92.28-28.49,34.73,9.15,53.22,34,60.08,68.13a178.81,178.81,0,0,1,3,32.78c.2,15.79-12.63,28.06-28.16,28.11-15.25,0-27.29-11.87-28.46-27.32a180.49,180.49,0,0,0-4-28.41c-2.7-11.26-10.28-18.06-22.22-19.41-11.55-1.31-21.39,1.59-28.57,11.19C238,294.23,243.85,334,269.88,352.74a237.64,237.64,0,0,0,21.34,13.52c17.11,9.78,34.08,19.68,47.08,34.38,5.18-10.57,9.4-21.53,15.56-31.27,15.83-25.07,38.58-37.55,68.75-34.45,19.46,2,33.3,12.58,43.17,29,1,1.59,1.89,3.19,2.86,4.77.1.16.42.18.64.27,7.5-15.28,18.57-21.93,32.66-19.6,12.6,2.08,21.14,11.61,23.67,27.23,3.76-6,6.49-12,10.68-16.75,6.62-7.45,13.22-15.72,21.59-20.68,25.85-15.3,55.8-2.9,65.62,25.8,6,17.62,6.49,35.82,6.42,54.13,0,8.55,0,17.1.78,25.76,6.1-13.51,14.92-26,13.38-41.84a86,86,0,0,1,0-12.64c.48-9.12,0-16-9.79-22.36-16.36-10.67-13.48-36.31,3.84-45.88,4.82-2.67,6.83-5.38,6.41-10.79A66,66,0,0,1,645.2,298c1.72-13.51,11.29-23.42,23.82-25,14.06-1.74,25.69,4.86,30.74,18,1.37,3.57,3.06,4.69,6.87,5.25,5.18.77,10.12,3.17,15.82,5.09,2.08-8.77,5.77-17.4,13.89-23.26,7.91-5.7,16.65-8.46,26.44-7.09,18.21,2.55,27.35,13.79,31.64,39.33,12-7.15,25-8,38.07-5.44,21.85,4.28,36.94,23.05,38.45,46.91a22.44,22.44,0,0,1,.07,4.91c-1.09,6.44,1.46,9.27,7.9,11.13,20.56,5.93,26.78,17.09,23.44,38.67a103.42,103.42,0,0,0-.61,25.68q3.9-9.62,7.8-19.23c5.81-14.42,20-21.53,34.75-17.45,13.84,3.83,24.18,19.21,19.67,32.74-10.37,31.12-22.21,61.81-43.37,87.58-13.5,16.44-31.59,20.57-49,11.93-11.66-5.8-18.46-16.17-21.59-28.17-3.23-12.37-4.47-25.26-6.56-37.92-.18-1-.24-2.11-.41-3.77-7.78,14.85-14.73,29.29-22.8,43.07a89.66,89.66,0,0,1-16.09,20.22c-17.52,16.23-42.39,14.07-57.78-4.28-1.19-1.42-2.32-2.9-4.11-5.15-10.52,12.72-22.66,22-40.11,20-16.36-2-29.68-9.44-39.93-23-3.51,3.9-6.44,7.51-9.71,10.77-18.67,18.59-45.92,16.41-61.58-4.87-11.57-15.72-15.1-34.12-16.72-52.9-1.31-15.14-1.5-30.38-2.27-47.34-1.54,4.05-2.92,6.76-3.6,9.63-5.16,21.83-10.51,43.63-15.12,65.58-2.47,11.81-10,20.88-21.92,23.86a28.39,28.39,0,0,1-30.14-11.78c-2.09-3-4.1-6.12-6.25-9.34-41.6,51.68-113.75,52.42-144.29,3-8.81,14.13-20.62,24.18-36,29.93a100.25,100.25,0,0,1-46.6,5.88c0,3.86.79,7.74-.23,11-.92,3-3.39,6.3-6.07,7.55-1.31.61-5.28-2.71-6.93-5-2.26-3.19-2.92-7.54-5.26-10.64-3.07-4.07-7.08-7.43-10.76-11-.64-.62-1.76-.76-2.41-1.38-16.8-16.22-39-19.13-60.24-24.36-6.88-1.7-14.6-1-20.88-3.78-5.78-2.56-10.59-7.93-15-12.85-3-3.36-4.42-8.07-6.89-12.84-8.8,8.09-21.6,11.05-24.23,24.85L100.53,488c-.59,6.86-1.74,12.79-1.47,18.65.71,15.41,0,30.44-7.36,44.5-.74,1.41-.15,3.49-.27,5.25-.32,4.59.07,9.41-1.21,13.72-2,6.67-7.3,8.51-14,6.77-5.78-1.51-11.78-2.18-17.66-3.29-6.61-1.24-13.52-1.75-19.65-4.2-2.65-1.06-3.69-6.16-5.46-9.42,2.72-1.36,5.32-3.29,8.21-3.92,3.13-.68,6.52-.19,9.8-.14,16.22.25,23.06-5.7,25.15-21.69,2.32-17.64,5.69-35.24,2.11-53.08-.8-4-2.35-7.92-3.64-12.1,8.52-10.73,17.67-22.75,27.36-34.31,6-7.19,6.52-15.43,2.32-22.33-9.78-16.05-9.13-34.66-14.45-51.75-3.1-9.95,2.63-19,7.54-27.66a48.36,48.36,0,0,0,2.61-6.71c-2.1.15-4.22.14-6.28.46-4.87.76-8-.75-9.61-5.75-1.49-4.72-3.62-9.24-4.78-12.11.23-8.44.7-15.48.54-22.51-.25-11.18,3.76-16.86,14.52-20.29,2.34-.75,4.36-2.54,6.52-3.85ZM518.79,444c-1.24-5.37-2.9-10.69-3.66-16.12-2.39-17.15-4.3-34.37-6.7-51.51-1.06-7.58-6.23-11.49-13.05-10.7-6.36.73-10.47,5.67-10.23,12.88.2,6.08.17,12.3,1.47,18.18,3.64,16.36,1.27,31.45-7.8,45.53-.76,1.17-1.24,2.52-1.93,3.74-9.14,16.12-20,30.8-37,39.32-14.26,7.15-29.65,9.94-43.54.48-14.28-9.71-18.49-25.42-20.14-42.46,6.24,1.94,11.51,3.82,16.9,5.21,40.83,10.52,69.35-17.25,65.74-50.77-2.11-19.56-9.12-36-28.47-44.15-17-7.13-39.9-1.18-53.59,13.14-28.6,29.91-33.5,87.41-10.42,121.73,12,17.9,28.63,27,50.36,26.59,25.29-.52,45.54-11.53,61.76-30.26,6.95-8,12.85-17,19.49-25.86,1,2.31,1.81,4.48,2.86,6.51,4.62,8.91,9.09,17.91,14.07,26.62,2.74,4.78,7.51,6.14,12.85,4.83,5.09-1.25,8-4.63,8.8-9.78.26-1.61.51-3.23.75-4.85,4.36-28.58,10.92-56.59,23.22-82.88a111.28,111.28,0,0,1,14.75-22.86c4.55-5.57,8.72-4.35,10.07,2.74a239.54,239.54,0,0,1,4,31.23c1,17.53.54,35.15,1.87,52.65,1.15,15.21,4.16,30.24,14.05,42.75,8.9,11.26,23.41,12.79,33.88,3,5-4.73,9.25-10.53,13.17-16.3,4.05-5.95,7.3-12.45,11.37-19.53,1.48,4.15,2.64,7.62,4,11,4.23,11,10.52,20.4,21.07,26.3,15.11,8.44,28,6.37,38.59-7.18,5.88-7.5,10.39-16.08,15.53-24.17.89-1.39,1.88-2.7,2.39-3.43,3.88,9.23,7,18.56,11.61,27.09,4.79,8.88,12.91,13.36,23.39,12.36,9.92-1,16.49-7.49,20.77-15.21,10.4-18.79,20.22-37.94,29.26-57.42,6.36-13.68,11-28.13,16.59-42.51a57.67,57.67,0,0,0,7,2.12c6.46,1.1,7.91,4.19,7.6,11-.9,19.85-1,39.79-.2,59.64.46,11.91,3.27,23.69,10.7,33.67s20.69,12.15,30.19,3.94c5.07-4.38,10.21-9.48,13.18-15.33,10.86-21.47,21-43.31,31-65.19,3.75-8.19.8-15.7-6-18.22-6.56-2.41-12.54,1.34-16.09,9.57-6.85,15.89-13.63,31.83-21,47.47-3.45,7.29-8.28,13.92-13.51,22.53-1.48-4.94-2.62-7.73-3.15-10.63-4.84-26.83-3.25-53.67,0-80.5,1.09-8.9-1.33-12.85-10-15.74-5.77-1.93-11.5-4-17.38-5.57-4.83-1.25-6.73-3-5.77-8.66a73.66,73.66,0,0,0,.38-21c-2.35-19.16-18.38-31.21-37.31-28.76-20.82,2.69-30,19.34-21.21,38.48,5.35,11.61,13.91,20.47,24.61,27.25,3.12,2,4.77,3.75,3.35,7.8-10.08,29-21,57.64-36.31,84.35-2.51,4.36-5.75,8.31-9.57,13.75-2.1-5-4.22-8.27-4.82-11.81-2.15-12.66-5.05-25.38-5.33-38.12-.57-26.22.41-52.48.68-78.72.07-7.8-4.57-13.36-11.16-13.75-6.9-.42-12.31,5-12.66,13-.37,8.42-.56,16.86-.75,25.29-.24,10.54,2,21.86-1.08,31.46-7.54,23.35-17.35,46-31.46,66.41-4.69,6.76-8.12,6.95-14,1-2.26-2.27-4.52-5.11-5.35-8.09-2.45-8.74-5.66-17.63-5.92-26.54-1-33.25-.82-66.53-1.23-99.8-.06-4.82,1.4-7.75,6.25-9.36a166,166,0,0,0,16.86-7c7.23-3.34,9.92-9.56,7.18-15.89-2.91-6.72-8.68-8.93-16.28-6.14-4.24,1.57-8.44,3.27-13,5,0-6.54.13-12.13,0-17.7-.2-6.55-5.27-11.82-11.35-12.1s-11.54,4.44-12.26,11.11a58.75,58.75,0,0,0-.4,12.63c1.3,11.52-.64,20.72-14.13,23a1.88,1.88,0,0,0-.6.36c-5.68,3.42-7.18,8.44-5.12,14.48s7,7.81,12.84,7.41a44.26,44.26,0,0,0,6.06-1.3c0,20.29.08,40-.09,59.61a20.88,20.88,0,0,1-2,8.1c-7.26,16.23-14.47,32.49-22.21,48.48-3,6.22-7.37,11.78-11.11,17.64l-2.53-.06c-2-6.78-5.25-13.46-5.79-20.35-1.63-21-1.78-42.06-3.38-63-1-12.51-2.11-25.34-5.75-37.25-6.59-21.57-29.64-27.58-46.47-12.74A78.18,78.18,0,0,0,546.24,375C533.26,396.19,526.85,420,518.79,444ZM352.32,296.39l.49-.08c-1.28-8.32-2-16.78-3.94-24.93-6.32-25.89-20.55-45.14-47.48-52.16-27.51-7.16-52.2-1.76-72.08,19.36-13,13.77-19,31-21.63,49.45-4,27.79-1.67,54.35,16.57,77.35,11.41,14.38,26.44,24.22,42.13,33.37a368.57,368.57,0,0,1,35.25,22.92c12.16,9.11,17.49,22.26,17.58,37.42.09,14.24-6.16,23.69-19.47,28.58a54,54,0,0,1-32.47,2c-11.3-2.86-18.89-10-23.58-20.36-2-4.42-3.21-9.24-4.53-13.94-2-7.19-8-11.53-14.54-10.28a11.29,11.29,0,0,0-8.75,15.05c3.58,10.75,8.6,21.06,13.46,31.34,2.34,5,5.94,6.28,11.91,3.93,11-4.35,17.62.3,17.71,11.68,0,4.14,1.47,6.41,5.37,6.48,10.47.17,21.19,1.52,31.36-.24,33.08-5.73,50.18-29.68,46.66-63.07-2.64-25.12-16.52-42.75-37-55.9-13-8.35-26.53-15.83-39.56-24.13-12.34-7.87-24.05-16.85-29.67-31-10.85-27.23-8.63-53.94,6.64-78.8,10.8-17.57,28.12-22.33,47.75-19.36,18,2.73,28.92,14,33.42,31,2.74,10.29,3.43,21.15,4.73,31.79.85,6.9,5.16,11.43,11.76,11.57,6.45.14,11.29-4.4,11.84-11.3C352.49,301.56,352.32,299,352.32,296.39Zm350.7,167,2.39.46c5.39-12.11,11-24.13,16.07-36.37,2.2-5.32,4.35-11,4.71-16.67.88-13.78,1-27.63.85-41.44-.17-12.49,1.89-23.78,13.06-31.69-3.06-2.36-5.53-4.27-8.61-6.63-3.52,13.12-13,19.27-24.3,23-5.23,1.71-6.54,4.58-6.49,9.76.25,24.6-.06,49.2.23,73.8C701,446.22,702.29,454.81,703,463.42Zm73.8-156.84c0-11.07-8-19.28-18.78-19.18A19.09,19.09,0,0,0,739,306.63c0,10.39,8.78,18.87,19.45,18.76C768.92,325.28,776.79,317.24,776.82,306.58Zm7.09,138.71,1.49.61c6.12-15.56,12.27-31.11,18.31-46.7.44-1.12.6-3.18,0-3.74-6.92-6-14-11.85-19.76-16.63ZM448.08,456.38c-14.89,9.63-30.14,11.87-46.81,11C412.21,480,437,474.17,448.08,456.38Z" transform="translate(-33.46 -40.92)"/><path class="cls-1" d="M101.38,262.25a12.47,12.47,0,0,0-2.75.21c-7.5,2.25-8.24,1.76-8.4-5.62-.16-8,2-15.82-1.91-24-2.38-5,.65-11.23,6-14.45,4.49-2.69,8.37-1.08,11.66,3,.79,1,3.33,1.21,4.82.83,26.27-6.75,52.71-12.94,78.67-20.74,20.79-6.25,40.74-15.21,61.46-21.72,53.29-16.75,106.68-33.2,160.28-48.89,17.21-5,35.23-7.32,52.87-10.88,1.82-.36,3.61-.85,6.56-1.56-2.84-25.58-5.67-51-8.6-77.47,25,17.41,46.67,39,76.33,46.31-1.15,13.12-3.46,25.68-3.07,38.15.68,22.14.24,44.59,7.92,66A109.76,109.76,0,0,0,548,203c6.27,12.59,16.56,18,30.49,16.3,7.9-1,15.79-2,23.69-3,14.4-1.85,27.09,1.93,37.18,12.44,10.36,10.8,20.33,22,30.14,33.28,1.26,1.45.56,4.59.77,6.94l-3.19,1.83c-5.2-5.85-10.53-11.6-15.57-17.6-4.82-5.73-9.34-11.71-14-17.6-6.84-8.69-15.82-13.17-26.85-12.77-8.64.31-17.27,1.2-25.88,2.08-17.59,1.8-31.31-4.31-40.11-19.87-4-7.09-6.34-15.27-11-21.88-16.41-23.45-37.16-42.68-60.7-58.82-2.58-1.77-7.1-1.54-10.55-1.07-35.87,4.87-70.11,15.84-104.38,27.09-37.3,12.24-75.15,22.77-112.71,34.21a250.74,250.74,0,0,0-25.11,8.85c-32.92,14-67.56,22-102.14,30.28-4,1-10,1.75-11.17,4.36-3.31,7.45-8.35,14.82-6,24,.84,3.28.19,7,.21,10.45Z" transform="translate(-33.46 -40.92)"/><path class="cls-1" d="M425.14,266.49H395.68v16.39h28.1c0,.79.05,1.59.08,2.38h-28.1v18.3h29.8c0,.79.05,1.58.07,2.36a58.93,58.93,0,0,1-6.18.67c-7.48.09-15-.1-22.45.09-3.89.1-5.47-1.33-5.42-5.27.14-11,0-22,.14-33,0-1.57,1.23-4.46,1.95-4.48,10.5-.29,21-.2,31.52-.2C425.17,264.67,425.16,265.58,425.14,266.49Z" transform="translate(-33.46 -40.92)"/><path class="cls-1" d="M459.92,279.63V263.89L462,264v43c-1.64-1.75-2.6-2.79-3.55-3.81-9.62,5.88-19.17,5.46-24.83-1.09-5-5.78-5.27-15.59-.62-21.45C438.8,273.36,447.63,272.8,459.92,279.63ZM433.37,290.5c-.12,8.33,4.62,13.58,12.44,13.78,8.12.22,14.1-5.37,14.13-13.19a13.25,13.25,0,0,0-13.25-13.45C438.71,277.4,433.49,282.44,433.37,290.5Z" transform="translate(-33.46 -40.92)"/><path class="cls-1" d="M576.41,285.62c-.69-6.81,2.9-9.88,8.53-10.71a36.55,36.55,0,0,1,9.8,0c5.79.72,9.51,3.52,9.11,10.13a82.37,82.37,0,0,0,.09,13.33c.24,2.41,1.78,4.69,3.3,8.42l-6.06-2.29c-6.89.92-13,2.75-18.87,2.1-3-.33-6.92-4.64-7.95-7.93-1.61-5.08,2.37-8.34,7.23-9.24,4.57-.86,9.36-.59,13.92-1.47,1.84-.36,4.89-2.77,4.69-3.68-.44-2.09-2.16-4.89-4-5.53C588.2,276,581,277,576.41,285.62Zm25.29,6.75-2.18-1.5c-5.58.46-11.23.53-16.7,1.56a8.23,8.23,0,0,0-5.24,4.71c-.49,1.46,1.58,5.43,2.68,5.5,5.13.32,10.73.75,15.33-1C598.4,300.56,599.72,295.59,601.7,292.37Z" transform="translate(-33.46 -40.92)"/><path class="cls-1" d="M517.87,307.35c-10.38-.15-17.33-7.16-17-17.2.27-9.31,7.67-15.7,18-15.53,9.7.16,16.94,7.11,16.74,16.07C535.35,300.74,528.17,307.49,517.87,307.35Zm.4-3.08c8.27-.09,13.86-5.55,13.77-13.45s-5.83-13.23-14.06-13.17-14.17,5.86-14,13.43S510.27,304.37,518.27,304.27Z" transform="translate(-33.46 -40.92)"/><path class="cls-1" d="M496.91,277.94l-8.43,1.29c0,6.78-.75,13.62.37,20.14.43,2.54,5.06,4.36,7.49,6.28-5.67,3.41-10.73,1.33-11-5.7-.28-6.73-.06-13.48-.06-20.49l-6.65-1.6-.14-1.49,6.32-1.78c.34-2.85.69-5.89,1-8.93l1.85-.13c.38,3.14.77,6.28,1.15,9.39l8.08,1.16Z" transform="translate(-33.46 -40.92)"/><path class="cls-1" d="M615.41,264v41.87l-2.51,0c-.52-14-.4-27.92,0-41.88Z" transform="translate(-33.46 -40.92)"/><path class="cls-1" d="M543.7,275.66l1.16,2.94,14-4.5,1.5,3c-7.12.76-14.14,2.24-15.15,10.08-.79,6.13-.16,12.45-.16,18.69l-2.6-.08V275.85Z" transform="translate(-33.46 -40.92)"/><path class="cls-1" d="M473.64,276.1v30.15C470.31,303.05,469.66,283.74,473.64,276.1Z" transform="translate(-33.46 -40.92)"/><path class="cls-1" d="M565,307.46V275.83C568.24,279.64,568.58,299.89,565,307.46Z" transform="translate(-33.46 -40.92)"/><path class="cls-1" d="M404.52,426.82c-4.74-1.65-14.22-4.77-23.49-8.41-1.34-.53-2.71-3.81-2.35-5.42,2.6-11.59,7.05-22.43,16-30.64,7.16-6.56,15.73-9.17,25.35-6.59,9.27,2.49,12.21,10,14,18.36C438.33,413.82,428.57,427,404.52,426.82Zm-7-20.68,1,2.4c4.52.51,9.12,1.69,13.55,1.26,2.22-.21,5.81-3.31,5.87-5.2.14-4.15-1.25-8.49-2.91-12.38-.21-.5-6.49.29-8.47,2.1C403,397.62,400.51,402.13,397.55,406.14Z" transform="translate(-33.46 -40.92)"/><path class="cls-1" d="M816,345.27c11.49-3.27,15.6,2,13.78,18.46C822.87,358.57,818,353.2,816,345.27Z" transform="translate(-33.46 -40.92)"/></g></svg>