<svg id="Capa_1" data-name="Capa 1" xmlns="http://www.w3.org/2000/svg" viewBox="0 0 936.84 385.9"><defs><style>.cls-1{font-size:126.3px;}.cls-1,.cls-5{fill:#3c3c3b;}.cls-1,.cls-12,.cls-5{font-family:KidsMonday, Kids Monday;}.cls-2{letter-spacing:-0.03em;}.cls-3{letter-spacing:0.06em;}.cls-4{letter-spacing:0em;}.cls-5{font-size:138.07px;}.cls-6{letter-spacing:0.02em;}.cls-7{fill:#fff;}.cls-7,.cls-9{letter-spacing:0em;}.cls-10,.cls-11,.cls-12,.cls-8,.cls-9{fill:#e94e1b;}.cls-8{letter-spacing:-0.04em;}.cls-10{letter-spacing:-0.03em;}.cls-12{font-size:149.69px;}</style></defs><g id="titulo"><text class="cls-1" transform="translate(0 338.72)"><tspan class="cls-2">d</tspan><tspan x="64.93" y="0">i</tspan><tspan class="cls-3" x="90.71" y="0">l</tspan><tspan class="cls-4" x="127.12" y="0">es</tspan></text><text class="cls-5" transform="translate(0 186.21)">A <tspan class="cls-6" x="128.41" y="0">l</tspan><tspan x="162.51" y="0">os</tspan><tspan class="cls-7" x="294.01" y="0"> </tspan><tspan class="cls-8" x="342.74" y="0">e</tspan><tspan class="cls-9" x="417.86" y="0" xml:space="preserve">x  </tspan><tspan class="cls-10" x="591.91" y="0">r</tspan><tspan class="cls-11" x="660.78" y="0">años</tspan></text><g id="forma_de_extraño" data-name="forma de extraño"><path class="cls-11" d="M558.25,75.35a4.55,4.55,0,0,0-4.47.53q-2.89,2.22-5.74,4.48c-3.32,2.63-6.58,5.34-9.95,7.91-2.82,2.15-5.76,4.15-8.66,6.2a2.47,2.47,0,0,1-.46.23c-.49,2.78-.39,5.65-2.06,7.91a4.86,4.86,0,0,0,1.14-.46c1.62-.9,3.18-1.93,4.77-2.88s3.51-2,5.18-3c3.89-2.56,7.73-5.19,11.59-7.79,1-.66,2-1.31,3-2A54.52,54.52,0,0,0,559.94,76C559.38,75.77,558.82,75.54,558.25,75.35Z" transform="translate(-30.1 -28.95)"/><path class="cls-11" d="M522.3,89.81a25.53,25.53,0,0,1-4.42-6.73,22.76,22.76,0,0,1-1.23-4c-.17-.66-.3-1.19-1.29-.76.59-.94,1.1-1.71,1.55-2.51a3.08,3.08,0,0,0,.38-2.34,1.42,1.42,0,0,1,.11-.93,3.2,3.2,0,0,0-.23-3.42,1.56,1.56,0,0,0-1-.7,5.94,5.94,0,0,0-3.44.49,2.23,2.23,0,0,1-.83.16c-1.18.1-2.49,0-3.33,1a9,9,0,0,0-1.44,2.52,4.77,4.77,0,0,0,2.22,5.53,5.93,5.93,0,0,1,1.24.79,1.5,1.5,0,0,1,.39.64c.37,1-.42,1.41-1,1.89s-.56.73-.16,1.23q1.41,1.69,2.75,3.44c1.06,1.38,2.09,2.78,3.13,4.17,1.93,2.57,3.9,5.1,5.75,7.71a14.78,14.78,0,0,0,3.59,3.84,3.24,3.24,0,0,0,2.44.7c-1.19-3.17-2.65-6.42-2.63-9.85C524,91.74,523.16,90.75,522.3,89.81Z" transform="translate(-30.1 -28.95)"/><path class="cls-11" d="M597,204.2c-.29-.83-.68-1.58-1.69-1.74-.52-.09-1-.27-1.62-.42.39-.6.71-1.14,1.09-1.66s.31-.82-.19-1.27a59.09,59.09,0,0,1-4.33-4.19c-1.62-1.8-3.14-3.69-4.61-5.63-1.68-2.22-3.64-4.23-5-6.71a11.5,11.5,0,0,0-1.13-1.71c-1.17-1.45-2.42-2.84-3.56-4.31s-2.05-2.81-1.92-4.72a28,28,0,0,0,0-3.3c-.29-5.94.59-11.8,1.23-17.67.17-1.56.52-3.1.62-4.66a94.15,94.15,0,0,1,1-10.47c.15-.82.4-1.2,1.25-1.37,1.5-.3,2.16-1.18,2-2.37-.36-2.58-.8-5.14-1.08-7.73-.3-2.75-.46-5.51-.66-8.27-.15-2.12-.23-4.26-.43-6.38-.36-3.78-.84-7.55-1.17-11.33-.24-2.63-.32-5.28-.46-7.93-.08-1.56-.14-3.13-.21-4.76-3.48-5.88.8-11.76-2.24-17.64a4,4,0,0,0-.4.15c-2.09.92-4.16,1.9-6.36,2.9-.72-2.2-1.41-4.29-2.08-6.38A21.49,21.49,0,0,1,564,55.28a1,1,0,0,1,.65-.93A6.09,6.09,0,0,0,568.47,49a3.71,3.71,0,0,0-.9-3.13,3.3,3.3,0,0,0-3.67-.75,15.37,15.37,0,0,1,.29-6.51c.35-1.8.78-3.59,1.13-5.39a5.94,5.94,0,0,0-.45-3.45c-.2-.51-.54-.94-1.15-.84-1.83.3-3.68.55-5.48,1-2.21.51-4.39,1.17-6.57,1.8s-4.37,1.13-6.46,1.94a37.64,37.64,0,0,0-5.5,2.75,7,7,0,0,0-1.78,2,1,1,0,0,0,0,.93,1,1,0,0,0,.83.28c1.62-.24,3.23-.54,4.84-.81a2.34,2.34,0,0,1,2.73,1.46,8.5,8.5,0,0,1,.52,2c.16,1,.23,2.09.34,3.14a22.72,22.72,0,0,1-1,9.65,17.66,17.66,0,0,0-.77,3.21c-.25,1.83.55,2.55,2.38,2.32.1,0,.19,0,.29-.06l3.76-.87c-.12.8-.18,1.48-.34,2.13s0,1,.63,1.05a15,15,0,0,0,3.34.14,16.68,16.68,0,0,0,3.09-1,3.85,3.85,0,0,1-2.16,2c-.61.32-1.26.55-1.85.89a1,1,0,0,0-.11,1.85,10.2,10.2,0,0,1,4,6.54.68.68,0,0,1-.34.57c-1.2.47-2.43.89-3.65,1.34l-1.81.68a54.35,54.35,0,0,1,1.84,12.66l.09-.38.18,0a3.85,3.85,0,0,1,.35,1c.12,2.2.34,4.41.26,6.6-.13,3.77-.47,7.54-.69,11.3a39,39,0,0,1-1,8.59c-.55,1.89-.7,3.9-1.07,5.85s-.77,3.69-1.15,5.54-.79,4-1.2,6a8.24,8.24,0,0,1-.41,1.18l-1.53,4c-.17.44,0,.75.46.79.68.06,1.36.05,2,.06h1.67a43.7,43.7,0,0,1-1.46,4.28c-1.2,2.66-2.59,5.21-3.57,8-.68,1.92-1.85,3.67-2.64,5.57-1.3,3.09-2.34,6.29-3.7,9.35A23.57,23.57,0,0,0,539.48,179c.34,2.78.67,5.55.93,8.34.14,1.53.11,3.08.2,4.63.15,2.69.34,5.38.51,8.07a57.08,57.08,0,0,1-.58,10.2c-.14,1.22-.14,1.23,1.16,1.34a5.8,5.8,0,0,1-.83.69,32.64,32.64,0,0,1-9.6,3.31,12.33,12.33,0,0,0-2.9,1,1.85,1.85,0,0,0-.77.75.78.78,0,0,0,.38,1.22,5.16,5.16,0,0,0,3.18.63l3.62-.57,3.19-.51c1.49-.23,3-.47,4.49-.68A23,23,0,0,1,546,217a2.72,2.72,0,0,0,3-2.78,3.5,3.5,0,0,0-.82-2.66c.32-.07.56-.14.79-.17,1-.12,1.2-.41,1-1.35-.44-2.21-1-4.4-1.32-6.62-.61-4.07-1.1-8.16-1.61-12.25-.32-2.63-.75-5.25-.86-7.89a74.55,74.55,0,0,1,.17-9.09,14.47,14.47,0,0,1,1.38-4.69,45.1,45.1,0,0,1,2.82-4.71q3-4.81,6-9.61c1-1.66,2.06-3.34,3.15-5s2.22-3.14,3.44-4.84c.13,1.77.28,3.4.36,5,.14,2.72.21,5.44.34,8.16.12,2.52.28,5,.43,7.56a21.42,21.42,0,0,0,.23,2.78c.47,2.35,1,4.7,1.58,7a5.51,5.51,0,0,0,1.69,2.87,38.46,38.46,0,0,1,3.38,3.25c1.53,1.71,3,3.52,4.41,5.3.75.92,1.44,1.9,2.18,2.83,1.24,1.56,2.48,3.11,3.75,4.63.63.75,1.38,1.4,2,2.14a27.8,27.8,0,0,1,5.06,9.22c.24.69.49.75,1,.26.28-.24.54-.52.81-.78l.17.09a3.4,3.4,0,0,1-.1,1c-.56,1.3-1.16,2.58-1.78,3.86-.3.64-.72,1.23-1,1.86a1.62,1.62,0,0,1-1.12,1,23.74,23.74,0,0,0-3,1,1.49,1.49,0,0,0-.89,1.62c.09.69.68.79,1.2.91a5.86,5.86,0,0,0,1.38.17c2.06,0,4.12-.07,6.17-.18,1-.06,2.08-.12,2.48-1.32a10.53,10.53,0,0,0,.53-2c.25-1.65.47-3.3.61-5a3.3,3.3,0,0,1,1.33-2.57A1.56,1.56,0,0,0,597,204.2Z" transform="translate(-30.1 -28.95)"/><path class="cls-11" d="M602.85,92.81l-7.94-2.41c-1.22-.38-2.41-.84-3.64-1.17-3.62-1-7.27-1.87-10.9-2.84s-7.17-2-10.78-2.91a18.12,18.12,0,0,0-3.69-.5c-1.94-.1-3-1-2.93-2.72,6.45.73,10.79-4.82,17.37-3.71l-.19,0c1.92,1.06,3.71,2.15,5.61,3.05,2.76,1.31,5.26,3,8.22,4s5.91,2.29,8.86,3.44a2.28,2.28,0,0,0,2.26-.2c1.73-1.08,3.55-2,5.27-3.15,2.74-1.76,5.44-3.59,8.14-5.4,2-1.33,4.09-2.51,5.44-4.49.35-.53.72-.8,1.24-.38a7.36,7.36,0,0,0,2.7-4c.13-.49.31-1,.48-1.44a5.21,5.21,0,0,1,2-2.54,1.43,1.43,0,0,1,1.12-.17c.19.07.22.59.22.92a2.74,2.74,0,0,1-.24.79c-.28.82.14,1.31,1,1A11.57,11.57,0,0,0,635,67a11.73,11.73,0,0,1,4.31-1.61c.61-.08,1.17,0,1.38.56s-.27.92-.74,1.21c-.13.07-.27.12-.39.2l-1.65,1c1.69-.15,3.16-.38,4.52.21.24.11.4.37.6.56-.24.21-.46.52-.73.59-1.24.31-2.49.53-3.73.82a4.62,4.62,0,0,0-.81.39l.07.2c.35,0,.7.09,1.05.15,1.24.22,2.49.42,3.72.69.22,0,.32.44.48.67a2.82,2.82,0,0,1-.76.41,3.08,3.08,0,0,1-.79-.06l-2.14,0,0,.24a1.48,1.48,0,0,0,.35.19c.55.19,1.13.34,1.66.58a.71.71,0,0,1,.39.6.84.84,0,0,1-.6.48,4,4,0,0,1-1.24-.22c-.9-.28-1.77-.75-2.78-.34-1.38.54-2.76,1.09-4.09,1.74a7.33,7.33,0,0,1-3,1c-.42,0-.85.05-1.31.07.62.91.61,1.08-.32,1.67-2.84,1.79-5.71,3.55-8.56,5.33-1.52,1-3.05,1.92-4.52,3-1.84,1.3-3.56,2.77-5.47,4a18.25,18.25,0,0,1-4,1.72A4.78,4.78,0,0,1,602.85,92.81Z" transform="translate(-30.1 -28.95)"/><path class="cls-11" d="M573.48,68.11s2.93-1.82,3.93-1.32,2.74,9.81,2.74,9.81l-8,2.61Z" transform="translate(-30.1 -28.95)"/><polygon class="cls-11" points="498.87 65.75 494.71 63.77 494.71 69.01 496.81 73.66 499.88 70.65 498.87 65.75"/></g><text class="cls-12" transform="translate(301.37 342.23) scale(1.22 1)">NO</text></g></svg>